{
.appVersion = "908";
DisplayStrings = (
"a@@\U00A9"
);
copyright = "Copyright (c) 2011 by vernon adams. All rights reserved.";
date = "2016-07-06 09:50:39 +0000";
designer = "vernon adams";
designerURL = newtypography.co.uk;
familyName = SigmarOne;
fontMaster = (
{
alignmentZones = (
"{676, 20}",
"{676, 20}",
"{578, 25}",
"{0, -25}",
"{-324, -20}"
);
ascender = 676;
capHeight = 676;
descender = -324;
guideLines = (
{
angle = 90;
position = "{400, 229}";
},
{
position = "{431, -94}";
}
);
id = UUID0;
xHeight = 578;
}
);
glyphs = (
{
glyphname = A;
lastChange = "2016-07-07 08:24:44 +0000";
layers = (
{
anchors = (
{
name = bottom;
position = "{459, 0}";
},
{
name = ogonek;
position = "{826, 10}";
},
{
name = top;
position = "{459, 676}";
}
);
background = {
paths = (
{
closed = 1;
nodes = (
"349 666 LINE",
"350 666 LINE",
"365 667 LINE",
"387 667 LINE",
"412 668 LINE",
"434 670 LINE",
"447 670 LINE",
"447 671 LINE",
"450 671 LINE",
"478 671 LINE",
"517 671 LINE",
"562 671 LINE",
"600 670 LINE",
"627 668 LINE",
"629 666 LINE",
"643 666 LINE",
"669 671 LINE",
"683 671 LINE",
"689 671 LINE",
"701 665 LINE",
"707 665 LINE",
"710 665 LINE",
"713 666 LINE",
"716 666 LINE",
"719 665 LINE",
"726 657 LINE",
"726 655 LINE",
"796 339 LINE",
"812 278 LINE",
"841 151 LINE",
"854 91 LINE",
"855 86 LINE",
"859 69 LINE",
"862 49 LINE",
"864 28 LINE",
"862 10 LINE",
"854 -1 LINE",
"846 -1 LINE",
"842 -1 LINE",
"823 -1 LINE",
"797 0 LINE",
"771 0 LINE",
"747 0 LINE",
"731 0 LINE",
"731 1 LINE",
"668 1 LINE",
"668 2 LINE",
"666 5 LINE",
"658 5 LINE",
"657 5 LINE",
"655 1 LINE",
"654 1 LINE",
"651 1 LINE",
"650 1 LINE",
"634 2 LINE",
"611 3 LINE",
"585 5 LINE",
"576 5 LINE",
"568 17 LINE",
"554 80 LINE",
"546 122 LINE",
"534 120 LINE",
"506 119 LINE",
"476 119 LINE",
"444 119 LINE",
"431 119 LINE",
"422 78 LINE",
"409 17 LINE",
"402 5 LINE",
"398 5 LINE",
"388 1 LINE",
"387 1 LINE",
"384 1 LINE",
"378 1 LINE",
"373 5 LINE",
"370 5 LINE",
"344 4 LINE",
"325 3 LINE",
"316 3 LINE",
"300 2 LINE",
"288 1 LINE",
"280 1 LINE",
"280 1 LINE",
"187 1 LINE",
"186 1 LINE",
"171 0 LINE",
"147 0 LINE",
"120 0 LINE",
"95 -1 LINE",
"76 -1 LINE",
"72 -1 LINE",
"64 -1 LINE",
"56 10 LINE",
"54 28 LINE",
"56 49 LINE",
"60 69 LINE",
"63 86 LINE",
"64 91 LINE",
"77 151 LINE",
"106 278 LINE",
"122 339 LINE",
"192 655 LINE",
"192 657 LINE",
"199 665 LINE",
"202 666 LINE",
"205 666 LINE",
"208 665 LINE",
"211 665 LINE",
"224 665 LINE",
"251 671 LINE",
"265 671 LINE",
"286 671 LINE",
"326 666 LINE"
);
},
{
closed = 1;
nodes = (
"486 496 LINE",
"486 496 LINE",
"481 470 LINE",
"474 428 LINE",
"465 375 LINE",
"456 321 LINE",
"446 268 LINE",
"443 247 LINE",
"494 247 LINE",
"495 248 LINE",
"500 250 LINE",
"501 250 LINE",
"503 250 LINE",
"513 250 LINE",
"528 246 LINE",
"535 244 LINE",
"531 265 LINE",
"522 318 LINE",
"513 374 LINE",
"503 427 LINE",
"496 469 LINE",
"492 496 LINE",
"492 496 LINE",
"491 498 LINE",
"491 500 LINE",
"490 502 LINE",
"490 507 LINE",
"489 511 LINE",
"488 507 LINE",
"487 502 LINE",
"486 500 LINE",
"486 498 LINE"
);
}
);
};
layerId = UUID0;
paths = (
{
closed = 1;
nodes = (
"349 666 LINE",
"350 666 LINE",
"365 667 LINE",
"387 667 LINE",
"412 668 LINE",
"434 670 LINE",
"447 670 LINE",
"447 671 LINE",
"450 671 LINE",
"478 671 LINE",
"517 671 LINE",
"562 671 LINE",
"600 670 LINE",
"627 668 LINE",
"629 666 LINE",
"643 666 LINE",
"669 671 LINE",
"683 671 LINE",
"689 671 LINE",
"701 665 LINE",
"707 665 LINE",
"710 665 LINE",
"713 666 LINE",
"716 666 LINE",
"719 665 LINE",
"726 657 LINE",
"726 655 LINE",
"796 339 LINE",
"812 278 LINE",
"841 151 LINE",
"854 91 LINE",
"855 86 LINE",
"859 69 LINE",
"862 49 LINE",
"864 28 LINE",
"862 10 LINE",
"854 -1 LINE",
"846 -1 LINE",
"842 -1 LINE",
"823 -1 LINE",
"797 0 LINE",
"771 0 LINE",
"747 0 LINE",
"731 0 LINE",
"731 1 LINE",
"668 1 LINE",
"668 2 LINE",
"666 5 LINE",
"658 5 LINE",
"657 5 LINE",
"655 1 LINE",
"654 1 LINE",
"651 1 LINE",
"650 1 LINE",
"634 2 LINE",
"611 3 LINE",
"585 5 LINE",
"576 5 LINE",
"568 17 LINE",
"554 80 LINE",
"546 122 LINE",
"534 120 LINE",
"506 119 LINE",
"476 119 LINE",
"444 119 LINE",
"431 119 LINE",
"422 78 LINE",
"409 17 LINE",
"402 5 LINE",
"398 5 LINE",
"388 1 LINE",
"387 1 LINE",
"384 1 LINE",
"378 1 LINE",
"373 5 LINE",
"370 5 LINE",
"344 4 LINE",
"325 3 LINE",
"316 3 LINE",
"300 2 LINE",
"288 1 LINE",
"280 1 LINE",
"187 1 LINE",
"186 1 LINE",
"171 0 LINE",
"147 0 LINE",
"120 0 LINE",
"95 -1 LINE",
"76 -1 LINE",
"72 -1 LINE",
"64 -1 LINE",
"56 10 LINE",
"54 28 LINE",
"56 49 LINE",
"60 69 LINE",
"63 86 LINE",
"64 91 LINE",
"77 151 LINE",
"106 278 LINE",
"122 339 LINE",
"192 655 LINE",
"192 657 LINE",
"199 665 LINE",
"202 666 LINE",
"205 666 LINE",
"208 665 LINE",
"211 665 LINE",
"224 665 LINE",
"251 671 LINE",
"265 671 LINE",
"286 671 LINE",
"326 666 LINE"
);
},
{
closed = 1;
nodes = (
"486 496 LINE",
"481 470 LINE",
"474 428 LINE",
"465 375 LINE",
"456 321 LINE",
"446 268 LINE",
"443 247 LINE",
"494 247 LINE",
"495 248 LINE",
"500 250 LINE",
"501 250 LINE",
"503 250 LINE",
"513 250 LINE",
"528 246 LINE",
"535 244 LINE",
"531 265 LINE",
"522 318 LINE",
"513 374 LINE",
"503 427 LINE",
"496 469 LINE",
"492 496 LINE",
"491 498 LINE",
"491 500 LINE",
"490 502 LINE",
"490 507 LINE",
"489 511 LINE",
"488 507 LINE",
"487 502 LINE",
"486 500 LINE",
"486 498 LINE"
);
}
);
width = 918;
}
);
unicode = 0041;
},
{
glyphname = AE;
lastChange = "2016-07-07 08:24:57 +0000";
layers = (
{
anchors = (
{
name = bottom;
position = "{605, 0}";
},
{
name = top;
position = "{742, 676}";
}
);
layerId = UUID0;
paths = (
{
closed = 1;
nodes = (
"500 666 LINE",
"501 666 LINE",
"513 667 LINE",
"531 667 LINE",
"552 668 LINE",
"569 670 LINE",
"580 670 LINE",
"580 671 LINE",
"583 671 LINE",
"616 671 LINE",
"660 671 LINE",
"708 671 LINE",
"727 670 LINE",
"777 671 LINE",
"870 674 LINE",
"965 675 LINE",
"1065 673 LINE",
"1123 669 LINE",
"1130 669 LINE",
"1138 645 LINE",
"1143 607 LINE",
"1147 563 LINE",
"1151 543 LINE",
"1151 531 LINE",
"1150 520 LINE",
"1147 515 LINE",
"1142 516 LINE",
"1138 516 LINE",
"1091 516 LINE",
"994 515 LINE",
"945 515 LINE",
"940 515 LINE",
"933 491 LINE",
"928 458 LINE",
"926 426 LINE",
"926 418 LINE",
"926 404 LINE",
"933 397 LINE",
"941 397 LINE",
"987 397 LINE",
"1075 397 LINE",
"1119 393 LINE",
"1126 392 LINE",
"1137 391 LINE",
"1145 388 LINE",
"1150 379 LINE",
"1153 370 LINE",
"1157 281 LINE",
"1157 278 LINE",
"1157 269 LINE",
"1137 259 LINE",
"1104 254 LINE",
"1063 253 LINE",
"1041 253 LINE",
"998 253 LINE",
"950 255 LINE",
"927 250 LINE",
"922 232 LINE",
"922 213 LINE",
"922 195 LINE",
"918 161 LINE",
"919 142 LINE",
"968 142 LINE",
"1064 143 LINE",
"1112 143 LINE",
"1113 143 LINE",
"1117 128 LINE",
"1121 105 LINE",
"1125 77 LINE",
"1128 51 LINE",
"1130 30 LINE",
"1130 26 LINE",
"1130 17 LINE",
"1121 5 LINE",
"1110 5 LINE",
"1078 5 LINE",
"1020 1 LINE",
"988 1 LINE",
"950 1 LINE",
"873 0 LINE",
"834 0 LINE",
"831 -1 LINE",
"827 -1 LINE",
"823 -1 LINE",
"803 -1 LINE",
"777 0 LINE",
"750 0 LINE",
"738 0 LINE",
"671 0 LINE",
"669 0 LINE",
"662 0 LINE",
"658 1 LINE",
"650 1 LINE",
"650 2 LINE",
"639 3 LINE",
"637 1 LINE",
"636 1 LINE",
"633 1 LINE",
"632 1 LINE",
"616 2 LINE",
"594 3 LINE",
"568 5 LINE",
"558 5 LINE",
"554 17 LINE",
"554 80 LINE",
"555 122 LINE",
"533 118 LINE",
"475 119 LINE",
"449 119 LINE",
"432 78 LINE",
"404 17 LINE",
"394 5 LINE",
"390 5 LINE",
"379 1 LINE",
"378 1 LINE",
"375 1 LINE",
"370 1 LINE",
"365 5 LINE",
"362 5 LINE",
"336 4 LINE",
"317 3 LINE",
"308 3 LINE",
"292 2 LINE",
"279 1 LINE",
"271 1 LINE",
"179 1 LINE",
"178 1 LINE",
"162 0 LINE",
"139 0 LINE",
"112 0 LINE",
"86 -1 LINE",
"67 -1 LINE",
"63 -1 LINE",
"56 -1 LINE",
"50 10 LINE",
"52 28 LINE",
"59 49 LINE",
"66 69 LINE",
"74 86 LINE",
"76 91 LINE",
"102 151 LINE",
"161 278 LINE",
"190 339 LINE",
"341 655 LINE",
"341 657 LINE",
"350 665 LINE",
"354 666 LINE",
"356 666 LINE",
"359 665 LINE",
"362 665 LINE",
"375 665 LINE",
"403 671 LINE",
"417 671 LINE",
"438 671 LINE",
"477 666 LINE"
);
},
{
closed = 1;
nodes = (
"579 496 LINE",
"579 496 LINE",
"570 470 LINE",
"555 428 LINE",
"536 375 LINE",
"517 321 LINE",
"497 268 LINE",
"490 247 LINE",
"531 247 LINE",
"541 247 LINE",
"563 247 LINE",
"571 244 LINE",
"572 265 LINE",
"575 318 LINE",
"579 374 LINE",
"581 427 LINE",
"583 469 LINE",
"585 496 LINE",
"585 496 LINE",
"585 500 LINE",
"585 502 LINE",
"585 507 LINE",
"585 511 LINE",
"584 507 LINE",
"582 502 LINE",
"581 500 LINE",
"580 498 LINE"
);
}
);
width = 1210;
}
);
unicode = 00C6;
},
{
glyphname = B;
lastChange = "2016-07-07 08:25:00 +0000";
layers = (
{
anchors = (
{
name = bottom;
position = "{410, 0}";
},
{
name = top;
position = "{410, 676}";
}
);
layerId = UUID0;
paths = (
{
closed = 1;
nodes = (
"58 525 LINE",
"58 542 LINE",
"57 575 LINE",
"57 590 LINE",
"57 604 LINE",
"59 629 LINE",
"61 641 LINE",
"63 648 LINE",
"65 664 LINE",
"72 677 LINE",
"86 686 LINE",
"101 686 LINE",
"119 686 LINE",
"167 689 LINE",
"218 692 LINE",
"268 695 LINE",
"288 695 LINE",
"334 695 LINE",
"433 685 LINE",
"480 679 LINE",
"506 676 LINE",
"568 667 LINE",
"631 653 LINE",
"688 630 LINE",
"733 594 LINE",
"760 542 LINE",
"760 506 LINE",
"760 463 LINE",
"726 401 LINE",
"691 379 LINE",
"683 375 LINE",
"665 368 LINE",
"649 361 LINE",
"636 353 LINE",
"633 348 LINE",
"634 347 LINE",
"635 345 LINE",
"636 344 LINE",
"674 328 LINE",
"729 293 LINE",
"764 256 LINE",
"780 219 LINE",
"780 200 LINE",
"780 171 LINE",
"744 114 LINE",
"682 64 LINE",
"598 23 LINE",
"550 10 LINE",
"513 -1 LINE",
"441 -14 LINE",
"375 -21 LINE",
"317 -24 LINE",
"294 -24 LINE",
"228 -24 LINE",
"139 -18 LINE",
"85 3 LINE",
"63 41 LINE",
"63 72 LINE",
"63 82 LINE",
"64 112 LINE",
"65 144 LINE",
"66 172 LINE",
"66 179 LINE",
"66 265 LINE",
"58 438 LINE"
);
},
{
closed = 1;
nodes = (
"399 255 LINE",
"393 255 LINE",
"388 247 LINE",
"388 241 LINE",
"388 161 LINE",
"388 156 LINE",
"394 154 LINE",
"396 154 LINE",
"397 154 LINE",
"399 154 LINE",
"399 155 LINE",
"479 193 LINE",
"558 229 LINE",
"560 231 LINE",
"565 234 LINE",
"567 236 LINE",
"544 243 LINE",
"505 250 LINE",
"465 254 LINE",
"424 255 LINE"
);
},
{
closed = 1;
nodes = (
"405 453 LINE",
"405 448 LINE",
"406 442 LINE",
"413 442 LINE",
"415 442 LINE",
"434 449 LINE",
"459 460 LINE",
"487 474 LINE",
"511 485 LINE",
"527 492 LINE",
"528 492 LINE",
"531 493 LINE",
"540 496 LINE",
"540 500 LINE",
"540 510 LINE",
"517 521 LINE",
"486 526 LINE",
"456 528 LINE",
"448 528 LINE",
"431 528 LINE",
"414 516 LINE",
"406 495 LINE",
"405 468 LINE"
);
}
);
width = 820;
}
);
unicode = 0042;
},
{
glyphname = C;
lastChange = "2016-07-07 10:14:24 +0000";
layers = (
{
anchors = (
{
name = bottom;
position = "{318, 0}";
},
{
name = top;
position = "{358, 676}";
}
);
layerId = UUID0;
paths = (
{
closed = 1;
nodes = (
"380 327 LINE",
"380 315 LINE",
"381 292 LINE",
"382 282 LINE",
"385 250 LINE",
"400 204 LINE",
"422 176 LINE",
"450 164 LINE",
"466 164 LINE",
"481 164 LINE",
"514 173 LINE",
"549 190 LINE",
"585 211 LINE",
"603 224 LINE",
"612 60 LINE",
"592 41 LINE",
"541 10 LINE",
"484 -12 LINE",
"428 -24 LINE",
"403 -24 LINE",
"375 -24 LINE",
"320 -21 LINE",
"266 -14 LINE",
"214 0 LINE",
"190 11 LINE",
"180 16 LINE",
"161 26 LINE",
"152 33 LINE",
"137 46 LINE",
"110 77 LINE",
"99 96 LINE",
"80 118 LINE",
"67 146 LINE",
"55 179 LINE",
"41 261 LINE",
"41 313 LINE",
"41 372 LINE",
"65 471 LINE",
"87 512 LINE",
"128 596 LINE",
"266 688 LINE",
"353 694 LINE",
"359 695 LINE",
"371 695 LINE",
"378 695 LINE",
"419 695 LINE",
"463 686 LINE",
"504 678 LINE",
"588 645 LINE",
"631 620 LINE",
"613 490 LINE",
"584 497 LINE",
"523 512 LINE",
"494 512 LINE",
"469 512 LINE",
"425 495 LINE",
"410 471 LINE",
"396 450 LINE",
"380 380 LINE"
);
}
);
width = 676;
}
);
unicode = 0043;
},
{
glyphname = D;
lastChange = "2016-07-07 08:25:50 +0000";
layers = (
{
anchors = (
{
name = bottom;
position = "{429, 0}";
},
{
name = center;
position = "{429, 338}";
},
{
name = top;
position = "{429, 676}";
}
);
layerId = UUID0;
paths = (
{
closed = 1;
nodes = (
"375 -1 LINE",
"342 -1 LINE",
"277 0 LINE",
"208 0 LINE",
"133 1 LINE",
"90 1 LINE",
"81 1 LINE",
"70 13 LINE",
"65 31 LINE",
"63 52 LINE",
"63 62 LINE",
"63 85 LINE",
"62 167 LINE",
"60 267 LINE",
"58 375 LINE",
"58 425 LINE",
"58 645 LINE",
"58 654 LINE",
"75 671 LINE",
"84 671 LINE",
"151 671 LINE",
"248 669 LINE",
"283 669 LINE",
"338 669 LINE",
"461 672 LINE",
"535 672 LINE",
"563 672 LINE",
"625 662 LINE",
"686 636 LINE",
"743 593 LINE",
"786 526 LINE",
"812 434 LINE",
"812 372 LINE",
"812 270 LINE",
"767 127 LINE",
"664 39 LINE",
"497 -1 LINE"
);
},
{
closed = 1;
nodes = (
"382 132 LINE",
"392 131 LINE",
"401 132 LINE",
"408 132 LINE",
"423 135 LINE",
"427 139 LINE",
"434 146 LINE",
"445 176 LINE",
"456 218 LINE",
"464 268 LINE",
"470 320 LINE",
"473 372 LINE",
"473 394 LINE",
"473 397 LINE",
"473 427 LINE",
"470 468 LINE",
"465 513 LINE",
"455 552 LINE",
"438 577 LINE",
"427 577 LINE",
"419 577 LINE",
"407 574 LINE",
"402 572 LINE",
"397 570 LINE",
"394 567 LINE",
"394 544 LINE",
"393 482 LINE",
"391 413 LINE",
"389 339 LINE",
"388 304 LINE"
);
}
);
width = 857;
}
);
unicode = 0044;
},
{
glyphname = Eth;
lastChange = "2016-07-06 09:52:17 +0000";
layers = (
{
layerId = UUID0;
paths = (
{
closed = 1;
nodes = (
"411 -1 LINE",
"381 -1 LINE",
"322 0 LINE",
"259 0 LINE",
"190 1 LINE",
"151 1 LINE",
"142 1 LINE",
"131 13 LINE",
"126 31 LINE",
"125 52 LINE",
"125 62 LINE",
"125 77 LINE",
"124 123 LINE",
"123 179 LINE",
"121 243 LINE",
"121 277 LINE",
"105 277 LINE",
"77 278 LINE",
"57 282 LINE",
"44 289 LINE",
"44 294 LINE",
"44 312 LINE",
"44 339 LINE",
"43 364 LINE",
"43 391 LINE",
"43 408 LINE",
"43 410 LINE",
"48 416 LINE",
"57 420 LINE",
"67 423 LINE",
"71 423 LINE",
"83 423 LINE",
"107 423 LINE",
"119 423 LINE",
"119 425 LINE",
"119 645 LINE",
"119 654 LINE",
"136 671 LINE",
"146 671 LINE",
"205 671 LINE",
"288 669 LINE",
"320 669 LINE",
"375 669 LINE",
"498 672 LINE",
"572 672 LINE",
"599 672 LINE",
"661 662 LINE",
"723 635 LINE",
"779 590 LINE",
"822 521 LINE",
"848 426 LINE",
"848 362 LINE",
"848 263 LINE",
"803 124 LINE",
"700 38 LINE",
"533 -1 LINE"
);
},
{
closed = 1;
nodes = (
"419 132 LINE",
"431 131 LINE",
"442 132 LINE",
"451 132 LINE",
"469 135 LINE",
"474 139 LINE",
"484 149 LINE",
"503 182 LINE",
"517 241 LINE",
"524 329 LINE",
"524 394 LINE",
"524 397 LINE",
"524 427 LINE",
"521 468 LINE",
"513 513 LINE",
"500 552 LINE",
"479 577 LINE",
"464 577 LINE",
"453 577 LINE",
"437 574 LINE",
"431 572 LINE",
"425 570 LINE",
"420 567 LINE",
"420 540 LINE",
"420 464 LINE",
"420 422 LINE",
"432 422 LINE",
"454 420 LINE",
"473 417 LINE",
"484 412 LINE",
"484 407 LINE",
"484 389 LINE",
"483 365 LINE",
"482 344 LINE",
"481 324 LINE",
"481 311 LINE",
"481 304 LINE",
"479 292 LINE",
"466 285 LINE",
"441 280 LINE",
"419 280 LINE",
"419 249 LINE",
"419 195 LINE",
"419 175 LINE"
);
}
);
width = 895;
}
);
unicode = 00D0;
},
{
glyphname = E;
lastChange = "2016-07-07 10:15:18 +0000";
layers = (
{
anchors = (
{
name = bottom;
position = "{347, 0}";
},
{
name = ogonek;
position = "{602, 10}";
},
{
name = top;
position = "{347, 676}";
},
{
name = topleft;
position = "{20, 676}";
}
);
layerId = UUID0;
paths = (
{
closed = 1;
nodes = (
"57 393 LINE",
"57 457 LINE",
"59 582 LINE",
"65 650 LINE",
"65 657 LINE",
"79 665 LINE",
"100 669 LINE",
"126 670 LINE",
"139 670 LINE",
"201 670 LINE",
"313 673 LINE",
"422 675 LINE",
"539 674 LINE",
"606 669 LINE",
"615 669 LINE",
"626 647 LINE",
"633 615 LINE",
"639 576 LINE",
"644 558 LINE",
"645 545 LINE",
"642 534 LINE",
"637 530 LINE",
"627 531 LINE",
"621 531 LINE",
"596 531 LINE",
"544 527 LINE",
"492 522 LINE",
"439 517 LINE",
"413 515 LINE",
"409 515 LINE",
"401 491 LINE",
"396 458 LINE",
"394 426 LINE",
"394 418 LINE",
"394 404 LINE",
"401 397 LINE",
"410 397 LINE",
"455 397 LINE",
"543 397 LINE",
"587 393 LINE",
"595 392 LINE",
"605 391 LINE",
"613 388 LINE",
"619 379 LINE",
"621 370 LINE",
"625 281 LINE",
"625 278 LINE",
"625 269 LINE",
"605 259 LINE",
"573 254 LINE",
"531 253 LINE",
"509 253 LINE",
"466 253 LINE",
"418 255 LINE",
"396 250 LINE",
"391 232 LINE",
"391 213 LINE",
"391 194 LINE",
"387 158 LINE",
"388 137 LINE",
"436 137 LINE",
"533 143 LINE",
"580 143 LINE",
"583 143 LINE",
"591 128 LINE",
"600 105 LINE",
"607 77 LINE",
"614 51 LINE",
"618 30 LINE",
"618 26 LINE",
"618 17 LINE",
"608 5 LINE",
"598 5 LINE",
"562 5 LINE",
"494 1 LINE",
"456 1 LINE",
"377 1 LINE",
"219 0 LINE",
"140 0 LINE",
"136 0 LINE",
"113 2 LINE",
"89 6 LINE",
"70 11 LINE",
"71 14 LINE",
"71 25 LINE",
"69 62 LINE",
"67 105 LINE",
"64 152 LINE",
"62 197 LINE",
"60 234 LINE",
"60 246 LINE",
"60 262 LINE",
"59 289 LINE",
"58 321 LINE",
"57 362 LINE"
);
}
);
width = 693;
}
);
unicode = 0045;
},
{
glyphname = F;
lastChange = "2016-07-07 08:26:21 +0000";
layers = (
{
anchors = (
{
name = bottom;
position = "{331, 0}";
},
{
name = top;
position = "{331, 676}";
}
);
layerId = UUID0;
paths = (
{
closed = 1;
nodes = (
"57 655 LINE",
"57 660 LINE",
"62 665 LINE",
"68 666 LINE",
"73 665 LINE",
"74 665 LINE",
"109 665 LINE",
"223 670 LINE",
"292 670 LINE",
"293 670 LINE",
"312 669 LINE",
"332 669 LINE",
"350 669 LINE",
"351 669 LINE",
"374 669 LINE",
"421 668 LINE",
"472 667 LINE",
"529 666 LINE",
"562 666 LINE",
"569 666 LINE",
"580 663 LINE",
"588 662 LINE",
"597 662 LINE",
"601 666 LINE",
"614 666 LINE",
"625 643 LINE",
"627 604 LINE",
"625 554 LINE",
"625 528 LINE",
"625 521 LINE",
"614 516 LINE",
"598 514 LINE",
"581 514 LINE",
"575 514 LINE",
"530 514 LINE",
"519 514 LINE",
"506 513 LINE",
"495 511 LINE",
"481 510 LINE",
"469 510 LINE",
"461 510 LINE",
"447 510 LINE",
"445 511 LINE",
"442 510 LINE",
"438 508 LINE",
"437 507 LINE",
"437 504 LINE",
"434 490 LINE",
"432 465 LINE",
"430 427 LINE",
"430 400 LINE",
"430 400 LINE",
"428 394 LINE",
"433 389 LINE",
"453 389 LINE",
"553 389 LINE",
"563 389 LINE",
"576 383 LINE",
"582 366 LINE",
"583 335 LINE",
"583 312 LINE",
"583 283 LINE",
"583 248 LINE",
"581 228 LINE",
"574 222 LINE",
"568 222 LINE",
"563 222 LINE",
"542 220 LINE",
"519 219 LINE",
"495 218 LINE",
"487 218 LINE",
"479 218 LINE",
"472 217 LINE",
"465 215 LINE",
"457 214 LINE",
"449 213 LINE",
"441 212 LINE",
"428 213 LINE",
"417 211 LINE",
"408 206 LINE",
"403 199 LINE",
"403 163 LINE",
"402 100 LINE",
"400 50 LINE",
"395 14 LINE",
"391 5 LINE",
"380 5 LINE",
"352 3 LINE",
"326 2 LINE",
"308 1 LINE",
"303 0 LINE",
"298 2 LINE",
"294 3 LINE",
"291 5 LINE",
"289 5 LINE",
"288 5 LINE",
"282 2 LINE",
"281 1 LINE",
"198 1 LINE",
"197 0 LINE",
"170 -4 LINE",
"138 -8 LINE",
"108 -11 LINE",
"103 -11 LINE",
"90 -11 LINE",
"78 13 LINE",
"73 44 LINE",
"73 74 LINE",
"73 81 LINE",
"71 112 LINE",
"68 177 LINE",
"65 243 LINE",
"61 308 LINE",
"57 339 LINE"
);
}
);
width = 662;
}
);
unicode = 0046;
},
{
glyphname = G;
lastChange = "2016-07-07 08:26:24 +0000";
layers = (
{
anchors = (
{
name = bottom;
position = "{414, 0}";
},
{
name = top;
position = "{414, 676}";
}
);
layerId = UUID0;
paths = (
{
closed = 1;
nodes = (
"777 142 LINE",
"777 119 LINE",
"777 74 LINE",
"775 37 LINE",
"772 9 LINE",
"769 3 LINE",
"760 3 LINE",
"740 2 LINE",
"730 1 LINE",
"719 0 LINE",
"708 0 LINE",
"705 0 LINE",
"697 0 LINE",
"695 1 LINE",
"693 2 LINE",
"693 3 LINE",
"690 2 LINE",
"688 1 LINE",
"688 0 LINE",
"588 0 LINE",
"587 0 LINE",
"578 0 LINE",
"566 0 LINE",
"555 -1 LINE",
"553 -1 LINE",
"549 -1 LINE",
"543 11 LINE",
"539 33 LINE",
"536 63 LINE",
"534 82 LINE",
"529 56 LINE",
"496 17 LINE",
"446 -9 LINE",
"382 -23 LINE",
"347 -23 LINE",
"313 -23 LINE",
"242 -6 LINE",
"174 29 LINE",
"114 85 LINE",
"69 164 LINE",
"42 268 LINE",
"42 333 LINE",
"42 420 LINE",
"104 555 LINE",
"214 647 LINE",
"363 695 LINE",
"449 695 LINE",
"512 695 LINE",
"646 662 LINE",
"712 630 LINE",
"674 460 LINE",
"656 465 LINE",
"616 476 LINE",
"575 486 LINE",
"535 492 LINE",
"516 492 LINE",
"487 492 LINE",
"438 478 LINE",
"402 441 LINE",
"381 377 LINE",
"381 327 LINE",
"381 284 LINE",
"394 225 LINE",
"417 189 LINE",
"449 174 LINE",
"467 174 LINE",
"481 174 LINE",
"512 181 LINE",
"527 188 LINE",
"526 224 LINE",
"524 292 LINE",
"524 326 LINE",
"524 344 LINE",
"524 362 LINE",
"530 369 LINE",
"543 368 LINE",
"555 368 LINE",
"661 368 LINE",
"699 368 LINE",
"745 369 LINE",
"771 365 LINE",
"780 352 LINE",
"780 337 LINE",
"780 333 LINE",
"781 326 LINE",
"781 314 LINE",
"781 293 LINE",
"781 274 LINE",
"781 172 LINE",
"781 171 LINE",
"780 162 LINE",
"778 151 LINE",
"777 143 LINE"
);
}
);
width = 827;
}
);
unicode = 0047;
},
{
glyphname = H;
lastChange = "2016-07-07 08:26:34 +0000";
layers = (
{
anchors = (
{
name = bottom;
position = "{465, 0}";
},
{
name = center;
position = "{465, 338}";
},
{
name = top;
position = "{465, 676}";
},
{
name = topleft;
position = "{20, 676}";
}
);
layerId = UUID0;
paths = (
{
closed = 1;
nodes = (
"518 466 LINE",
"518 504 LINE",
"519 534 LINE",
"520 547 LINE",
"520 573 LINE",
"521 594 LINE",
"521 608 LINE",
"521 609 LINE",
"521 627 LINE",
"522 649 LINE",
"530 661 LINE",
"549 665 LINE",
"568 665 LINE",
"574 665 LINE",
"615 666 LINE",
"669 667 LINE",
"731 668 LINE",
"786 669 LINE",
"826 670 LINE",
"832 670 LINE",
"843 670 LINE",
"860 668 LINE",
"871 660 LINE",
"875 645 LINE",
"875 631 LINE",
"875 601 LINE",
"874 550 LINE",
"871 502 LINE",
"869 452 LINE",
"869 422 LINE",
"869 417 LINE",
"872 407 LINE",
"872 402 LINE",
"848 23 LINE",
"848 20 LINE",
"844 12 LINE",
"837 5 LINE",
"829 0 LINE",
"825 0 LINE",
"550 0 LINE",
"546 0 LINE",
"541 9 LINE",
"537 24 LINE",
"535 43 LINE",
"534 53 LINE",
"523 237 LINE",
"508 237 LINE",
"485 238 LINE",
"458 240 LINE",
"435 241 LINE",
"417 241 LINE",
"411 241 LINE",
"409 229 LINE",
"409 224 LINE",
"409 168 LINE",
"409 91 LINE",
"407 41 LINE",
"402 14 LINE",
"394 1 LINE",
"382 -1 LINE",
"373 -1 LINE",
"317 -5 LINE",
"264 -6 LINE",
"242 -6 LINE",
"193 -6 LINE",
"147 -3 LINE",
"104 2 LINE",
"86 7 LINE",
"84 7 LINE",
"80 15 LINE",
"77 24 LINE",
"75 33 LINE",
"75 34 LINE",
"56 398 LINE",
"56 407 LINE",
"56 417 LINE",
"56 425 LINE",
"57 465 LINE",
"59 516 LINE",
"60 571 LINE",
"62 616 LINE",
"63 646 LINE",
"64 647 LINE",
"66 649 LINE",
"75 657 LINE",
"87 665 LINE",
"102 670 LINE",
"110 670 LINE",
"167 670 LINE",
"168 670 LINE",
"199 669 LINE",
"242 669 LINE",
"292 668 LINE",
"336 667 LINE",
"365 667 LINE",
"366 667 LINE",
"378 667 LINE",
"396 664 LINE",
"407 655 LINE",
"413 639 LINE",
"413 625 LINE",
"413 622 LINE",
"411 607 LINE",
"410 590 LINE",
"408 575 LINE",
"408 571 LINE",
"408 567 LINE",
"411 557 LINE",
"411 552 LINE",
"411 532 LINE",
"409 495 LINE",
"409 473 LINE",
"420 473 LINE",
"448 471 LINE",
"477 468 LINE",
"505 466 LINE"
);
}
);
width = 930;
}
);
unicode = 0048;
},
{
glyphname = Hbar;
lastChange = "2016-07-06 09:52:17 +0000";
layers = (
{
layerId = UUID0;
paths = (
{
closed = 1;
nodes = (
"17 519 LINE",
"2 522 LINE",
"2 528 LINE",
"2 538 LINE",
"1 554 LINE",
"1 569 LINE",
"0 584 LINE",
"0 595 LINE",
"0 597 LINE",
"10 601 LINE",
"26 604 LINE",
"43 607 LINE",
"52 607 LINE",
"61 607 LINE",
"62 621 LINE",
"63 631 LINE",
"63 646 LINE",
"64 647 LINE",
"66 649 LINE",
"75 657 LINE",
"87 665 LINE",
"102 670 LINE",
"110 670 LINE",
"167 670 LINE",
"168 670 LINE",
"199 669 LINE",
"242 669 LINE",
"292 668 LINE",
"336 667 LINE",
"365 667 LINE",
"366 667 LINE",
"378 667 LINE",
"396 664 LINE",
"407 655 LINE",
"413 639 LINE",
"413 625 LINE",
"413 622 LINE",
"412 615 LINE",
"411 611 LINE",
"411 606 LINE",
"442 606 LINE",
"480 606 LINE",
"521 606 LINE",
"521 608 LINE",
"521 609 LINE",
"521 627 LINE",
"522 649 LINE",
"530 661 LINE",
"549 665 LINE",
"568 665 LINE",
"574 665 LINE",
"615 666 LINE",
"669 667 LINE",
"731 668 LINE",
"786 669 LINE",
"826 670 LINE",
"832 670 LINE",
"843 670 LINE",
"860 668 LINE",
"871 660 LINE",
"875 645 LINE",
"875 631 LINE",
"875 617 LINE",
"875 604 LINE",
"883 603 LINE",
"890 603 LINE",
"908 601 LINE",
"932 596 LINE",
"932 592 LINE",
"932 584 LINE",
"934 575 LINE",
"934 569 LINE",
"936 564 LINE",
"936 557 LINE",
"938 548 LINE",
"938 541 LINE",
"938 536 LINE",
"936 526 LINE",
"925 518 LINE",
"903 513 LINE",
"884 513 LINE",
"871 513 LINE",
"871 495 LINE",
"870 477 LINE",
"869 452 LINE",
"869 422 LINE",
"869 417 LINE",
"872 407 LINE",
"872 402 LINE",
"848 23 LINE",
"848 20 LINE",
"844 12 LINE",
"837 5 LINE",
"829 0 LINE",
"825 0 LINE",
"550 0 LINE",
"546 0 LINE",
"541 9 LINE",
"537 24 LINE",
"535 43 LINE",
"534 53 LINE",
"523 237 LINE",
"523 237 LINE",
"508 237 LINE",
"485 238 LINE",
"458 240 LINE",
"435 241 LINE",
"417 241 LINE",
"417 241 LINE",
"411 241 LINE",
"409 229 LINE",
"409 224 LINE",
"409 168 LINE",
"409 91 LINE",
"407 41 LINE",
"402 14 LINE",
"394 1 LINE",
"382 -1 LINE",
"373 -1 LINE",
"317 -5 LINE",
"264 -6 LINE",
"242 -6 LINE",
"193 -6 LINE",
"147 -3 LINE",
"104 2 LINE",
"86 7 LINE",
"84 7 LINE",
"80 15 LINE",
"77 24 LINE",
"75 33 LINE",
"75 34 LINE",
"56 398 LINE",
"56 417 LINE",
"56 425 LINE",
"57 465 LINE",
"58 491 LINE",
"58 503 LINE",
"59 515 LINE",
"57 515 LINE",
"33 516 LINE"
);
},
{
closed = 1;
nodes = (
"518 466 LINE",
"518 492 LINE",
"518 514 LINE",
"489 515 LINE",
"464 515 LINE",
"438 515 LINE",
"419 515 LINE",
"410 515 LINE",
"410 514 LINE",
"409 495 LINE",
"409 473 LINE",
"420 473 LINE",
"448 471 LINE",
"477 468 LINE",
"505 466 LINE"
);
}
);
width = 930;
}
);
unicode = 0126;
},
{
glyphname = I;
lastChange = "2016-07-07 10:16:35 +0000";
layers = (
{
anchors = (
{
name = bottom;
position = "{240, 0}";
},
{
name = ogonek;
position = "{352, 10}";
},
{
name = top;
position = "{240, 676}";
},
{
name = topleft;
position = "{20, 676}";
}
);
layerId = UUID0;
paths = (
{
closed = 1;
nodes = (
"418 199 LINE",
"417 166 LINE",
"417 104 LINE",
"415 52 LINE",
"411 14 LINE",
"406 5 LINE",
"395 5 LINE",
"367 3 LINE",
"341 2 LINE",
"324 1 LINE",
"323 1 LINE",
"320 1 LINE",
"314 1 LINE",
"308 5 LINE",
"304 5 LINE",
"302 4 LINE",
"300 3 LINE",
"296 1 LINE",
"204 1 LINE",
"202 0 LINE",
"170 0 LINE",
"130 0 LINE",
"94 -1 LINE",
"88 -1 LINE",
"80 -1 LINE",
"69 10 LINE",
"63 28 LINE",
"60 49 LINE",
"59 69 LINE",
"59 86 LINE",
"59 91 LINE",
"60 151 LINE",
"60 278 LINE",
"63 339 LINE",
"63 655 LINE",
"63 663 LINE",
"73 665 LINE",
"80 665 LINE",
"130 665 LINE",
"229 666 LINE",
"279 666 LINE",
"284 666 LINE",
"293 668 LINE",
"311 670 LINE",
"339 669 LINE",
"361 666 LINE",
"366 662 LINE",
"373 665 LINE",
"377 666 LINE",
"391 666 LINE",
"409 663 LINE",
"420 647 LINE",
"424 618 LINE",
"424 591 LINE",
"424 396 LINE",
"423 367 LINE",
"422 323 LINE",
"420 273 LINE",
"419 230 LINE",
"418 200 LINE"
);
}
);
width = 480;
}
);
unicode = 0049;
},
{
glyphname = J;
lastChange = "2016-07-07 08:31:42 +0000";
layers = (
{
anchors = (
{
name = bottom;
position = "{328, 0}";
},
{
name = top;
position = "{320, 676}";
}
);
layerId = UUID0;
paths = (
{
closed = 1;
nodes = (
"538 65 LINE",
"507 37 LINE",
"438 2 LINE",
"408 -7 LINE",
"373 -19 LINE",
"338 -24 LINE",
"270 -33 LINE",
"131 -20 LINE",
"67 7 LINE",
"23 27 LINE",
"22 30 LINE",
"23 45 LINE",
"25 64 LINE",
"28 85 LINE",
"29 96 LINE",
"29 102 LINE",
"31 122 LINE",
"33 140 LINE",
"35 153 LINE",
"36 151 LINE",
"61 142 LINE",
"100 130 LINE",
"136 124 LINE",
"173 121 LINE",
"197 121 LINE",
"208 121 LINE",
"224 138 LINE",
"233 161 LINE",
"239 185 LINE",
"241 192 LINE",
"242 209 LINE",
"244 262 LINE",
"244 303 LINE",
"245 333 LINE",
"245 386 LINE",
"246 406 LINE",
"246 430 LINE",
"246 449 LINE",
"245 655 LINE",
"245 663 LINE",
"256 665 LINE",
"262 665 LINE",
"312 665 LINE",
"411 666 LINE",
"462 666 LINE",
"560 666 LINE",
"574 666 LINE",
"592 663 LINE",
"603 647 LINE",
"607 618 LINE",
"607 591 LINE",
"607 396 LINE",
"606 380 LINE",
"605 358 LINE",
"604 333 LINE",
"604 311 LINE",
"603 295 LINE",
"603 294 LINE",
"603 265 LINE",
"600 202 LINE",
"587 142 LINE",
"562 86 LINE"
);
}
);
width = 656;
}
);
unicode = 004A;
},
{
glyphname = K;
lastChange = "2016-07-07 08:31:54 +0000";
layers = (
{
anchors = (
{
name = bottom;
position = "{427, 0}";
},
{
name = top;
position = "{427, 676}";
}
);
layerId = UUID0;
paths = (
{
closed = 1;
nodes = (
"402 672 LINE",
"411 672 LINE",
"419 663 LINE",
"421 649 LINE",
"421 634 LINE",
"421 627 LINE",
"421 589 LINE",
"416 517 LINE",
"416 490 LINE",
"425 490 LINE",
"434 493 LINE",
"441 498 LINE",
"448 506 LINE",
"454 511 LINE",
"458 513 LINE",
"487 542 LINE",
"530 582 LINE",
"579 628 LINE",
"624 667 LINE",
"658 694 LINE",
"665 695 LINE",
"667 695 LINE",
"675 688 LINE",
"683 678 LINE",
"690 669 LINE",
"692 668 LINE",
"693 666 LINE",
"704 656 LINE",
"717 643 LINE",
"729 632 LINE",
"731 629 LINE",
"737 619 LINE",
"754 597 LINE",
"771 575 LINE",
"787 553 LINE",
"792 541 LINE",
"792 539 LINE",
"792 529 LINE",
"775 506 LINE",
"753 483 LINE",
"731 463 LINE",
"726 456 LINE",
"724 455 LINE",
"709 443 LINE",
"689 426 LINE",
"667 407 LINE",
"647 390 LINE",
"633 378 LINE",
"631 377 LINE",
"626 373 LINE",
"618 370 LINE",
"612 366 LINE",
"609 361 LINE",
"609 355 LINE",
"609 346 LINE",
"618 331 LINE",
"631 318 LINE",
"646 307 LINE",
"652 301 LINE",
"659 293 LINE",
"689 267 LINE",
"727 233 LINE",
"766 197 LINE",
"798 164 LINE",
"819 136 LINE",
"819 128 LINE",
"819 123 LINE",
"817 114 LINE",
"811 109 LINE",
"794 95 LINE",
"754 73 LINE",
"738 59 LINE",
"725 48 LINE",
"695 21 LINE",
"680 13 LINE",
"672 9 LINE",
"663 4 LINE",
"656 0 LINE",
"646 -6 LINE",
"637 -12 LINE",
"621 -21 LINE",
"596 -21 LINE",
"579 -13 LINE",
"568 -1 LINE",
"567 0 LINE",
"462 121 LINE",
"460 125 LINE",
"447 140 LINE",
"432 156 LINE",
"418 168 LINE",
"416 168 LINE",
"412 168 LINE",
"408 163 LINE",
"408 160 LINE",
"408 155 LINE",
"407 136 LINE",
"407 112 LINE",
"406 85 LINE",
"405 61 LINE",
"405 42 LINE",
"405 37 LINE",
"405 29 LINE",
"406 17 LINE",
"402 8 LINE",
"393 5 LINE",
"382 6 LINE",
"330 3 LINE",
"232 5 LINE",
"180 5 LINE",
"173 5 LINE",
"153 5 LINE",
"133 5 LINE",
"118 6 LINE",
"73 10 LINE",
"70 18 LINE",
"69 18 LINE",
"69 40 LINE",
"67 75 LINE",
"66 119 LINE",
"65 164 LINE",
"64 206 LINE",
"64 220 LINE",
"62 257 LINE",
"56 333 LINE",
"56 370 LINE",
"56 372 LINE",
"57 389 LINE",
"58 408 LINE",
"59 424 LINE",
"59 427 LINE",
"59 429 LINE",
"58 440 LINE",
"57 453 LINE",
"56 464 LINE",
"56 466 LINE",
"56 468 LINE",
"57 486 LINE",
"58 507 LINE",
"59 524 LINE",
"59 527 LINE",
"59 532 LINE",
"59 551 LINE",
"58 576 LINE",
"57 602 LINE",
"56 624 LINE",
"56 640 LINE",
"56 642 LINE",
"54 655 LINE",
"68 668 LINE",
"90 673 LINE",
"116 673 LINE",
"125 673 LINE",
"188 673 LINE",
"283 672 LINE",
"350 672 LINE",
"392 672 LINE"
);
}
);
width = 854;
}
);
unicode = 004B;
},
{
glyphname = L;
lastChange = "2016-07-07 10:17:22 +0000";
layers = (
{
anchors = (
{
name = bottom;
position = "{313, 0}";
},
{
name = center;
position = "{313, 338}";
},
{
name = top;
position = "{228, 676}";
},
{
name = topright;
position = "{455, 676}";
}
);
layerId = UUID0;
paths = (
{
closed = 1;
nodes = (
"60 248 LINE",
"60 294 LINE",
"59 395 LINE",
"60 489 LINE",
"62 569 LINE",
"64 596 LINE",
"64 606 LINE",
"64 632 LINE",
"69 655 LINE",
"80 672 LINE",
"91 672 LINE",
"134 672 LINE",
"195 671 LINE",
"246 670 LINE",
"294 669 LINE",
"324 669 LINE",
"341 669 LINE",
"368 668 LINE",
"386 660 LINE",
"396 639 LINE",
"396 618 LINE",
"396 617 LINE",
"394 603 LINE",
"392 587 LINE",
"390 574 LINE",
"390 572 LINE",
"390 569 LINE",
"392 553 LINE",
"394 536 LINE",
"396 522 LINE",
"396 484 LINE",
"396 415 LINE",
"396 350 LINE",
"396 287 LINE",
"396 256 LINE",
"396 249 LINE",
"396 240 LINE",
"400 235 LINE",
"409 233 LINE",
"417 233 LINE",
"452 233 LINE",
"530 234 LINE",
"573 234 LINE",
"584 234 LINE",
"598 221 LINE",
"598 214 LINE",
"598 22 LINE",
"598 20 LINE",
"596 12 LINE",
"583 5 LINE",
"555 0 LINE",
"528 0 LINE",
"382 0 LINE",
"340 0 LINE",
"268 0 LINE",
"199 1 LINE",
"127 2 LINE",
"85 2 LINE",
"81 2 LINE",
"72 7 LINE",
"64 14 LINE",
"60 23 LINE",
"60 28 LINE"
);
}
);
width = 625;
}
);
unicode = 004C;
},
{
glyphname = Lslash;
lastChange = "2016-07-06 09:52:17 +0000";
layers = (
{
layerId = UUID0;
paths = (
{
closed = 1;
nodes = (
"101 248 LINE",
"101 265 LINE",
"89 262 LINE",
"70 259 LINE",
"55 262 LINE",
"46 271 LINE",
"46 281 LINE",
"46 303 LINE",
"46 338 LINE",
"45 371 LINE",
"45 405 LINE",
"45 427 LINE",
"45 432 LINE",
"50 442 LINE",
"58 452 LINE",
"67 459 LINE",
"71 460 LINE",
"79 462 LINE",
"93 466 LINE",
"100 468 LINE",
"101 507 LINE",
"103 573 LINE",
"105 596 LINE",
"105 606 LINE",
"105 632 LINE",
"110 655 LINE",
"121 672 LINE",
"132 672 LINE",
"175 672 LINE",
"236 671 LINE",
"287 670 LINE",
"335 669 LINE",
"365 669 LINE",
"382 669 LINE",
"409 668 LINE",
"427 660 LINE",
"437 639 LINE",
"437 618 LINE",
"437 617 LINE",
"435 603 LINE",
"433 587 LINE",
"431 574 LINE",
"431 572 LINE",
"431 570 LINE",
"431 564 LINE",
"432 561 LINE",
"451 564 LINE",
"484 570 LINE",
"504 575 LINE",
"514 578 LINE",
"535 582 LINE",
"553 581 LINE",
"565 573 LINE",
"565 564 LINE",
"565 542 LINE",
"564 512 LINE",
"563 486 LINE",
"562 461 LINE",
"562 446 LINE",
"562 433 LINE",
"560 412 LINE",
"550 396 LINE",
"529 383 LINE",
"511 378 LINE",
"507 377 LINE",
"504 375 LINE",
"501 374 LINE",
"496 371 LINE",
"495 371 LINE",
"445 358 LINE",
"438 356 LINE",
"438 256 LINE",
"438 249 LINE",
"438 240 LINE",
"441 235 LINE",
"450 233 LINE",
"458 233 LINE",
"493 233 LINE",
"571 234 LINE",
"614 234 LINE",
"625 234 LINE",
"639 221 LINE",
"639 214 LINE",
"639 22 LINE",
"639 20 LINE",
"637 12 LINE",
"624 5 LINE",
"596 0 LINE",
"569 0 LINE",
"423 0 LINE",
"381 0 LINE",
"309 0 LINE",
"240 1 LINE",
"168 2 LINE",
"126 2 LINE",
"122 2 LINE",
"113 7 LINE",
"105 14 LINE",
"101 23 LINE",
"101 28 LINE"
);
}
);
width = 676;
}
);
unicode = 0141;
},
{
glyphname = M;
lastChange = "2016-07-07 08:32:26 +0000";
layers = (
{
anchors = (
{
name = bottom;
position = "{508, 0}";
},
{
name = top;
position = "{508, 676}";
}
);
layerId = UUID0;
paths = (
{
closed = 1;
nodes = (
"519 434 LINE",
"520 436 LINE",
"532 463 LINE",
"550 502 LINE",
"571 548 LINE",
"590 589 LINE",
"604 620 LINE",
"606 625 LINE",
"609 632 LINE",
"620 649 LINE",
"629 663 LINE",
"638 672 LINE",
"641 672 LINE",
"658 672 LINE",
"779 673 LINE",
"888 673 LINE",
"897 673 LINE",
"908 672 LINE",
"918 672 LINE",
"934 672 LINE",
"948 672 LINE",
"950 672 LINE",
"953 642 LINE",
"955 592 LINE",
"957 528 LINE",
"957 460 LINE",
"957 396 LINE",
"957 370 LINE",
"957 333 LINE",
"952 257 LINE",
"949 220 LINE",
"949 206 LINE",
"950 164 LINE",
"950 119 LINE",
"951 75 LINE",
"952 40 LINE",
"952 18 LINE",
"953 18 LINE",
"950 10 LINE",
"905 -1 LINE",
"904 -1 LINE",
"890 -1 LINE",
"870 -1 LINE",
"849 -2 LINE",
"843 -2 LINE",
"823 -2 LINE",
"785 0 LINE",
"749 1 LINE",
"711 4 LINE",
"691 6 LINE",
"690 6 LINE",
"683 5 LINE",
"680 5 LINE",
"676 5 LINE",
"671 26 LINE",
"668 61 LINE",
"667 108 LINE",
"666 161 LINE",
"665 215 LINE",
"665 240 LINE",
"665 243 LINE",
"661 248 LINE",
"657 248 LINE",
"654 248 LINE",
"646 228 LINE",
"635 201 LINE",
"625 171 LINE",
"621 162 LINE",
"620 160 LINE",
"612 143 LINE",
"600 119 LINE",
"585 93 LINE",
"566 71 LINE",
"546 56 LINE",
"535 56 LINE",
"529 56 LINE",
"510 56 LINE",
"489 57 LINE",
"467 57 LINE",
"458 58 LINE",
"430 103 LINE",
"394 173 LINE",
"373 222 LINE",
"362 248 LINE",
"360 248 LINE",
"356 248 LINE",
"352 243 LINE",
"352 240 LINE",
"352 219 LINE",
"352 167 LINE",
"352 115 LINE",
"350 65 LINE",
"347 28 LINE",
"341 5 LINE",
"337 5 LINE",
"334 5 LINE",
"327 6 LINE",
"326 6 LINE",
"286 3 LINE",
"214 -2 LINE",
"174 -2 LINE",
"167 -2 LINE",
"146 -1 LINE",
"127 -1 LINE",
"112 -1 LINE",
"67 10 LINE",
"64 18 LINE",
"63 18 LINE",
"63 40 LINE",
"61 75 LINE",
"60 119 LINE",
"59 164 LINE",
"58 206 LINE",
"58 220 LINE",
"59 272 LINE",
"63 372 LINE",
"63 427 LINE",
"63 429 LINE",
"62 440 LINE",
"61 453 LINE",
"60 464 LINE",
"60 466 LINE",
"60 481 LINE",
"62 505 LINE",
"63 530 LINE",
"65 560 LINE",
"65 580 LINE",
"65 583 LINE",
"64 598 LINE",
"63 616 LINE",
"63 631 LINE",
"63 634 LINE",
"62 635 LINE",
"60 640 LINE",
"60 641 LINE",
"60 652 LINE",
"77 665 LINE",
"100 671 LINE",
"123 673 LINE",
"129 673 LINE",
"238 673 LINE",
"359 672 LINE",
"376 672 LINE",
"378 672 LINE",
"387 663 LINE",
"397 649 LINE",
"407 632 LINE",
"411 625 LINE",
"413 620 LINE",
"425 588 LINE",
"441 547 LINE",
"459 501 LINE",
"475 462 LINE",
"486 435 LINE",
"488 434 LINE",
"495 418 LINE",
"503 418 LINE",
"508 418 LINE",
"517 428 LINE"
);
}
);
width = 1015;
}
);
unicode = 004D;
},
{
glyphname = N;
lastChange = "2016-07-07 08:32:35 +0000";
layers = (
{
anchors = (
{
name = bottom;
position = "{437, 0}";
},
{
name = top;
position = "{437, 676}";
}
);
layerId = UUID0;
paths = (
{
closed = 1;
nodes = (
"813 224 LINE",
"813 168 LINE",
"813 91 LINE",
"811 41 LINE",
"806 14 LINE",
"798 1 LINE",
"785 -1 LINE",
"776 -1 LINE",
"741 0 LINE",
"687 0 LINE",
"623 0 LINE",
"594 0 LINE",
"588 0 LINE",
"570 -1 LINE",
"550 1 LINE",
"529 9 LINE",
"520 18 LINE",
"418 161 LINE",
"416 165 LINE",
"403 186 LINE",
"388 209 LINE",
"375 228 LINE",
"372 228 LINE",
"368 228 LINE",
"364 223 LINE",
"364 220 LINE",
"364 213 LINE",
"363 184 LINE",
"363 146 LINE",
"362 106 LINE",
"361 70 LINE",
"361 42 LINE",
"361 37 LINE",
"361 29 LINE",
"362 17 LINE",
"358 8 LINE",
"349 5 LINE",
"338 6 LINE",
"298 3 LINE",
"226 -2 LINE",
"186 -2 LINE",
"179 -2 LINE",
"159 -1 LINE",
"139 -1 LINE",
"124 -1 LINE",
"79 10 LINE",
"76 18 LINE",
"75 18 LINE",
"74 40 LINE",
"73 75 LINE",
"72 119 LINE",
"71 164 LINE",
"70 206 LINE",
"70 220 LINE",
"64 271 LINE",
"63 375 LINE",
"64 478 LINE",
"66 582 LINE",
"65 634 LINE",
"63 646 LINE",
"70 662 LINE",
"85 670 LINE",
"104 673 LINE",
"113 673 LINE",
"165 673 LINE",
"248 678 LINE",
"307 681 LINE",
"342 679 LINE",
"348 672 LINE",
"351 668 LINE",
"369 642 LINE",
"396 603 LINE",
"428 555 LINE",
"462 503 LINE",
"496 452 LINE",
"511 430 LINE",
"511 448 LINE",
"512 493 LINE",
"513 541 LINE",
"514 587 LINE",
"515 624 LINE",
"517 646 LINE",
"518 647 LINE",
"520 649 LINE",
"528 657 LINE",
"541 665 LINE",
"556 670 LINE",
"564 670 LINE",
"621 670 LINE",
"622 670 LINE",
"645 669 LINE",
"677 669 LINE",
"714 668 LINE",
"747 667 LINE",
"769 667 LINE",
"770 667 LINE",
"781 667 LINE",
"799 664 LINE",
"810 655 LINE",
"816 639 LINE",
"816 625 LINE",
"816 622 LINE",
"814 607 LINE",
"813 590 LINE",
"812 575 LINE",
"812 571 LINE",
"812 567 LINE",
"815 557 LINE",
"815 552 LINE",
"815 545 LINE",
"814 496 LINE",
"814 428 LINE",
"813 351 LINE",
"813 282 LINE",
"813 231 LINE"
);
}
);
width = 873;
}
);
unicode = 004E;
},
{
glyphname = Eng;
lastChange = "2016-07-07 08:32:51 +0000";
layers = (
{
layerId = UUID0;
paths = (
{
closed = 1;
nodes = (
"418 161 LINE",
"416 165 LINE",
"403 186 LINE",
"388 209 LINE",
"375 228 LINE",
"372 228 LINE",
"368 228 LINE",
"364 223 LINE",
"364 220 LINE",
"364 213 LINE",
"363 184 LINE",
"363 146 LINE",
"362 106 LINE",
"361 70 LINE",
"361 42 LINE",
"361 37 LINE",
"361 29 LINE",
"362 17 LINE",
"358 8 LINE",
"349 5 LINE",
"338 6 LINE",
"298 3 LINE",
"226 -2 LINE",
"186 -2 LINE",
"179 -2 LINE",
"159 -1 LINE",
"139 -1 LINE",
"124 -1 LINE",
"79 10 LINE",
"76 18 LINE",
"75 18 LINE",
"74 40 LINE",
"73 75 LINE",
"72 119 LINE",
"71 164 LINE",
"70 206 LINE",
"70 220 LINE",
"64 271 LINE",
"63 375 LINE",
"64 478 LINE",
"66 582 LINE",
"65 634 LINE",
"63 646 LINE",
"70 662 LINE",
"85 670 LINE",
"104 673 LINE",
"113 673 LINE",
"165 673 LINE",
"248 678 LINE",
"307 681 LINE",
"342 679 LINE",
"348 672 LINE",
"351 668 LINE",
"369 642 LINE",
"396 603 LINE",
"428 555 LINE",
"462 503 LINE",
"496 452 LINE",
"511 430 LINE",
"511 448 LINE",
"512 493 LINE",
"513 541 LINE",
"514 587 LINE",
"515 624 LINE",
"517 646 LINE",
"518 647 LINE",
"520 649 LINE",
"528 657 LINE",
"541 665 LINE",
"556 670 LINE",
"564 670 LINE",
"621 670 LINE",
"622 670 LINE",
"645 669 LINE",
"677 669 LINE",
"714 668 LINE",
"747 667 LINE",
"769 667 LINE",
"770 667 LINE",
"781 667 LINE",
"799 664 LINE",
"810 655 LINE",
"816 639 LINE",
"816 625 LINE",
"816 622 LINE",
"814 607 LINE",
"813 590 LINE",
"812 575 LINE",
"812 571 LINE",
"812 567 LINE",
"815 557 LINE",
"815 552 LINE",
"815 545 LINE",
"814 496 LINE",
"814 428 LINE",
"813 351 LINE",
"813 282 LINE",
"813 231 LINE",
"813 224 LINE",
"813 57 LINE",
"813 27 LINE",
"812 -42 LINE",
"804 -108 LINE",
"786 -168 LINE",
"769 -191 LINE",
"746 -227 LINE",
"689 -267 LINE",
"663 -278 LINE",
"633 -291 LINE",
"603 -294 LINE",
"534 -304 LINE",
"396 -290 LINE",
"332 -264 LINE",
"288 -244 LINE",
"287 -240 LINE",
"288 -226 LINE",
"290 -207 LINE",
"292 -185 LINE",
"293 -174 LINE",
"293 -169 LINE",
"295 -149 LINE",
"297 -130 LINE",
"300 -118 LINE",
"301 -120 LINE",
"326 -128 LINE",
"364 -140 LINE",
"400 -147 LINE",
"438 -150 LINE",
"461 -149 LINE",
"473 -149 LINE",
"488 -132 LINE",
"498 -109 LINE",
"503 -85 LINE",
"505 -79 LINE",
"506 -62 LINE",
"509 -8 LINE",
"509 33 LINE"
);
}
);
width = 873;
}
);
unicode = 014A;
},
{
glyphname = O;
lastChange = "2016-07-07 13:40:21 +0000";
layers = (
{
anchors = (
{
name = bottom;
position = "{430, 0}";
},
{
name = center;
position = "{430, 338}";
},
{
name = ogonek;
position = "{648, 10}";
},
{
name = top;
position = "{430, 676}";
},
{
name = topleft;
position = "{20, 676}";
},
{
name = topright;
position = "{624, 661}";
}
);
layerId = UUID0;
paths = (
{
closed = 1;
nodes = (
"438 -24 LINE",
"389 -24 LINE",
"293 -17 LINE",
"207 6 LINE",
"132 50 LINE",
"77 125 LINE",
"46 235 LINE",
"46 313 LINE",
"46 415 LINE",
"91 560 LINE",
"188 652 LINE",
"341 695 LINE",
"448 695 LINE",
"484 695 LINE",
"566 683 LINE",
"648 654 LINE",
"723 605 LINE",
"780 529 LINE",
"814 425 LINE",
"814 355 LINE",
"814 275 LINE",
"790 157 LINE",
"743 72 LINE",
"677 19 LINE",
"593 -12 LINE",
"494 -24 LINE"
);
},
{
closed = 1;
nodes = (
"385 327 LINE",
"385 312 LINE",
"385 262 LINE",
"388 206 LINE",
"393 148 LINE",
"403 101 LINE",
"418 72 LINE",
"430 72 LINE",
"441 72 LINE",
"457 105 LINE",
"467 157 LINE",
"473 221 LINE",
"476 282 LINE",
"476 333 LINE",
"476 347 LINE",
"476 352 LINE",
"476 393 LINE",
"473 449 LINE",
"467 512 LINE",
"457 565 LINE",
"441 600 LINE",
"430 600 LINE",
"418 600 LINE",
"403 577 LINE",
"393 536 LINE",
"388 482 LINE",
"385 422 LINE",
"385 357 LINE"
);
}
);
width = 859;
}
);
unicode = 004F;
},
{
color = 9;
glyphname = Ohorn;
lastChange = "2016-07-07 13:40:05 +0000";
layers = (
{
anchors = (
{
name = bottom;
position = "{430, 0}";
},
{
name = top;
position = "{430, 676}";
}
);
background = {
paths = (
{
closed = 1;
nodes = (
"438 -24 LINE",
"389 -24 LINE",
"293 -17 LINE",
"207 6 LINE",
"132 50 LINE",
"77 125 LINE",
"46 235 LINE",
"46 313 LINE",
"46 415 LINE",
"91 560 LINE",
"188 652 LINE",
"341 695 LINE",
"448 695 LINE",
"484 695 LINE",
"566 683 LINE",
"648 654 LINE",
"723 605 LINE",
"780 529 LINE",
"814 425 LINE",
"814 355 LINE",
"814 275 LINE",
"790 157 LINE",
"743 72 LINE",
"677 19 LINE",
"593 -12 LINE",
"494 -24 LINE"
);
},
{
closed = 1;
nodes = (
"385 327 LINE",
"385 312 LINE",
"385 262 LINE",
"388 206 LINE",
"393 148 LINE",
"403 101 LINE",
"418 72 LINE",
"430 72 LINE",
"441 72 LINE",
"457 105 LINE",
"467 157 LINE",
"473 221 LINE",
"476 282 LINE",
"476 333 LINE",
"476 347 LINE",
"476 352 LINE",
"476 393 LINE",
"473 449 LINE",
"467 512 LINE",
"457 565 LINE",
"441 600 LINE",
"430 600 LINE",
"418 600 LINE",
"403 577 LINE",
"393 536 LINE",
"388 482 LINE",
"385 422 LINE",
"385 357 LINE"
);
},
{
closed = 1;
nodes = (
"852 795 LINE",
"857 777 LINE",
"861 737 LINE",
"861 715 LINE",
"854 669 LINE",
"834 609 LINE",
"801 561 LINE",
"777 537 LINE",
"730 507 LINE",
"680 493 LINE",
"624 488 LINE",
"566 683 LINE",
"631 668 LINE",
"666 673 LINE",
"687 694 LINE",
"698 722 LINE",
"698 739 LINE",
"698 747 LINE",
"695 781 LINE",
"690 799 LINE"
);
}
);
};
layerId = UUID0;
paths = (
{
closed = 1;
nodes = (
"852 795 LINE",
"690 799 LINE",
"695 781 LINE",
"698 747 LINE",
"698 722 LINE",
"687 694 LINE",
"666 673 LINE",
"631 668 LINE",
"566 683 LINE",
"484 695 LINE",
"341 695 LINE",
"188 652 LINE",
"91 560 LINE",
"46 415 LINE",
"46 235 LINE",
"77 125 LINE",
"132 50 LINE",
"207 6 LINE",
"293 -17 LINE",
"389 -24 LINE",
"494 -24 LINE",
"593 -12 LINE",
"677 19 LINE",
"743 72 LINE",
"790 157 LINE",
"814 275 LINE",
"814 425 LINE",
"780 529 LINE",
"775 536 LINE",
"777 537 LINE",
"801 561 LINE",
"834 609 LINE",
"854 669 LINE",
"861 715 LINE",
"861 737 LINE",
"857 777 LINE"
);
},
{
closed = 1;
nodes = (
"476 282 LINE",
"473 221 LINE",
"467 157 LINE",
"457 105 LINE",
"441 72 LINE",
"418 72 LINE",
"403 101 LINE",
"393 148 LINE",
"388 206 LINE",
"385 262 LINE",
"385 422 LINE",
"388 482 LINE",
"393 536 LINE",
"403 577 LINE",
"418 600 LINE",
"441 600 LINE",
"457 565 LINE",
"467 512 LINE",
"473 449 LINE",
"476 393 LINE"
);
}
);
width = 859;
}
);
unicode = 01A0;
},
{
glyphname = Oslash;
lastChange = "2016-07-07 08:33:09 +0000";
layers = (
{
anchors = (
{
name = bottom;
position = "{451, 0}";
},
{
name = top;
position = "{451, 676}";
}
);
layerId = UUID0;
paths = (
{
closed = 1;
nodes = (
"452 -24 LINE",
"419 -24 LINE",
"353 -21 LINE",
"290 -13 LINE",
"230 3 LINE",
"204 16 LINE",
"178 -10 LINE",
"136 -48 LINE",
"123 -53 LINE",
"113 -51 LINE",
"101 -46 LINE",
"96 -44 LINE",
"86 -35 LINE",
"77 -28 LINE",
"76 -27 LINE",
"64 -21 LINE",
"58 -10 LINE",
"61 1 LINE",
"69 12 LINE",
"74 17 LINE",
"83 27 LINE",
"111 57 LINE",
"128 74 LINE",
"97 112 LINE",
"60 228 LINE",
"60 313 LINE",
"60 415 LINE",
"105 560 LINE",
"203 652 LINE",
"355 695 LINE",
"462 695 LINE",
"490 695 LINE",
"552 688 LINE",
"615 672 LINE",
"677 646 LINE",
"705 625 LINE",
"771 686 LINE",
"778 689 LINE",
"788 688 LINE",
"792 685 LINE",
"798 683 LINE",
"815 671 LINE",
"823 670 LINE",
"834 663 LINE",
"848 654 LINE",
"848 641 LINE",
"832 619 LINE",
"813 599 LINE",
"808 594 LINE",
"802 588 LINE",
"796 583 LINE",
"780 569 LINE",
"771 560 LINE",
"797 522 LINE",
"828 422 LINE",
"828 355 LINE",
"828 275 LINE",
"804 157 LINE",
"757 72 LINE",
"691 19 LINE",
"607 -12 LINE",
"508 -24 LINE"
);
},
{
closed = 1;
nodes = (
"444 600 LINE",
"433 600 LINE",
"418 579 LINE",
"408 543 LINE",
"402 494 LINE",
"400 438 LINE",
"399 378 LINE",
"399 349 LINE",
"488 429 LINE",
"486 457 LINE",
"480 518 LINE",
"470 567 LINE",
"455 600 LINE"
);
},
{
closed = 1;
nodes = (
"401 214 LINE",
"403 188 LINE",
"409 137 LINE",
"419 96 LINE",
"434 72 LINE",
"444 72 LINE",
"453 72 LINE",
"467 94 LINE",
"477 130 LINE",
"483 178 LINE",
"487 229 LINE",
"489 279 LINE",
"490 300 LINE"
);
}
);
width = 901;
}
);
unicode = 00D8;
},
{
glyphname = OE;
lastChange = "2016-07-07 08:33:13 +0000";
layers = (
{
anchors = (
{
name = bottom;
position = "{605, 0}";
},
{
name = top;
position = "{605, 676}";
}
);
layerId = UUID0;
paths = (
{
closed = 1;
nodes = (
"442 -24 LINE",
"394 -24 LINE",
"298 -17 LINE",
"210 6 LINE",
"136 50 LINE",
"81 125 LINE",
"50 235 LINE",
"50 313 LINE",
"50 415 LINE",
"95 560 LINE",
"192 652 LINE",
"345 695 LINE",
"452 695 LINE",
"489 695 LINE",
"572 683 LINE",
"614 668 LINE",
"625 669 LINE",
"646 670 LINE",
"658 670 LINE",
"720 670 LINE",
"832 673 LINE",
"941 675 LINE",
"1058 674 LINE",
"1125 669 LINE",
"1134 669 LINE",
"1145 647 LINE",
"1152 615 LINE",
"1158 576 LINE",
"1163 558 LINE",
"1164 545 LINE",
"1161 534 LINE",
"1156 530 LINE",
"1146 531 LINE",
"1140 531 LINE",
"1115 531 LINE",
"1063 527 LINE",
"1011 522 LINE",
"958 517 LINE",
"932 515 LINE",
"928 515 LINE",
"920 491 LINE",
"916 458 LINE",
"913 426 LINE",
"913 418 LINE",
"913 404 LINE",
"920 397 LINE",
"929 397 LINE",
"974 397 LINE",
"1062 397 LINE",
"1106 393 LINE",
"1114 392 LINE",
"1125 391 LINE",
"1132 388 LINE",
"1138 379 LINE",
"1140 370 LINE",
"1144 281 LINE",
"1144 278 LINE",
"1144 269 LINE",
"1125 259 LINE",
"1092 254 LINE",
"1050 253 LINE",
"1028 253 LINE",
"985 253 LINE",
"937 255 LINE",
"915 250 LINE",
"910 232 LINE",
"910 213 LINE",
"910 194 LINE",
"906 158 LINE",
"907 137 LINE",
"955 137 LINE",
"1052 143 LINE",
"1099 143 LINE",
"1102 143 LINE",
"1110 128 LINE",
"1119 105 LINE",
"1126 77 LINE",
"1133 51 LINE",
"1137 30 LINE",
"1137 26 LINE",
"1137 17 LINE",
"1127 5 LINE",
"1117 5 LINE",
"1081 5 LINE",
"1013 1 LINE",
"975 1 LINE",
"896 1 LINE",
"738 0 LINE",
"659 0 LINE",
"656 0 LINE",
"644 0 LINE",
"636 2 LINE",
"594 -12 LINE",
"497 -24 LINE"
);
},
{
closed = 1;
nodes = (
"389 327 LINE",
"389 312 LINE",
"389 262 LINE",
"392 206 LINE",
"397 148 LINE",
"407 101 LINE",
"423 72 LINE",
"434 72 LINE",
"446 72 LINE",
"461 105 LINE",
"472 157 LINE",
"477 221 LINE",
"479 282 LINE",
"480 333 LINE",
"480 347 LINE",
"480 352 LINE",
"479 393 LINE",
"477 449 LINE",
"472 512 LINE",
"461 565 LINE",
"445 600 LINE",
"434 600 LINE",
"423 600 LINE",
"407 577 LINE",
"397 536 LINE",
"392 482 LINE",
"389 422 LINE",
"389 357 LINE"
);
}
);
width = 1210;
}
);
unicode = 0152;
},
{
glyphname = P;
lastChange = "2016-07-07 08:33:16 +0000";
layers = (
{
anchors = (
{
name = bottom;
position = "{420, 0}";
},
{
name = top;
position = "{420, 676}";
}
);
layerId = UUID0;
paths = (
{
closed = 1;
nodes = (
"58 645 LINE",
"58 654 LINE",
"75 671 LINE",
"84 671 LINE",
"151 671 LINE",
"248 669 LINE",
"283 669 LINE",
"337 669 LINE",
"461 672 LINE",
"535 672 LINE",
"562 672 LINE",
"624 665 LINE",
"686 645 LINE",
"742 612 LINE",
"785 561 LINE",
"811 490 LINE",
"811 442 LINE",
"811 363 LINE",
"771 255 LINE",
"698 188 LINE",
"594 159 LINE",
"531 159 LINE",
"394 159 LINE",
"395 142 LINE",
"395 120 LINE",
"395 100 LINE",
"394 75 LINE",
"394 55 LINE",
"394 37 LINE",
"387 17 LINE",
"373 6 LINE",
"352 4 LINE",
"339 4 LINE",
"304 4 LINE",
"252 3 LINE",
"199 2 LINE",
"136 1 LINE",
"90 1 LINE",
"81 1 LINE",
"70 13 LINE",
"64 31 LINE",
"63 52 LINE",
"63 62 LINE",
"63 85 LINE",
"62 167 LINE",
"60 267 LINE",
"58 375 LINE",
"58 425 LINE"
);
},
{
closed = 1;
nodes = (
"402 282 LINE",
"402 281 LINE",
"407 280 LINE",
"411 279 LINE",
"430 279 LINE",
"447 279 LINE",
"458 279 LINE",
"474 301 LINE",
"484 336 LINE",
"490 379 LINE",
"492 420 LINE",
"493 455 LINE",
"493 464 LINE",
"493 465 LINE",
"492 483 LINE",
"490 509 LINE",
"484 537 LINE",
"474 561 LINE",
"458 577 LINE",
"447 577 LINE",
"438 577 LINE",
"425 552 LINE",
"416 510 LINE",
"409 458 LINE",
"407 430 LINE",
"402 365 LINE"
);
}
);
width = 839;
}
);
unicode = 0050;
},
{
glyphname = Thorn;
lastChange = "2016-07-06 09:52:17 +0000";
layers = (
{
layerId = UUID0;
paths = (
{
closed = 1;
nodes = (
"58 404 LINE",
"58 441 LINE",
"60 520 LINE",
"61 589 LINE",
"63 646 LINE",
"63 662 LINE",
"63 671 LINE",
"64 693 LINE",
"69 711 LINE",
"80 723 LINE",
"89 723 LINE",
"135 723 LINE",
"198 722 LINE",
"251 721 LINE",
"304 720 LINE",
"338 720 LINE",
"352 720 LINE",
"372 717 LINE",
"386 707 LINE",
"394 687 LINE",
"394 668 LINE",
"394 657 LINE",
"394 642 LINE",
"394 629 LINE",
"395 618 LINE",
"395 612 LINE",
"427 612 LINE",
"496 613 LINE",
"534 613 LINE",
"562 613 LINE",
"624 607 LINE",
"685 591 LINE",
"742 563 LINE",
"785 519 LINE",
"811 458 LINE",
"811 417 LINE",
"811 345 LINE",
"771 247 LINE",
"697 186 LINE",
"594 159 LINE",
"530 159 LINE",
"394 159 LINE",
"394 139 LINE",
"395 113 LINE",
"394 88 LINE",
"394 59 LINE",
"394 36 LINE",
"394 18 LINE",
"386 -3 LINE",
"372 -13 LINE",
"352 -16 LINE",
"338 -16 LINE",
"304 -16 LINE",
"251 -17 LINE",
"198 -18 LINE",
"135 -19 LINE",
"89 -19 LINE",
"80 -19 LINE",
"69 -7 LINE",
"64 11 LINE",
"63 33 LINE",
"63 42 LINE",
"63 63 LINE",
"61 130 LINE",
"60 214 LINE",
"58 307 LINE",
"58 353 LINE",
"58 383 LINE",
"58 400 LINE"
);
},
{
closed = 1;
nodes = (
"401 258 LINE",
"401 257 LINE",
"407 256 LINE",
"411 255 LINE",
"429 254 LINE",
"446 254 LINE",
"458 254 LINE",
"474 277 LINE",
"484 312 LINE",
"489 354 LINE",
"492 396 LINE",
"492 430 LINE",
"492 439 LINE",
"492 440 LINE",
"492 453 LINE",
"488 471 LINE",
"479 491 LINE",
"463 507 LINE",
"439 519 LINE",
"422 519 LINE",
"418 519 LINE",
"412 496 LINE",
"408 459 LINE",
"405 413 LINE",
"404 388 LINE",
"402 331 LINE"
);
}
);
width = 828;
}
);
unicode = 00DE;
},
{
glyphname = Q;
lastChange = "2016-07-07 08:33:23 +0000";
layers = (
{
layerId = UUID0;
paths = (
{
closed = 1;
nodes = (
"799 355 LINE",
"799 273 LINE",
"773 154 LINE",
"726 69 LINE",
"658 16 LINE",
"615 1 LINE",
"626 -14 LINE",
"650 -47 LINE",
"669 -77 LINE",
"681 -102 LINE",
"681 -109 LINE",
"681 -119 LINE",
"661 -137 LINE",
"633 -154 LINE",
"605 -169 LINE",
"596 -176 LINE",
"587 -178 LINE",
"568 -185 LINE",
"558 -187 LINE",
"556 -188 LINE",
"534 -196 LINE",
"507 -203 LINE",
"485 -208 LINE",
"483 -208 LINE",
"482 -212 LINE",
"475 -212 LINE",
"475 -213 LINE",
"470 -212 LINE",
"462 -208 LINE",
"450 -198 LINE",
"441 -189 LINE",
"438 -184 LINE",
"436 -183 LINE",
"435 -183 LINE",
"434 -182 LINE",
"431 -181 LINE",
"429 -177 LINE",
"350 -47 LINE",
"349 -44 LINE",
"340 -29 LINE",
"335 -21 LINE",
"294 -18 LINE",
"218 -3 LINE",
"150 27 LINE",
"94 76 LINE",
"53 148 LINE",
"31 247 LINE",
"31 313 LINE",
"31 415 LINE",
"76 560 LINE",
"173 652 LINE",
"326 695 LINE",
"433 695 LINE",
"469 695 LINE",
"552 683 LINE",
"633 654 LINE",
"708 605 LINE",
"765 529 LINE",
"799 425 LINE"
);
},
{
closed = 1;
nodes = (
"370 327 LINE",
"370 312 LINE",
"371 262 LINE",
"373 206 LINE",
"378 148 LINE",
"388 101 LINE",
"404 72 LINE",
"415 72 LINE",
"426 72 LINE",
"442 105 LINE",
"453 157 LINE",
"458 221 LINE",
"460 282 LINE",
"461 333 LINE",
"461 347 LINE",
"461 352 LINE",
"460 393 LINE",
"458 449 LINE",
"453 512 LINE",
"442 565 LINE",
"426 600 LINE",
"415 600 LINE",
"404 600 LINE",
"388 577 LINE",
"378 536 LINE",
"373 482 LINE",
"371 422 LINE",
"370 357 LINE"
);
}
);
width = 839;
}
);
unicode = 0051;
},
{
glyphname = R;
lastChange = "2016-07-07 08:33:46 +0000";
layers = (
{
anchors = (
{
name = bottom;
position = "{437, 0}";
},
{
name = top;
position = "{437, 676}";
}
);
layerId = UUID0;
paths = (
{
closed = 1;
nodes = (
"562 -13 LINE",
"560 -8 LINE",
"557 -6 LINE",
"556 -6 LINE",
"555 -6 LINE",
"553 -4 LINE",
"550 -1 LINE",
"465 125 LINE",
"463 128 LINE",
"453 145 LINE",
"441 161 LINE",
"430 174 LINE",
"427 174 LINE",
"423 174 LINE",
"419 149 LINE",
"418 112 LINE",
"417 68 LINE",
"415 31 LINE",
"410 6 LINE",
"404 6 LINE",
"400 6 LINE",
"394 7 LINE",
"393 7 LINE",
"339 4 LINE",
"237 -2 LINE",
"184 -2 LINE",
"177 -2 LINE",
"156 -1 LINE",
"135 -1 LINE",
"120 -1 LINE",
"119 -1 LINE",
"83 11 LINE",
"80 19 LINE",
"77 42 LINE",
"74 78 LINE",
"71 124 LINE",
"67 170 LINE",
"64 213 LINE",
"63 228 LINE",
"61 266 LINE",
"55 345 LINE",
"55 383 LINE",
"55 385 LINE",
"57 403 LINE",
"58 422 LINE",
"60 439 LINE",
"60 442 LINE",
"60 475 LINE",
"54 533 LINE",
"54 567 LINE",
"54 590 LINE",
"57 633 LINE",
"65 666 LINE",
"80 686 LINE",
"91 686 LINE",
"146 686 LINE",
"262 685 LINE",
"380 682 LINE",
"496 678 LINE",
"549 677 LINE",
"617 675 LINE",
"713 641 LINE",
"774 586 LINE",
"803 516 LINE",
"803 478 LINE",
"803 452 LINE",
"793 410 LINE",
"777 375 LINE",
"757 347 LINE",
"746 336 LINE",
"721 311 LINE",
"689 296 LINE",
"697 289 LINE",
"705 282 LINE",
"712 276 LINE",
"726 264 LINE",
"732 260 LINE",
"737 253 LINE",
"757 229 LINE",
"782 199 LINE",
"808 166 LINE",
"830 135 LINE",
"843 110 LINE",
"843 103 LINE",
"843 93 LINE",
"824 74 LINE",
"797 56 LINE",
"769 40 LINE",
"760 32 LINE",
"742 23 LINE",
"703 1 LINE",
"680 -6 LINE",
"679 -6 LINE",
"666 -11 LINE",
"649 -17 LINE",
"630 -23 LINE",
"615 -28 LINE",
"605 -30 LINE",
"605 -29 LINE",
"603 -34 LINE",
"598 -34 LINE",
"597 -34 LINE",
"593 -34 LINE",
"584 -30 LINE",
"571 -22 LINE"
);
},
{
closed = 1;
nodes = (
"406 322 LINE",
"406 321 LINE",
"409 320 LINE",
"411 319 LINE",
"421 319 LINE",
"431 319 LINE",
"448 319 LINE",
"473 336 LINE",
"488 364 LINE",
"497 397 LINE",
"501 430 LINE",
"501 457 LINE",
"501 464 LINE",
"501 465 LINE",
"501 483 LINE",
"497 509 LINE",
"488 537 LINE",
"473 561 LINE",
"448 577 LINE",
"431 577 LINE",
"426 577 LINE",
"418 555 LINE",
"414 519 LINE",
"410 473 LINE",
"409 449 LINE",
"406 393 LINE"
);
}
);
width = 873;
}
);
unicode = 0052;
},
{
glyphname = S;
lastChange = "2016-07-07 10:18:43 +0000";
layers = (
{
anchors = (
{
name = bottom;
position = "{341, 0}";
},
{
name = top;
position = "{361, 676}";
}
);
layerId = UUID0;
paths = (
{
closed = 1;
nodes = (
"670 201 LINE",
"666 161 LINE",
"635 96 LINE",
"588 46 LINE",
"525 10 LINE",
"454 -13 LINE",
"375 -24 LINE",
"336 -24 LINE",
"299 -24 LINE",
"227 -16 LINE",
"160 0 LINE",
"100 22 LINE",
"76 37 LINE",
"63 79 LINE",
"49 167 LINE",
"43 213 LINE",
"43 216 LINE",
"44 221 LINE",
"50 231 LINE",
"56 234 LINE",
"92 211 LINE",
"163 188 LINE",
"206 188 LINE",
"215 188 LINE",
"246 186 LINE",
"278 189 LINE",
"306 200 LINE",
"311 212 LINE",
"285 226 LINE",
"228 252 LINE",
"173 283 LINE",
"124 319 LINE",
"86 366 LINE",
"64 424 LINE",
"64 462 LINE",
"64 510 LINE",
"93 583 LINE",
"144 634 LINE",
"211 668 LINE",
"287 687 LINE",
"367 695 LINE",
"405 695 LINE",
"445 695 LINE",
"513 688 LINE",
"572 679 LINE",
"624 669 LINE",
"647 667 LINE",
"649 667 LINE",
"654 662 LINE",
"658 657 LINE",
"662 652 LINE",
"664 652 LINE",
"665 652 LINE",
"665 653 LINE",
"666 653 LINE",
"667 626 LINE",
"674 573 LINE",
"674 546 LINE",
"674 537 LINE",
"673 519 LINE",
"668 501 LINE",
"660 486 LINE",
"652 481 LINE",
"560 492 LINE",
"556 492 LINE",
"544 493 LINE",
"536 493 LINE",
"520 493 LINE",
"477 489 LINE",
"438 482 LINE",
"412 477 LINE",
"412 475 LINE",
"412 460 LINE",
"431 438 LINE",
"458 422 LINE",
"484 412 LINE",
"492 409 LINE",
"530 398 LINE",
"597 360 LINE",
"646 312 LINE",
"674 258 LINE",
"674 233 LINE",
"674 225 LINE",
"672 211 LINE"
);
}
);
width = 721;
}
);
unicode = 0053;
},
{
color = 9;
glyphname = Schwa;
lastChange = "2016-07-07 12:24:29 +0000";
layers = (
{
anchors = (
{
name = bottom;
position = "{430, 0}";
},
{
name = top;
position = "{430, 676}";
}
);
layerId = UUID0;
paths = (
{
closed = 1;
nodes = (
"723 598 LINE",
"648 647 LINE",
"566 676 LINE",
"484 688 LINE",
"280 688 LINE",
"95 661 LINE",
"77 637 LINE",
"77 493 LINE",
"94 475 LINE",
"221 498 LINE",
"307 502 LINE",
"334 502 LINE",
"415 485 LINE",
"461 448 LINE",
"468 426 LINE",
"473 386 LINE",
"474 355 LINE",
"432 352 LINE",
"311 351 LINE",
"65 352 LINE",
"46 332 LINE",
"46 235 LINE",
"77 125 LINE",
"132 50 LINE",
"207 6 LINE",
"293 -17 LINE",
"389 -24 LINE",
"494 -24 LINE",
"593 -12 LINE",
"677 19 LINE",
"743 72 LINE",
"790 157 LINE",
"814 275 LINE",
"814 418 LINE",
"780 522 LINE"
);
},
{
closed = 1;
nodes = (
"467 149 LINE",
"457 102 LINE",
"441 72 LINE",
"418 72 LINE",
"403 98 LINE",
"393 141 LINE",
"388 180 LINE",
"385 207 LINE",
"385 237 LINE",
"419 236 LINE",
"476 240 LINE",
"476 225 LINE",
"473 194 LINE"
);
}
);
width = 859;
}
);
leftMetricsKey = O;
rightMetricsKey = O;
},
{
glyphname = T;
lastChange = "2016-07-07 08:34:06 +0000";
layers = (
{
anchors = (
{
name = bottom;
position = "{361, 0}";
},
{
name = center;
position = "{361, 338}";
},
{
name = top;
position = "{361, 676}";
}
);
layerId = UUID0;
paths = (
{
closed = 1;
nodes = (
"189 449 LINE",
"189 450 LINE",
"186 452 LINE",
"75 452 LINE",
"61 452 LINE",
"46 485 LINE",
"39 531 LINE",
"38 578 LINE",
"38 594 LINE",
"38 598 LINE",
"38 615 LINE",
"39 633 LINE",
"39 646 LINE",
"39 647 LINE",
"39 654 LINE",
"50 662 LINE",
"66 667 LINE",
"83 668 LINE",
"89 668 LINE",
"126 668 LINE",
"203 666 LINE",
"240 666 LINE",
"600 666 LINE",
"633 666 LINE",
"669 663 LINE",
"686 656 LINE",
"688 645 LINE",
"688 637 LINE",
"688 472 LINE",
"688 466 LINE",
"683 460 LINE",
"674 457 LINE",
"665 456 LINE",
"662 456 LINE",
"648 456 LINE",
"615 456 LINE",
"580 456 LINE",
"546 457 LINE",
"532 457 LINE",
"528 457 LINE",
"524 456 LINE",
"521 452 LINE",
"521 442 LINE",
"521 433 LINE",
"521 426 LINE",
"520 372 LINE",
"518 285 LINE",
"513 193 LINE",
"510 148 LINE",
"510 52 LINE",
"510 33 LINE",
"502 14 LINE",
"488 5 LINE",
"466 3 LINE",
"452 2 LINE",
"421 2 LINE",
"373 1 LINE",
"322 0 LINE",
"262 -1 LINE",
"221 -1 LINE",
"207 -1 LINE",
"192 34 LINE",
"185 95 LINE",
"185 179 LINE",
"187 276 LINE",
"189 394 LINE"
);
}
);
width = 722;
}
);
unicode = 0054;
},
{
glyphname = Tbar;
lastChange = "2016-07-06 09:52:17 +0000";
layers = (
{
layerId = UUID0;
paths = (
{
closed = 1;
nodes = (
"189 439 LINE",
"189 440 LINE",
"186 442 LINE",
"75 442 LINE",
"61 442 LINE",
"46 475 LINE",
"39 521 LINE",
"38 568 LINE",
"38 584 LINE",
"38 588 LINE",
"38 605 LINE",
"39 623 LINE",
"39 636 LINE",
"39 637 LINE",
"39 644 LINE",
"50 652 LINE",
"66 657 LINE",
"83 658 LINE",
"89 658 LINE",
"126 658 LINE",
"203 656 LINE",
"240 656 LINE",
"600 656 LINE",
"633 656 LINE",
"669 653 LINE",
"686 646 LINE",
"688 635 LINE",
"688 627 LINE",
"688 462 LINE",
"688 456 LINE",
"683 450 LINE",
"674 447 LINE",
"665 446 LINE",
"662 446 LINE",
"597 446 LINE",
"580 446 LINE",
"546 447 LINE",
"532 447 LINE",
"528 447 LINE",
"524 446 LINE",
"521 442 LINE",
"521 432 LINE",
"521 423 LINE",
"521 416 LINE",
"520 362 LINE",
"519 324 LINE",
"539 324 LINE",
"549 324 LINE",
"572 323 LINE",
"592 319 LINE",
"605 312 LINE",
"605 305 LINE",
"605 294 LINE",
"606 280 LINE",
"606 271 LINE",
"607 263 LINE",
"607 254 LINE",
"608 241 LINE",
"608 230 LINE",
"608 223 LINE",
"607 208 LINE",
"601 196 LINE",
"589 188 LINE",
"579 188 LINE",
"555 188 LINE",
"537 188 LINE",
"524 188 LINE",
"513 189 LINE",
"510 148 LINE",
"510 52 LINE",
"510 33 LINE",
"502 14 LINE",
"488 5 LINE",
"466 3 LINE",
"452 2 LINE",
"421 2 LINE",
"373 1 LINE",
"322 0 LINE",
"262 -1 LINE",
"221 -1 LINE",
"207 -1 LINE",
"192 34 LINE",
"185 95 LINE",
"185 137 LINE",
"185 163 LINE",
"185 191 LINE",
"169 191 LINE",
"154 191 LINE",
"138 191 LINE",
"111 194 LINE",
"94 203 LINE",
"94 211 LINE",
"94 227 LINE",
"94 250 LINE",
"94 271 LINE",
"93 294 LINE",
"93 310 LINE",
"93 313 LINE",
"99 319 LINE",
"107 324 LINE",
"117 328 LINE",
"122 328 LINE",
"188 328 LINE",
"188 330 LINE",
"189 384 LINE"
);
}
);
width = 722;
}
);
unicode = 0166;
},
{
glyphname = U;
lastChange = "2016-07-07 13:33:44 +0000";
layers = (
{
anchors = (
{
name = bottom;
position = "{443, 0}";
},
{
name = ogonek;
position = "{796, 10}";
},
{
name = top;
position = "{443, 676}";
},
{
name = topright;
position = "{691, 671}";
}
);
layerId = UUID0;
paths = (
{
closed = 1;
nodes = (
"502 35 LINE",
"477 22 LINE",
"419 1 LINE",
"359 -15 LINE",
"296 -23 LINE",
"265 -23 LINE",
"215 -23 LINE",
"145 0 LINE",
"98 42 LINE",
"71 99 LINE",
"58 167 LINE",
"55 245 LINE",
"55 286 LINE",
"55 326 LINE",
"59 406 LINE",
"64 488 LINE",
"68 572 LINE",
"68 615 LINE",
"68 626 LINE",
"64 646 LINE",
"64 657 LINE",
"64 668 LINE",
"85 674 LINE",
"98 674 LINE",
"127 674 LINE",
"188 675 LINE",
"249 673 LINE",
"312 667 LINE",
"344 661 LINE",
"358 657 LINE",
"375 648 LINE",
"384 633 LINE",
"387 608 LINE",
"387 589 LINE",
"387 549 LINE",
"385 465 LINE",
"382 372 LINE",
"380 265 LINE",
"380 202 LINE",
"380 166 LINE",
"386 132 LINE",
"399 132 LINE",
"415 132 LINE",
"445 141 LINE",
"458 146 LINE",
"473 153 LINE",
"486 161 LINE",
"486 563 LINE",
"484 574 LINE",
"482 598 LINE",
"481 618 LINE",
"481 632 LINE",
"481 634 LINE",
"481 643 LINE",
"484 655 LINE",
"492 662 LINE",
"508 665 LINE",
"521 665 LINE",
"532 665 LINE",
"573 667 LINE",
"619 669 LINE",
"660 671 LINE",
"669 672 LINE",
"671 672 LINE",
"691 671 LINE",
"703 670 LINE",
"716 669 LINE",
"733 669 LINE",
"768 665 LINE",
"806 657 LINE",
"825 649 LINE",
"830 641 LINE",
"830 636 LINE",
"830 561 LINE",
"826 413 LINE",
"821 266 LINE",
"817 118 LINE",
"817 43 LINE",
"817 22 LINE",
"800 3 LINE",
"780 3 LINE",
"773 3 LINE",
"746 2 LINE",
"712 1 LINE",
"674 0 LINE",
"656 -1 LINE",
"612 -3 LINE",
"562 -5 LINE",
"537 -5 LINE",
"508 14 LINE"
);
}
);
width = 885;
}
);
unicode = 0055;
},
{
color = 9;
glyphname = Uhorn;
lastChange = "2016-07-07 13:40:05 +0000";
layers = (
{
anchors = (
{
name = bottom;
position = "{443, 0}";
},
{
name = top;
position = "{443, 676}";
}
);
background = {
paths = (
{
closed = 1;
nodes = (
"919 805 LINE",
"924 786 LINE",
"928 745 LINE",
"928 722 LINE",
"928 680 LINE",
"902 602 LINE",
"874 560 LINE",
"842 524 LINE",
"797 504 LINE",
"747 489 LINE",
"691 528 LINE",
"691 671 LINE",
"706 671 LINE",
"733 683 LINE",
"754 704 LINE",
"765 732 LINE",
"765 749 LINE",
"765 757 LINE",
"762 791 LINE",
"757 809 LINE"
);
},
{
closed = 1;
nodes = (
"502 35 LINE",
"477 22 LINE",
"419 1 LINE",
"359 -15 LINE",
"296 -23 LINE",
"265 -23 LINE",
"215 -23 LINE",
"145 0 LINE",
"98 42 LINE",
"71 99 LINE",
"58 167 LINE",
"55 245 LINE",
"55 286 LINE",
"55 326 LINE",
"59 406 LINE",
"64 488 LINE",
"68 572 LINE",
"68 615 LINE",
"68 626 LINE",
"64 646 LINE",
"64 657 LINE",
"64 668 LINE",
"85 674 LINE",
"98 674 LINE",
"127 674 LINE",
"188 675 LINE",
"249 673 LINE",
"312 667 LINE",
"344 661 LINE",
"358 657 LINE",
"375 648 LINE",
"384 633 LINE",
"387 608 LINE",
"387 589 LINE",
"387 549 LINE",
"385 465 LINE",
"382 372 LINE",
"380 265 LINE",
"380 202 LINE",
"380 166 LINE",
"386 132 LINE",
"399 132 LINE",
"415 132 LINE",
"445 141 LINE",
"458 146 LINE",
"473 153 LINE",
"486 161 LINE",
"486 563 LINE",
"484 574 LINE",
"482 598 LINE",
"481 618 LINE",
"481 632 LINE",
"481 634 LINE",
"481 643 LINE",
"484 655 LINE",
"492 662 LINE",
"508 665 LINE",
"521 665 LINE",
"532 665 LINE",
"573 667 LINE",
"619 669 LINE",
"660 671 LINE",
"669 672 LINE",
"671 672 LINE",
"691 671 LINE",
"703 670 LINE",
"716 669 LINE",
"733 669 LINE",
"768 665 LINE",
"806 657 LINE",
"825 649 LINE",
"830 641 LINE",
"830 636 LINE",
"830 561 LINE",
"826 413 LINE",
"821 266 LINE",
"817 118 LINE",
"817 43 LINE",
"817 22 LINE",
"800 3 LINE",
"780 3 LINE",
"773 3 LINE",
"746 2 LINE",
"712 1 LINE",
"674 0 LINE",
"656 -1 LINE",
"612 -3 LINE",
"562 -5 LINE",
"537 -5 LINE",
"508 14 LINE"
);
}
);
};
layerId = UUID0;
paths = (
{
closed = 1;
nodes = (
"919 805 LINE",
"757 809 LINE",
"762 791 LINE",
"765 757 LINE",
"765 732 LINE",
"754 704 LINE",
"733 683 LINE",
"706 671 LINE",
"691 671 LINE",
"671 672 LINE",
"669 672 LINE",
"660 671 LINE",
"532 665 LINE",
"508 665 LINE",
"492 662 LINE",
"484 655 LINE",
"481 643 LINE",
"481 618 LINE",
"482 598 LINE",
"484 574 LINE",
"486 563 LINE",
"486 161 LINE",
"473 153 LINE",
"458 146 LINE",
"445 141 LINE",
"415 132 LINE",
"386 132 LINE",
"380 166 LINE",
"380 265 LINE",
"382 372 LINE",
"385 465 LINE",
"387 549 LINE",
"387 608 LINE",
"384 633 LINE",
"375 648 LINE",
"358 657 LINE",
"344 661 LINE",
"312 667 LINE",
"249 673 LINE",
"188 675 LINE",
"127 674 LINE",
"85 674 LINE",
"64 668 LINE",
"64 646 LINE",
"68 626 LINE",
"68 572 LINE",
"64 488 LINE",
"59 406 LINE",
"55 326 LINE",
"55 245 LINE",
"58 167 LINE",
"71 99 LINE",
"98 42 LINE",
"145 0 LINE",
"215 -23 LINE",
"296 -23 LINE",
"359 -15 LINE",
"419 1 LINE",
"477 22 LINE",
"502 35 LINE",
"508 14 LINE",
"537 -5 LINE",
"562 -5 LINE",
"656 -1 LINE",
"674 0 LINE",
"773 3 LINE",
"800 3 LINE",
"817 22 LINE",
"817 118 LINE",
"821 266 LINE",
"826 413 LINE",
"829 518 LINE",
"842 524 LINE",
"874 560 LINE",
"902 602 LINE",
"928 680 LINE",
"928 745 LINE",
"924 786 LINE"
);
}
);
width = 885;
}
);
unicode = 01AF;
},
{
glyphname = V;
lastChange = "2016-07-07 08:34:49 +0000";
layers = (
{
anchors = (
{
name = bottom;
position = "{459, 0}";
},
{
name = top;
position = "{459, 676}";
}
);
layerId = UUID0;
paths = (
{
closed = 1;
nodes = (
"629 5 LINE",
"536 1 LINE",
"351 0 LINE",
"265 0 LINE",
"251 0 LINE",
"224 6 LINE",
"211 6 LINE",
"208 6 LINE",
"205 5 LINE",
"202 5 LINE",
"199 6 LINE",
"192 14 LINE",
"192 16 LINE",
"122 332 LINE",
"106 393 LINE",
"77 520 LINE",
"64 580 LINE",
"63 587 LINE",
"56 617 LINE",
"54 648 LINE",
"60 672 LINE",
"72 672 LINE",
"76 672 LINE",
"95 672 LINE",
"120 671 LINE",
"147 671 LINE",
"171 670 LINE",
"186 670 LINE",
"187 670 LINE",
"280 670 LINE",
"280 669 LINE",
"285 667 LINE",
"287 667 LINE",
"290 666 LINE",
"294 666 LINE",
"298 670 LINE",
"304 670 LINE",
"307 670 LINE",
"308 670 LINE",
"328 668 LINE",
"356 667 LINE",
"389 666 LINE",
"402 666 LINE",
"407 657 LINE",
"417 619 LINE",
"428 567 LINE",
"439 505 LINE",
"447 472 LINE",
"447 471 LINE",
"453 441 LINE",
"461 398 LINE",
"471 348 LINE",
"480 304 LINE",
"486 275 LINE",
"486 273 LINE",
"486 271 LINE",
"487 269 LINE",
"488 263 LINE",
"489 260 LINE",
"490 263 LINE",
"490 269 LINE",
"491 271 LINE",
"491 273 LINE",
"492 275 LINE",
"498 304 LINE",
"506 348 LINE",
"516 398 LINE",
"525 441 LINE",
"531 471 LINE",
"531 472 LINE",
"538 505 LINE",
"550 567 LINE",
"561 619 LINE",
"570 657 LINE",
"576 666 LINE",
"585 666 LINE",
"611 667 LINE",
"634 668 LINE",
"650 670 LINE",
"651 670 LINE",
"654 670 LINE",
"655 670 LINE",
"657 666 LINE",
"658 666 LINE",
"666 666 LINE",
"668 669 LINE",
"668 670 LINE",
"731 670 LINE",
"747 670 LINE",
"771 671 LINE",
"797 671 LINE",
"823 672 LINE",
"842 672 LINE",
"846 672 LINE",
"858 672 LINE",
"864 648 LINE",
"862 617 LINE",
"855 587 LINE",
"854 580 LINE",
"841 520 LINE",
"812 393 LINE",
"796 332 LINE",
"726 16 LINE",
"726 14 LINE",
"719 6 LINE",
"716 5 LINE",
"713 5 LINE",
"710 6 LINE",
"707 6 LINE",
"701 6 LINE",
"689 0 LINE",
"683 0 LINE",
"669 0 LINE",
"643 5 LINE"
);
}
);
width = 918;
}
);
unicode = 0056;
},
{
glyphname = W;
lastChange = "2016-07-07 08:35:11 +0000";
layers = (
{
anchors = (
{
name = bottom;
position = "{585, 0}";
},
{
name = top;
position = "{585, 676}";
}
);
layerId = UUID0;
paths = (
{
closed = 1;
nodes = (
"720 5 LINE",
"706 5 LINE",
"676 6 LINE",
"662 6 LINE",
"653 5 LINE",
"646 6 LINE",
"643 14 LINE",
"643 16 LINE",
"576 346 LINE",
"510 16 LINE",
"507 6 LINE",
"488 0 LINE",
"477 0 LINE",
"451 0 LINE",
"411 -1 LINE",
"385 -1 LINE",
"358 -1 LINE",
"320 0 LINE",
"287 0 LINE",
"253 0 LINE",
"229 0 LINE",
"221 0 LINE",
"203 6 LINE",
"195 6 LINE",
"186 5 LINE",
"178 6 LINE",
"176 14 LINE",
"176 16 LINE",
"106 332 LINE",
"94 393 LINE",
"68 520 LINE",
"58 580 LINE",
"54 583 LINE",
"50 598 LINE",
"48 615 LINE",
"48 634 LINE",
"48 642 LINE",
"48 655 LINE",
"55 672 LINE",
"66 672 LINE",
"70 672 LINE",
"89 672 LINE",
"114 671 LINE",
"142 671 LINE",
"165 670 LINE",
"180 670 LINE",
"181 670 LINE",
"224 670 LINE",
"228 669 LINE",
"231 668 LINE",
"232 667 LINE",
"234 666 LINE",
"236 666 LINE",
"243 670 LINE",
"248 670 LINE",
"251 670 LINE",
"268 668 LINE",
"291 667 LINE",
"316 666 LINE",
"326 666 LINE",
"331 656 LINE",
"341 615 LINE",
"352 558 LINE",
"364 489 LINE",
"371 452 LINE",
"371 451 LINE",
"374 435 LINE",
"378 412 LINE",
"383 384 LINE",
"387 361 LINE",
"390 346 LINE",
"390 345 LINE",
"390 343 LINE",
"391 341 LINE",
"391 338 LINE",
"392 333 LINE",
"393 330 LINE",
"394 333 LINE",
"395 338 LINE",
"395 341 LINE",
"396 343 LINE",
"396 345 LINE",
"396 346 LINE",
"399 361 LINE",
"403 384 LINE",
"408 412 LINE",
"412 435 LINE",
"415 451 LINE",
"415 452 LINE",
"429 526 LINE",
"448 618 LINE",
"456 645 LINE",
"457 650 LINE",
"461 661 LINE",
"472 668 LINE",
"494 672 LINE",
"513 672 LINE",
"517 672 LINE",
"543 672 LINE",
"574 672 LINE",
"605 671 LINE",
"615 671 LINE",
"616 671 LINE",
"619 672 LINE",
"620 672 LINE",
"623 672 LINE",
"628 671 LINE",
"628 670 LINE",
"655 669 LINE",
"685 668 LINE",
"691 667 LINE",
"700 667 LINE",
"701 666 LINE",
"703 666 LINE",
"710 670 LINE",
"718 670 LINE",
"729 670 LINE",
"743 670 LINE",
"754 668 LINE",
"755 666 LINE",
"758 654 LINE",
"765 616 LINE",
"771 565 LINE",
"781 505 LINE",
"788 472 LINE",
"788 471 LINE",
"791 450 LINE",
"795 420 LINE",
"800 385 LINE",
"804 355 LINE",
"807 335 LINE",
"807 333 LINE",
"808 331 LINE",
"808 329 LINE",
"809 323 LINE",
"810 320 LINE",
"811 323 LINE",
"812 329 LINE",
"812 331 LINE",
"813 333 LINE",
"813 335 LINE",
"816 355 LINE",
"820 385 LINE",
"825 420 LINE",
"829 450 LINE",
"832 471 LINE",
"832 472 LINE",
"839 505 LINE",
"851 567 LINE",
"862 619 LINE",
"872 657 LINE",
"877 666 LINE",
"883 666 LINE",
"898 667 LINE",
"905 668 LINE",
"914 669 LINE",
"922 670 LINE",
"925 670 LINE",
"926 670 LINE",
"928 666 LINE",
"929 666 LINE",
"937 666 LINE",
"939 669 LINE",
"939 670 LINE",
"992 670 LINE",
"1007 670 LINE",
"1030 671 LINE",
"1058 671 LINE",
"1083 672 LINE",
"1103 672 LINE",
"1107 672 LINE",
"1117 672 LINE",
"1125 654 LINE",
"1125 642 LINE",
"1121 633 LINE",
"1117 615 LINE",
"1115 598 LINE",
"1115 583 LINE",
"1115 580 LINE",
"1101 513 LINE",
"1065 369 LINE",
"1047 302 LINE",
"977 16 LINE",
"969 14 LINE",
"967 6 LINE",
"967 5 LINE",
"958 6 LINE",
"951 6 LINE",
"941 4 LINE",
"934 4 LINE",
"912 4 LINE",
"855 4 LINE",
"796 5 LINE",
"741 5 LINE"
);
}
);
width = 1170;
}
);
unicode = 0057;
},
{
glyphname = X;
lastChange = "2016-07-07 08:35:43 +0000";
layers = (
{
anchors = (
{
name = bottom;
position = "{457, 0}";
},
{
name = top;
position = "{457, 676}";
}
);
layerId = UUID0;
paths = (
{
closed = 1;
nodes = (
"395 56 LINE",
"375 23 LINE",
"351 1 LINE",
"348 2 LINE",
"346 3 LINE",
"341 4 LINE",
"340 4 LINE",
"333 0 LINE",
"322 -4 LINE",
"311 -7 LINE",
"308 -6 LINE",
"301 -4 LINE",
"272 -3 LINE",
"233 -2 LINE",
"188 -2 LINE",
"142 -1 LINE",
"100 1 LINE",
"83 4 LINE",
"79 4 LINE",
"75 4 LINE",
"71 8 LINE",
"70 13 LINE",
"71 20 LINE",
"71 22 LINE",
"71 27 LINE",
"80 50 LINE",
"93 79 LINE",
"111 111 LINE",
"127 141 LINE",
"143 165 LINE",
"147 172 LINE",
"150 176 LINE",
"161 196 LINE",
"174 224 LINE",
"190 255 LINE",
"198 271 LINE",
"217 308 LINE",
"238 352 LINE",
"228 369 LINE",
"223 376 LINE",
"213 395 LINE",
"208 404 LINE",
"207 405 LINE",
"189 433 LINE",
"165 472 LINE",
"137 517 LINE",
"113 557 LINE",
"96 583 LINE",
"95 585 LINE",
"90 591 LINE",
"75 613 LINE",
"61 639 LINE",
"50 665 LINE",
"50 675 LINE",
"57 676 LINE",
"63 677 LINE",
"68 678 LINE",
"77 679 LINE",
"78 679 LINE",
"101 678 LINE",
"137 677 LINE",
"184 675 LINE",
"232 672 LINE",
"279 670 LINE",
"316 669 LINE",
"340 668 LINE",
"341 668 LINE",
"345 668 LINE",
"362 646 LINE",
"384 613 LINE",
"408 574 LINE",
"428 540 LINE",
"442 515 LINE",
"443 512 LINE",
"443 509 LINE",
"446 502 LINE",
"449 497 LINE",
"453 492 LINE",
"456 495 LINE",
"459 498 LINE",
"461 500 LINE",
"468 507 LINE",
"471 512 LINE",
"472 515 LINE",
"486 540 LINE",
"506 574 LINE",
"530 613 LINE",
"552 646 LINE",
"569 668 LINE",
"573 668 LINE",
"574 668 LINE",
"614 669 LINE",
"672 672 LINE",
"739 675 LINE",
"797 678 LINE",
"836 679 LINE",
"837 679 LINE",
"845 678 LINE",
"850 677 LINE",
"864 675 LINE",
"864 666 LINE",
"853 642 LINE",
"838 620 LINE",
"823 600 LINE",
"819 595 LINE",
"817 594 LINE",
"801 565 LINE",
"777 523 LINE",
"749 476 LINE",
"725 434 LINE",
"708 405 LINE",
"706 404 LINE",
"700 395 LINE",
"686 376 LINE",
"680 369 LINE",
"673 360 LINE",
"666 352 LINE",
"683 321 LINE",
"697 294 LINE",
"704 283 LINE",
"716 260 LINE",
"727 240 LINE",
"735 225 LINE",
"738 221 LINE",
"744 211 LINE",
"764 177 LINE",
"787 136 LINE",
"811 91 LINE",
"831 51 LINE",
"843 20 LINE",
"843 12 LINE",
"843 10 LINE",
"844 3 LINE",
"843 -2 LINE",
"839 -6 LINE",
"835 -6 LINE",
"831 -6 LINE",
"815 -6 LINE",
"775 -5 LINE",
"731 -4 LINE",
"688 -3 LINE",
"650 -3 LINE",
"622 -4 LINE",
"616 -6 LINE",
"613 -7 LINE",
"602 -4 LINE",
"591 0 LINE",
"583 4 LINE",
"582 4 LINE",
"573 2 LINE",
"572 1 LINE",
"549 23 LINE",
"549 31 LINE",
"549 32 LINE",
"547 32 LINE",
"544 32 LINE",
"541 32 LINE",
"538 35 LINE",
"488 125 LINE",
"485 130 LINE",
"476 149 LINE",
"465 167 LINE",
"456 180 LINE",
"453 180 LINE",
"426 125 LINE"
);
}
);
width = 914;
}
);
unicode = 0058;
},
{
glyphname = Y;
lastChange = "2016-07-07 08:36:17 +0000";
layers = (
{
anchors = (
{
name = bottom;
position = "{410, 0}";
},
{
name = top;
position = "{410, 676}";
},
{
name = topleft;
position = "{20, 676}";
}
);
layerId = UUID0;
paths = (
{
closed = 1;
nodes = (
"458 -89 LINE",
"456 -89 LINE",
"452 -91 LINE",
"451 -91 LINE",
"448 -91 LINE",
"445 -88 LINE",
"442 -82 LINE",
"417 -79 LINE",
"377 -67 LINE",
"362 -63 LINE",
"361 -63 LINE",
"354 -62 LINE",
"345 -61 LINE",
"336 -60 LINE",
"335 -59 LINE",
"327 -57 LINE",
"298 -48 LINE",
"265 -37 LINE",
"230 -23 LINE",
"202 -10 LINE",
"185 2 LINE",
"185 7 LINE",
"185 16 LINE",
"190 37 LINE",
"198 58 LINE",
"208 78 LINE",
"212 87 LINE",
"216 96 LINE",
"230 117 LINE",
"244 140 LINE",
"254 161 LINE",
"254 170 LINE",
"254 180 LINE",
"244 194 LINE",
"232 207 LINE",
"222 221 LINE",
"222 230 LINE",
"218 230 LINE",
"217 229 LINE",
"216 229 LINE",
"215 229 LINE",
"214 230 LINE",
"212 233 LINE",
"199 250 LINE",
"166 300 LINE",
"129 358 LINE",
"94 421 LINE",
"80 450 LINE",
"76 457 LINE",
"66 479 LINE",
"55 505 LINE",
"43 535 LINE",
"34 561 LINE",
"28 583 LINE",
"28 588 LINE",
"28 594 LINE",
"41 607 LINE",
"59 620 LINE",
"81 631 LINE",
"89 635 LINE",
"102 636 LINE",
"123 643 LINE",
"139 649 LINE",
"150 654 LINE",
"154 654 LINE",
"158 654 LINE",
"186 660 LINE",
"222 668 LINE",
"261 680 LINE",
"277 685 LINE",
"279 685 LINE",
"280 686 LINE",
"281 686 LINE",
"284 686 LINE",
"285 686 LINE",
"294 686 LINE",
"308 681 LINE",
"318 670 LINE",
"327 656 LINE",
"332 647 LINE",
"334 642 LINE",
"343 629 LINE",
"353 618 LINE",
"360 608 LINE",
"362 605 LINE",
"370 594 LINE",
"390 559 LINE",
"411 525 LINE",
"429 500 LINE",
"435 500 LINE",
"438 500 LINE",
"451 521 LINE",
"468 555 LINE",
"486 595 LINE",
"502 633 LINE",
"516 663 LINE",
"519 670 LINE",
"521 677 LINE",
"524 688 LINE",
"530 696 LINE",
"539 701 LINE",
"546 701 LINE",
"562 701 LINE",
"606 693 LINE",
"654 679 LINE",
"705 660 LINE",
"749 638 LINE",
"783 613 LINE",
"792 601 LINE",
"792 587 LINE",
"786 562 LINE",
"780 551 LINE",
"733 448 LINE",
"643 246 LINE",
"597 144 LINE",
"596 143 LINE",
"592 142 LINE",
"591 141 LINE",
"561 82 LINE",
"500 -33 LINE",
"470 -91 LINE",
"469 -94 LINE",
"461 -95 LINE",
"458 -95 LINE"
);
}
);
width = 819;
}
);
unicode = 0059;
},
{
glyphname = Z;
lastChange = "2016-07-07 08:36:25 +0000";
layers = (
{
anchors = (
{
name = bottom;
position = "{352, 0}";
},
{
name = top;
position = "{352, 676}";
}
);
layerId = UUID0;
paths = (
{
closed = 1;
nodes = (
"71 212 LINE",
"131 271 LINE",
"179 322 LINE",
"200 343 LINE",
"238 386 LINE",
"269 422 LINE",
"288 449 LINE",
"288 455 LINE",
"288 459 LINE",
"282 459 LINE",
"92 462 LINE",
"83 462 LINE",
"70 475 LINE",
"61 496 LINE",
"57 523 LINE",
"55 550 LINE",
"54 575 LINE",
"54 584 LINE",
"54 588 LINE",
"55 611 LINE",
"56 635 LINE",
"57 654 LINE",
"57 655 LINE",
"63 660 LINE",
"69 667 LINE",
"83 667 LINE",
"88 667 LINE",
"101 665 LINE",
"106 665 LINE",
"143 665 LINE",
"216 671 LINE",
"252 671 LINE",
"325 671 LINE",
"465 674 LINE",
"540 674 LINE",
"573 674 LINE",
"615 670 LINE",
"638 664 LINE",
"646 656 LINE",
"646 652 LINE",
"646 492 LINE",
"646 480 LINE",
"631 441 LINE",
"587 375 LINE",
"503 275 LINE",
"434 203 LINE",
"466 203 LINE",
"499 204 LINE",
"527 204 LINE",
"589 204 LINE",
"615 204 LINE",
"625 204 LINE",
"640 190 LINE",
"640 184 LINE",
"640 22 LINE",
"640 20 LINE",
"638 12 LINE",
"625 5 LINE",
"597 0 LINE",
"570 0 LINE",
"395 0 LINE",
"353 0 LINE",
"280 0 LINE",
"210 1 LINE",
"139 2 LINE",
"97 2 LINE",
"93 2 LINE",
"83 7 LINE",
"76 14 LINE",
"71 23 LINE",
"71 28 LINE"
);
}
);
width = 703;
}
);
unicode = 005A;
},
{
glyphname = R.alt;
lastChange = "2016-07-07 09:27:17 +0000";
layers = (
{
anchors = (
{
name = bottom;
position = "{442, 0}";
},
{
name = top;
position = "{442, 676}";
}
);
layerId = UUID0;
paths = (
{
closed = 1;
nodes = (
"562 -13 LINE",
"560 -8 LINE",
"557 -6 LINE",
"556 -6 LINE",
"555 -6 LINE",
"553 -4 LINE",
"550 -1 LINE",
"465 125 LINE",
"463 128 LINE",
"453 145 LINE",
"441 161 LINE",
"430 174 LINE",
"427 174 LINE",
"423 174 LINE",
"419 149 LINE",
"418 112 LINE",
"417 68 LINE",
"415 31 LINE",
"410 6 LINE",
"404 6 LINE",
"400 6 LINE",
"394 7 LINE",
"393 7 LINE",
"339 4 LINE",
"237 -2 LINE",
"184 -2 LINE",
"177 -2 LINE",
"156 -1 LINE",
"135 -1 LINE",
"120 -1 LINE",
"119 -1 LINE",
"83 11 LINE",
"80 19 LINE",
"77 42 LINE",
"74 78 LINE",
"71 124 LINE",
"67 170 LINE",
"64 213 LINE",
"63 228 LINE",
"61 266 LINE",
"55 345 LINE",
"55 383 LINE",
"55 385 LINE",
"57 403 LINE",
"58 422 LINE",
"60 439 LINE",
"60 442 LINE",
"60 475 LINE",
"54 533 LINE",
"54 567 LINE",
"54 590 LINE",
"57 633 LINE",
"65 666 LINE",
"80 686 LINE",
"91 686 LINE",
"146 686 LINE",
"262 685 LINE",
"380 682 LINE",
"496 678 LINE",
"549 677 LINE",
"617 675 LINE",
"713 641 LINE",
"774 586 LINE",
"803 516 LINE",
"803 478 LINE",
"803 452 LINE",
"793 410 LINE",
"777 375 LINE",
"757 347 LINE",
"746 336 LINE",
"721 311 LINE",
"689 296 LINE",
"697 289 LINE",
"705 282 LINE",
"712 276 LINE",
"726 264 LINE",
"732 260 LINE",
"737 253 LINE",
"757 229 LINE",
"782 199 LINE",
"808 166 LINE",
"830 135 LINE",
"843 110 LINE",
"843 103 LINE",
"843 93 LINE",
"824 74 LINE",
"797 56 LINE",
"769 40 LINE",
"760 32 LINE",
"742 23 LINE",
"703 1 LINE",
"680 -6 LINE",
"679 -6 LINE",
"666 -11 LINE",
"649 -17 LINE",
"630 -23 LINE",
"615 -28 LINE",
"605 -30 LINE",
"605 -29 LINE",
"603 -34 LINE",
"598 -34 LINE",
"597 -34 LINE",
"593 -34 LINE",
"584 -30 LINE",
"571 -22 LINE"
);
},
{
closed = 1;
nodes = (
"420 322 LINE",
"421 321 LINE",
"423 320 LINE",
"426 319 LINE",
"436 319 LINE",
"445 319 LINE",
"459 319 LINE",
"479 336 LINE",
"491 364 LINE",
"498 397 LINE",
"501 430 LINE",
"501 457 LINE",
"501 464 LINE",
"501 465 LINE",
"501 483 LINE",
"498 509 LINE",
"491 537 LINE",
"479 561 LINE",
"459 577 LINE",
"445 577 LINE",
"440 577 LINE",
"433 555 LINE",
"428 519 LINE",
"424 473 LINE",
"423 449 LINE",
"421 393 LINE"
);
}
);
width = 884;
}
);
},
{
glyphname = a;
lastChange = "2016-07-07 08:40:22 +0000";
layers = (
{
anchors = (
{
name = bottom;
position = "{404, 0}";
},
{
name = ogonek;
position = "{726, 10}";
},
{
name = top;
position = "{404, 578}";
}
);
layerId = UUID0;
paths = (
{
closed = 1;
nodes = (
"308 570 LINE",
"326 570 LINE",
"351 571 LINE",
"370 572 LINE",
"387 573 LINE",
"408 574 LINE",
"436 575 LINE",
"456 575 LINE",
"459 575 LINE",
"479 575 LINE",
"506 574 LINE",
"536 573 LINE",
"563 572 LINE",
"584 572 LINE",
"588 572 LINE",
"594 572 LINE",
"603 568 LINE",
"609 568 LINE",
"617 568 LINE",
"620 567 LINE",
"625 561 LINE",
"625 558 LINE",
"696 294 LINE",
"709 242 LINE",
"736 132 LINE",
"747 79 LINE",
"748 73 LINE",
"754 46 LINE",
"755 20 LINE",
"750 -1 LINE",
"739 -1 LINE",
"736 -1 LINE",
"719 -1 LINE",
"697 0 LINE",
"674 0 LINE",
"654 0 LINE",
"641 0 LINE",
"640 1 LINE",
"585 1 LINE",
"585 2 LINE",
"583 5 LINE",
"577 5 LINE",
"576 5 LINE",
"574 1 LINE",
"573 1 LINE",
"570 1 LINE",
"569 1 LINE",
"555 2 LINE",
"535 3 LINE",
"513 5 LINE",
"505 5 LINE",
"499 16 LINE",
"486 70 LINE",
"479 106 LINE",
"469 104 LINE",
"444 103 LINE",
"418 103 LINE",
"392 103 LINE",
"380 103 LINE",
"373 68 LINE",
"360 16 LINE",
"354 5 LINE",
"351 5 LINE",
"342 1 LINE",
"341 1 LINE",
"339 1 LINE",
"333 1 LINE",
"328 5 LINE",
"326 5 LINE",
"304 4 LINE",
"287 3 LINE",
"272 2 LINE",
"248 1 LINE",
"167 1 LINE",
"153 0 LINE",
"133 0 LINE",
"110 0 LINE",
"88 -1 LINE",
"71 -1 LINE",
"68 -1 LINE",
"58 -1 LINE",
"52 20 LINE",
"54 46 LINE",
"59 73 LINE",
"60 79 LINE",
"71 132 LINE",
"97 242 LINE",
"111 294 LINE",
"179 560 LINE",
"179 563 LINE",
"185 569 LINE",
"187 570 LINE",
"195 570 LINE",
"206 570 LINE",
"223 574 LINE",
"235 574 LINE",
"253 574 LINE",
"288 570 LINE"
);
},
{
closed = 1;
nodes = (
"427 431 LINE",
"423 408 LINE",
"417 372 LINE",
"409 326 LINE",
"401 278 LINE",
"393 232 LINE",
"390 214 LINE",
"434 214 LINE",
"435 215 LINE",
"439 217 LINE",
"440 217 LINE",
"442 217 LINE",
"450 217 LINE",
"463 213 LINE",
"470 212 LINE",
"467 230 LINE",
"459 276 LINE",
"451 325 LINE",
"443 371 LINE",
"437 408 LINE",
"433 431 LINE",
"433 432 LINE",
"432 434 LINE",
"432 436 LINE",
"431 440 LINE",
"430 444 LINE",
"429 440 LINE",
"428 436 LINE",
"427 434 LINE",
"427 432 LINE"
);
}
);
width = 807;
}
);
unicode = 0061;
},
{
glyphname = ae;
lastChange = "2016-07-07 08:48:00 +0000";
layers = (
{
anchors = (
{
name = bottom;
position = "{539, 0}";
},
{
name = top;
position = "{653, 578}";
}
);
layerId = UUID0;
paths = (
{
closed = 1;
nodes = (
"424 570 LINE",
"447 570 LINE",
"476 571 LINE",
"501 573 LINE",
"527 574 LINE",
"549 575 LINE",
"564 578 LINE",
"601 578 LINE",
"614 578 LINE",
"652 578 LINE",
"726 573 LINE",
"764 573 LINE",
"810 573 LINE",
"907 581 LINE",
"952 581 LINE",
"956 581 LINE",
"957 580 LINE",
"957 577 LINE",
"988 577 LINE",
"997 577 LINE",
"1006 558 LINE",
"1013 529 LINE",
"1018 494 LINE",
"1022 478 LINE",
"1022 469 LINE",
"1019 450 LINE",
"1012 450 LINE",
"1011 450 LINE",
"1006 454 LINE",
"1005 454 LINE",
"999 455 LINE",
"988 450 LINE",
"981 450 LINE",
"975 450 LINE",
"968 454 LINE",
"962 454 LINE",
"953 454 LINE",
"928 448 LINE",
"919 447 LINE",
"913 446 LINE",
"884 445 LINE",
"853 445 LINE",
"824 446 LINE",
"816 446 LINE",
"812 446 LINE",
"806 425 LINE",
"801 397 LINE",
"799 369 LINE",
"799 363 LINE",
"799 353 LINE",
"809 347 LINE",
"823 347 LINE",
"960 347 LINE",
"967 349 LINE",
"983 335 LINE",
"984 320 LINE",
"986 254 LINE",
"987 245 LINE",
"974 235 LINE",
"950 230 LINE",
"919 229 LINE",
"902 229 LINE",
"858 229 LINE",
"841 229 LINE",
"816 229 LINE",
"802 225 LINE",
"795 214 LINE",
"795 204 LINE",
"795 202 LINE",
"795 198 LINE",
"796 196 LINE",
"796 194 LINE",
"796 193 LINE",
"796 188 LINE",
"795 177 LINE",
"795 171 LINE",
"794 166 LINE",
"793 159 LINE",
"793 155 LINE",
"794 145 LINE",
"794 135 LINE",
"794 127 LINE",
"794 125 LINE",
"840 125 LINE",
"932 131 LINE",
"977 131 LINE",
"980 131 LINE",
"984 122 LINE",
"986 110 LINE",
"987 96 LINE",
"988 92 LINE",
"991 82 LINE",
"995 68 LINE",
"998 55 LINE",
"999 38 LINE",
"999 26 LINE",
"999 25 LINE",
"999 21 LINE",
"999 20 LINE",
"998 18 LINE",
"998 15 LINE",
"991 8 LINE",
"989 7 LINE",
"987 7 LINE",
"986 7 LINE",
"982 7 LINE",
"981 7 LINE",
"964 7 LINE",
"937 6 LINE",
"908 4 LINE",
"874 2 LINE",
"825 0 LINE",
"758 -1 LINE",
"711 -1 LINE",
"708 -1 LINE",
"691 -1 LINE",
"670 0 LINE",
"647 0 LINE",
"627 0 LINE",
"614 0 LINE",
"613 1 LINE",
"558 1 LINE",
"558 3 LINE",
"557 4 LINE",
"556 4 LINE",
"555 4 LINE",
"553 5 LINE",
"551 5 LINE",
"550 5 LINE",
"547 1 LINE",
"546 1 LINE",
"543 1 LINE",
"542 1 LINE",
"529 2 LINE",
"509 3 LINE",
"487 5 LINE",
"479 5 LINE",
"476 16 LINE",
"476 70 LINE",
"479 106 LINE",
"468 104 LINE",
"443 103 LINE",
"417 103 LINE",
"390 103 LINE",
"378 103 LINE",
"363 68 LINE",
"336 16 LINE",
"328 5 LINE",
"325 5 LINE",
"315 1 LINE",
"314 1 LINE",
"312 1 LINE",
"307 1 LINE",
"302 5 LINE",
"300 5 LINE",
"277 4 LINE",
"260 3 LINE",
"246 2 LINE",
"221 1 LINE",
"160 1 LINE",
"159 0 LINE",
"131 0 LINE",
"97 0 LINE",
"65 -1 LINE",
"61 -1 LINE",
"50 -1 LINE",
"50 20 LINE",
"58 46 LINE",
"70 73 LINE",
"72 79 LINE",
"94 132 LINE",
"143 242 LINE",
"167 294 LINE",
"292 560 LINE",
"292 563 LINE",
"300 569 LINE",
"303 570 LINE",
"311 570 LINE",
"322 570 LINE",
"339 574 LINE",
"352 574 LINE",
"370 574 LINE",
"403 570 LINE"
);
},
{
closed = 1;
nodes = (
"507 431 LINE",
"498 408 LINE",
"482 372 LINE",
"463 326 LINE",
"443 278 LINE",
"424 232 LINE",
"417 214 LINE",
"460 214 LINE",
"461 215 LINE",
"466 217 LINE",
"467 217 LINE",
"469 217 LINE",
"477 217 LINE",
"489 213 LINE",
"496 212 LINE",
"497 230 LINE",
"501 276 LINE",
"505 325 LINE",
"509 371 LINE",
"512 408 LINE",
"514 431 LINE",
"514 444 LINE"
);
}
);
width = 1077;
}
);
unicode = 00E6;
},
{
glyphname = b;
lastChange = "2016-07-07 08:51:07 +0000";
layers = (
{
anchors = (
{
name = bottom;
position = "{352, 0}";
},
{
name = top;
position = "{352, 578}";
}
);
layerId = UUID0;
paths = (
{
closed = 1;
nodes = (
"57 439 LINE",
"57 454 LINE",
"57 477 LINE",
"58 499 LINE",
"59 522 LINE",
"61 538 LINE",
"62 539 LINE",
"69 547 LINE",
"70 548 LINE",
"72 550 LINE",
"82 558 LINE",
"94 567 LINE",
"104 575 LINE",
"105 577 LINE",
"141 575 LINE",
"213 583 LINE",
"249 583 LINE",
"288 583 LINE",
"370 575 LINE",
"409 571 LINE",
"431 568 LINE",
"483 561 LINE",
"535 548 LINE",
"583 529 LINE",
"620 499 LINE",
"643 456 LINE",
"643 427 LINE",
"643 424 LINE",
"642 411 LINE",
"640 396 LINE",
"639 383 LINE",
"638 381 LINE",
"635 372 LINE",
"624 354 LINE",
"609 337 LINE",
"592 323 LINE",
"584 320 LINE",
"583 319 LINE",
"573 313 LINE",
"560 308 LINE",
"549 303 LINE",
"548 303 LINE",
"546 302 LINE",
"538 296 LINE",
"535 293 LINE",
"539 290 LINE",
"566 278 LINE",
"612 253 LINE",
"644 218 LINE",
"662 171 LINE",
"662 139 LINE",
"662 136 LINE",
"662 125 LINE",
"661 124 LINE",
"658 118 LINE",
"658 117 LINE",
"648 105 LINE",
"635 92 LINE",
"621 78 LINE",
"616 75 LINE",
"601 61 LINE",
"570 49 LINE",
"551 42 LINE",
"546 41 LINE",
"523 31 LINE",
"496 21 LINE",
"472 11 LINE",
"467 10 LINE",
"461 9 LINE",
"426 5 LINE",
"387 1 LINE",
"352 -3 LINE",
"344 -3 LINE",
"342 -4 LINE",
"331 -5 LINE",
"317 -6 LINE",
"305 -6 LINE",
"302 -6 LINE",
"301 -6 LINE",
"296 -10 LINE",
"295 -10 LINE",
"271 -10 LINE",
"226 -10 LINE",
"182 -8 LINE",
"140 -3 LINE",
"118 2 LINE",
"86 17 LINE",
"82 18 LINE",
"78 18 LINE",
"75 20 LINE",
"73 25 LINE",
"70 33 LINE",
"65 47 LINE",
"62 80 LINE",
"63 114 LINE",
"65 148 LINE",
"64 163 LINE",
"62 232 LINE",
"57 370 LINE"
);
},
{
closed = 1;
nodes = (
"341 216 LINE",
"336 216 LINE",
"332 206 LINE",
"332 202 LINE",
"332 134 LINE",
"332 131 LINE",
"337 130 LINE",
"338 130 LINE",
"339 130 LINE",
"341 130 LINE",
"341 131 LINE",
"474 193 LINE",
"481 199 LINE",
"477 200 LINE",
"468 202 LINE",
"465 205 LINE",
"439 208 LINE",
"397 216 LINE",
"374 216 LINE"
);
},
{
closed = 1;
nodes = (
"344 381 LINE",
"344 377 LINE",
"345 372 LINE",
"349 372 LINE",
"352 372 LINE",
"353 372 LINE",
"360 374 LINE",
"361 374 LINE",
"371 378 LINE",
"400 392 LINE",
"428 404 LINE",
"448 414 LINE",
"458 419 LINE",
"454 425 LINE",
"434 434 LINE",
"411 440 LINE",
"389 443 LINE",
"382 443 LINE",
"368 443 LINE",
"352 433 LINE",
"345 416 LINE",
"344 394 LINE"
);
}
);
width = 703;
}
);
unicode = 0062;
},
{
glyphname = c;
lastChange = "2016-07-07 08:51:10 +0000";
layers = (
{
anchors = (
{
name = bottom;
position = "{297, 0}";
},
{
name = top;
position = "{297, 578}";
}
);
layerId = UUID0;
paths = (
{
closed = 1;
nodes = (
"333 280 LINE",
"333 240 LINE",
"344 187 LINE",
"364 154 LINE",
"391 139 LINE",
"407 139 LINE",
"420 139 LINE",
"449 147 LINE",
"479 162 LINE",
"509 180 LINE",
"524 190 LINE",
"534 48 LINE",
"517 31 LINE",
"473 5 LINE",
"424 -14 LINE",
"375 -24 LINE",
"353 -24 LINE",
"316 -24 LINE",
"242 -18 LINE",
"173 2 LINE",
"112 41 LINE",
"67 105 LINE",
"42 201 LINE",
"42 268 LINE",
"42 348 LINE",
"86 471 LINE",
"165 556 LINE",
"271 600 LINE",
"332 600 LINE",
"383 600 LINE",
"494 567 LINE",
"549 535 LINE",
"536 422 LINE",
"511 428 LINE",
"457 441 LINE",
"432 441 LINE",
"411 441 LINE",
"375 427 LINE",
"349 391 LINE",
"333 329 LINE"
);
}
);
width = 594;
}
);
unicode = 0063;
},
{
glyphname = d;
lastChange = "2016-07-07 08:51:15 +0000";
layers = (
{
anchors = (
{
name = bottom;
position = "{376, 0}";
},
{
name = center;
position = "{376, 289}";
},
{
name = top;
position = "{376, 578}";
},
{
name = topright;
position = "{731, 578}";
}
);
layerId = UUID0;
paths = (
{
closed = 1;
nodes = (
"329 0 LINE",
"301 0 LINE",
"246 0 LINE",
"187 1 LINE",
"122 1 LINE",
"85 1 LINE",
"77 1 LINE",
"68 11 LINE",
"63 27 LINE",
"62 45 LINE",
"62 54 LINE",
"62 67 LINE",
"62 107 LINE",
"61 158 LINE",
"60 215 LINE",
"59 276 LINE",
"58 337 LINE",
"58 366 LINE",
"58 555 LINE",
"58 562 LINE",
"72 577 LINE",
"80 577 LINE",
"138 577 LINE",
"221 575 LINE",
"251 575 LINE",
"298 575 LINE",
"404 578 LINE",
"468 578 LINE",
"491 578 LINE",
"544 569 LINE",
"597 547 LINE",
"646 509 LINE",
"683 452 LINE",
"705 372 LINE",
"705 319 LINE",
"705 231 LINE",
"667 110 LINE",
"578 34 LINE",
"434 0 LINE"
);
},
{
closed = 1;
nodes = (
"336 113 LINE",
"344 113 LINE",
"352 113 LINE",
"359 114 LINE",
"371 116 LINE",
"375 120 LINE",
"383 128 LINE",
"397 177 LINE",
"408 241 LINE",
"414 310 LINE",
"414 338 LINE",
"414 341 LINE",
"414 367 LINE",
"412 401 LINE",
"407 441 LINE",
"398 474 LINE",
"385 496 LINE",
"375 496 LINE",
"368 496 LINE",
"357 493 LINE",
"353 491 LINE",
"349 489 LINE",
"346 487 LINE",
"346 467 LINE",
"345 415 LINE",
"343 354 LINE",
"342 291 LINE",
"341 261 LINE",
"339 190 LINE"
);
}
);
width = 751;
}
);
unicode = 0064;
},
{
glyphname = eth;
lastChange = "2016-07-06 09:52:17 +0000";
layers = (
{
layerId = UUID0;
paths = (
{
closed = 1;
nodes = (
"358 455 LINE",
"348 449 LINE",
"327 438 LINE",
"309 431 LINE",
"295 431 LINE",
"292 437 LINE",
"288 445 LINE",
"280 459 LINE",
"273 471 LINE",
"266 484 LINE",
"261 493 LINE",
"260 496 LINE",
"260 505 LINE",
"262 506 LINE",
"275 513 LINE",
"298 526 LINE",
"311 534 LINE",
"297 536 LINE",
"283 536 LINE",
"245 536 LINE",
"175 514 LINE",
"144 500 LINE",
"128 496 LINE",
"109 500 LINE",
"96 518 LINE",
"84 551 LINE",
"75 577 LINE",
"64 603 LINE",
"62 630 LINE",
"69 643 LINE",
"83 646 LINE",
"86 649 LINE",
"102 661 LINE",
"138 675 LINE",
"155 682 LINE",
"238 714 LINE",
"315 714 LINE",
"445 714 LINE",
"541 659 LINE",
"556 667 LINE",
"586 682 LINE",
"614 696 LINE",
"637 708 LINE",
"644 711 LINE",
"652 715 LINE",
"671 725 LINE",
"689 731 LINE",
"702 732 LINE",
"704 729 LINE",
"709 717 LINE",
"713 705 LINE",
"717 697 LINE",
"726 680 LINE",
"733 660 LINE",
"729 658 LINE",
"717 650 LINE",
"707 645 LINE",
"698 639 LINE",
"681 629 LINE",
"677 627 LINE",
"621 597 LINE",
"644 573 LINE",
"683 517 LINE",
"696 484 LINE",
"708 451 LINE",
"716 375 LINE",
"716 333 LINE",
"716 275 LINE",
"688 179 LINE",
"637 102 LINE",
"569 45 LINE",
"490 7 LINE",
"403 -12 LINE",
"360 -12 LINE",
"298 -12 LINE",
"182 19 LINE",
"92 79 LINE",
"39 170 LINE",
"39 230 LINE",
"39 278 LINE",
"80 350 LINE",
"115 371 LINE",
"187 404 LINE",
"285 404 LINE",
"313 404 LINE",
"374 389 LINE",
"405 372 LINE",
"405 380 LINE",
"404 403 LINE",
"401 429 LINE",
"395 457 LINE",
"389 470 LINE"
);
},
{
closed = 1;
nodes = (
"341 154 LINE",
"367 154 LINE",
"407 189 LINE",
"417 230 LINE",
"405 235 LINE",
"392 239 LINE",
"380 243 LINE",
"350 248 LINE",
"334 248 LINE",
"313 248 LINE",
"285 230 LINE",
"285 207 LINE",
"285 179 LINE",
"317 154 LINE"
);
}
);
width = 777;
}
);
unicode = 00F0;
},
{
glyphname = dcroat;
lastChange = "2016-07-07 10:21:07 +0000";
layers = (
{
layerId = UUID0;
paths = (
{
closed = 1;
nodes = (
"329 0 LINE",
"301 0 LINE",
"246 0 LINE",
"187 1 LINE",
"122 1 LINE",
"85 1 LINE",
"77 1 LINE",
"68 11 LINE",
"63 27 LINE",
"62 45 LINE",
"62 54 LINE",
"62 67 LINE",
"62 107 LINE",
"61 158 LINE",
"60 187 LINE",
"60 201 LINE",
"59 216 LINE",
"43 216 LINE",
"18 220 LINE",
"1 231 LINE",
"1 242 LINE",
"1 263 LINE",
"1 293 LINE",
"0 323 LINE",
"0 353 LINE",
"0 373 LINE",
"0 376 LINE",
"5 385 LINE",
"13 391 LINE",
"23 396 LINE",
"27 396 LINE",
"43 396 LINE",
"58 396 LINE",
"58 555 LINE",
"58 562 LINE",
"72 577 LINE",
"80 577 LINE",
"138 577 LINE",
"221 575 LINE",
"251 575 LINE",
"298 575 LINE",
"404 578 LINE",
"468 578 LINE",
"491 578 LINE",
"544 569 LINE",
"597 547 LINE",
"646 509 LINE",
"683 452 LINE",
"705 372 LINE",
"705 319 LINE",
"705 231 LINE",
"667 110 LINE",
"578 34 LINE",
"434 0 LINE"
);
},
{
closed = 1;
nodes = (
"315 113 LINE",
"330 113 LINE",
"343 113 LINE",
"354 114 LINE",
"375 116 LINE",
"382 120 LINE",
"396 128 LINE",
"421 176 LINE",
"439 239 LINE",
"449 307 LINE",
"449 335 LINE",
"449 338 LINE",
"448 363 LINE",
"445 397 LINE",
"437 436 LINE",
"421 468 LINE",
"399 490 LINE",
"382 490 LINE",
"370 490 LINE",
"352 487 LINE",
"345 485 LINE",
"337 483 LINE",
"332 481 LINE",
"332 462 LINE",
"331 436 LINE",
"331 417 LINE",
"330 395 LINE",
"331 395 LINE",
"333 395 LINE",
"344 394 LINE",
"362 389 LINE",
"375 380 LINE",
"375 372 LINE",
"375 352 LINE",
"374 326 LINE",
"373 303 LINE",
"372 282 LINE",
"372 268 LINE",
"372 256 LINE",
"369 238 LINE",
"359 226 LINE",
"348 223 LINE",
"338 220 LINE",
"322 220 LINE",
"319 168 LINE"
);
}
);
width = 751;
}
);
unicode = 0111;
},
{
glyphname = e;
lastChange = "2016-07-07 10:22:19 +0000";
layers = (
{
anchors = (
{
name = bottom;
position = "{316, 0}";
},
{
name = ogonek;
position = "{551, 10}";
},
{
name = top;
position = "{316, 578}";
}
);
layerId = UUID0;
paths = (
{
closed = 1;
nodes = (
"57 341 LINE",
"57 396 LINE",
"59 502 LINE",
"64 560 LINE",
"64 567 LINE",
"84 575 LINE",
"112 578 LINE",
"143 578 LINE",
"153 578 LINE",
"196 578 LINE",
"280 573 LINE",
"323 573 LINE",
"331 573 LINE",
"344 574 LINE",
"352 574 LINE",
"358 570 LINE",
"396 578 LINE",
"474 581 LINE",
"511 581 LINE",
"513 581 LINE",
"516 577 LINE",
"547 577 LINE",
"556 577 LINE",
"565 558 LINE",
"572 529 LINE",
"577 494 LINE",
"581 478 LINE",
"581 469 LINE",
"578 450 LINE",
"571 450 LINE",
"570 450 LINE",
"565 454 LINE",
"564 454 LINE",
"557 455 LINE",
"547 450 LINE",
"540 450 LINE",
"534 450 LINE",
"526 454 LINE",
"521 454 LINE",
"512 454 LINE",
"487 448 LINE",
"478 447 LINE",
"471 446 LINE",
"442 446 LINE",
"410 446 LINE",
"381 442 LINE",
"375 437 LINE",
"375 440 LINE",
"371 440 LINE",
"364 420 LINE",
"360 395 LINE",
"358 369 LINE",
"358 363 LINE",
"358 351 LINE",
"364 344 LINE",
"372 344 LINE",
"375 344 LINE",
"380 346 LINE",
"382 347 LINE",
"383 347 LINE",
"391 345 LINE",
"393 344 LINE",
"478 344 LINE",
"479 345 LINE",
"484 347 LINE",
"485 347 LINE",
"493 348 LINE",
"506 342 LINE",
"512 341 LINE",
"519 340 LINE",
"529 339 LINE",
"536 336 LINE",
"541 328 LINE",
"543 320 LINE",
"564 254 LINE",
"565 245 LINE",
"549 235 LINE",
"520 230 LINE",
"481 229 LINE",
"461 229 LINE",
"417 229 LINE",
"399 229 LINE",
"375 229 LINE",
"360 225 LINE",
"354 214 LINE",
"354 204 LINE",
"354 202 LINE",
"354 198 LINE",
"354 196 LINE",
"354 194 LINE",
"355 193 LINE",
"355 188 LINE",
"354 177 LINE",
"354 171 LINE",
"353 166 LINE",
"352 159 LINE",
"352 155 LINE",
"353 145 LINE",
"353 135 LINE",
"353 127 LINE",
"353 125 LINE",
"398 125 LINE",
"491 131 LINE",
"536 131 LINE",
"539 131 LINE",
"542 122 LINE",
"544 110 LINE",
"546 96 LINE",
"547 92 LINE",
"549 82 LINE",
"553 68 LINE",
"556 55 LINE",
"558 38 LINE",
"558 26 LINE",
"558 25 LINE",
"557 21 LINE",
"557 20 LINE",
"557 18 LINE",
"557 15 LINE",
"550 8 LINE",
"548 7 LINE",
"546 7 LINE",
"544 7 LINE",
"541 7 LINE",
"540 7 LINE",
"530 7 LINE",
"522 11 LINE",
"519 11 LINE",
"518 11 LINE",
"507 5 LINE",
"506 4 LINE",
"506 9 LINE",
"503 9 LINE",
"485 8 LINE",
"479 8 LINE",
"476 8 LINE",
"468 11 LINE",
"465 11 LINE",
"454 11 LINE",
"424 9 LINE",
"413 4 LINE",
"395 4 LINE",
"96 4 LINE",
"95 4 LINE",
"90 12 LINE",
"84 23 LINE",
"79 37 LINE",
"78 42 LINE",
"73 49 LINE",
"67 76 LINE",
"63 110 LINE",
"61 148 LINE",
"60 184 LINE",
"60 213 LINE",
"60 223 LINE",
"60 236 LINE",
"59 257 LINE",
"58 282 LINE",
"57 316 LINE"
);
}
);
width = 632;
}
);
unicode = 0065;
},
{
glyphname = f;
lastChange = "2016-07-07 08:51:45 +0000";
layers = (
{
anchors = (
{
name = bottom;
position = "{299, 0}";
},
{
name = top;
position = "{299, 578}";
}
);
layerId = UUID0;
paths = (
{
closed = 1;
nodes = (
"57 566 LINE",
"57 567 LINE",
"62 575 LINE",
"64 576 LINE",
"66 576 LINE",
"69 575 LINE",
"72 575 LINE",
"84 575 LINE",
"106 580 LINE",
"119 580 LINE",
"138 580 LINE",
"176 576 LINE",
"197 576 LINE",
"201 579 LINE",
"245 579 LINE",
"246 578 LINE",
"251 576 LINE",
"252 576 LINE",
"258 577 LINE",
"264 578 LINE",
"269 579 LINE",
"271 579 LINE",
"281 577 LINE",
"283 576 LINE",
"512 576 LINE",
"513 575 LINE",
"518 573 LINE",
"519 573 LINE",
"520 573 LINE",
"525 576 LINE",
"526 576 LINE",
"538 576 LINE",
"554 555 LINE",
"563 520 LINE",
"568 475 LINE",
"568 451 LINE",
"568 445 LINE",
"558 440 LINE",
"543 438 LINE",
"528 439 LINE",
"523 439 LINE",
"483 439 LINE",
"473 439 LINE",
"462 438 LINE",
"452 436 LINE",
"438 435 LINE",
"428 435 LINE",
"421 435 LINE",
"408 435 LINE",
"406 436 LINE",
"399 432 LINE",
"398 430 LINE",
"396 417 LINE",
"395 394 LINE",
"393 360 LINE",
"393 336 LINE",
"394 336 LINE",
"391 331 LINE",
"396 326 LINE",
"414 326 LINE",
"427 326 LINE",
"460 324 LINE",
"492 318 LINE",
"518 307 LINE",
"523 299 LINE",
"528 291 LINE",
"531 268 LINE",
"531 257 LINE",
"531 237 LINE",
"530 208 LINE",
"530 189 LINE",
"523 185 LINE",
"500 179 LINE",
"475 174 LINE",
"451 172 LINE",
"444 172 LINE",
"441 172 LINE",
"440 176 LINE",
"437 176 LINE",
"433 176 LINE",
"431 172 LINE",
"427 172 LINE",
"424 172 LINE",
"420 175 LINE",
"417 175 LINE",
"416 175 LINE",
"411 169 LINE",
"410 168 LINE",
"404 167 LINE",
"393 167 LINE",
"382 166 LINE",
"373 161 LINE",
"369 155 LINE",
"369 126 LINE",
"368 77 LINE",
"366 37 LINE",
"362 7 LINE",
"358 0 LINE",
"348 0 LINE",
"323 -1 LINE",
"299 -2 LINE",
"283 -3 LINE",
"279 -3 LINE",
"274 -2 LINE",
"271 -1 LINE",
"268 0 LINE",
"266 0 LINE",
"265 0 LINE",
"260 -2 LINE",
"259 -3 LINE",
"184 -3 LINE",
"183 -3 LINE",
"171 -3 LINE",
"154 -3 LINE",
"134 -3 LINE",
"115 -4 LINE",
"101 -4 LINE",
"98 -4 LINE",
"87 -4 LINE",
"76 18 LINE",
"72 45 LINE",
"71 73 LINE",
"71 79 LINE",
"68 129 LINE",
"57 230 LINE",
"57 281 LINE"
);
},
{
closed = 1;
nodes = (
"427 177 LINE",
"425 177 LINE",
"425 175 LINE",
"425 174 LINE",
"426 174 LINE",
"427 174 LINE",
"428 174 LINE",
"428 175 LINE",
"428 177 LINE"
);
}
);
width = 597;
}
);
unicode = 0066;
},
{
glyphname = g;
lastChange = "2016-07-07 08:51:58 +0000";
layers = (
{
anchors = (
{
name = bottom;
position = "{363, 0}";
},
{
name = top;
position = "{363, 578}";
}
);
layerId = UUID0;
paths = (
{
closed = 1;
nodes = (
"677 119 LINE",
"677 99 LINE",
"677 61 LINE",
"675 28 LINE",
"672 5 LINE",
"669 -1 LINE",
"662 -1 LINE",
"644 -1 LINE",
"636 -2 LINE",
"626 -2 LINE",
"616 -3 LINE",
"614 -3 LINE",
"607 -3 LINE",
"605 -2 LINE",
"604 -1 LINE",
"603 -1 LINE",
"602 -1 LINE",
"600 -2 LINE",
"600 -3 LINE",
"513 -3 LINE",
"505 -3 LINE",
"495 -3 LINE",
"485 -4 LINE",
"483 -4 LINE",
"477 -4 LINE",
"469 36 LINE",
"467 68 LINE",
"463 45 LINE",
"434 11 LINE",
"391 -11 LINE",
"336 -23 LINE",
"305 -23 LINE",
"276 -23 LINE",
"215 -9 LINE",
"156 22 LINE",
"104 70 LINE",
"65 139 LINE",
"42 228 LINE",
"42 284 LINE",
"42 359 LINE",
"96 476 LINE",
"190 556 LINE",
"319 597 LINE",
"394 597 LINE",
"448 597 LINE",
"563 569 LINE",
"622 541 LINE",
"588 394 LINE",
"572 398 LINE",
"538 408 LINE",
"502 416 LINE",
"467 422 LINE",
"450 422 LINE",
"426 422 LINE",
"384 410 LINE",
"354 377 LINE",
"335 322 LINE",
"335 279 LINE",
"335 242 LINE",
"346 191 LINE",
"366 161 LINE",
"393 147 LINE",
"409 147 LINE",
"421 147 LINE",
"448 153 LINE",
"461 159 LINE",
"459 187 LINE",
"455 240 LINE",
"450 265 LINE",
"450 304 LINE",
"450 311 LINE",
"456 311 LINE",
"461 311 LINE",
"467 311 LINE",
"479 315 LINE",
"485 315 LINE",
"495 315 LINE",
"513 311 LINE",
"522 311 LINE",
"525 313 LINE",
"540 315 LINE",
"548 315 LINE",
"561 315 LINE",
"583 318 LINE",
"588 318 LINE",
"600 321 LINE",
"614 320 LINE",
"626 320 LINE",
"636 319 LINE",
"653 319 LINE",
"653 318 LINE",
"675 318 LINE",
"679 316 LINE",
"679 288 LINE",
"680 284 LINE",
"680 278 LINE",
"680 268 LINE",
"680 250 LINE",
"680 233 LINE",
"680 145 LINE",
"679 137 LINE",
"678 127 LINE",
"677 120 LINE"
);
}
);
width = 726;
}
);
unicode = 0067;
},
{
glyphname = h;
lastChange = "2016-07-07 08:52:03 +0000";
layers = (
{
anchors = (
{
name = bottom;
position = "{414, 0}";
},
{
name = center;
position = "{414, 289}";
},
{
name = top;
position = "{414, 578}";
}
);
layerId = UUID0;
paths = (
{
closed = 1;
nodes = (
"667 0 LINE",
"628 0 LINE",
"554 5 LINE",
"516 4 LINE",
"499 4 LINE",
"491 4 LINE",
"482 8 LINE",
"478 19 LINE",
"476 35 LINE",
"475 48 LINE",
"465 213 LINE",
"462 212 LINE",
"447 212 LINE",
"428 213 LINE",
"412 215 LINE",
"410 216 LINE",
"369 216 LINE",
"363 216 LINE",
"362 205 LINE",
"362 201 LINE",
"362 196 LINE",
"362 35 LINE",
"362 22 LINE",
"362 9 LINE",
"359 3 LINE",
"354 2 LINE",
"348 0 LINE",
"312 -1 LINE",
"242 -3 LINE",
"207 -3 LINE",
"177 -3 LINE",
"112 0 LINE",
"84 7 LINE",
"80 7 LINE",
"76 14 LINE",
"74 22 LINE",
"74 30 LINE",
"74 31 LINE",
"69 108 LINE",
"57 267 LINE",
"57 352 LINE",
"57 360 LINE",
"58 394 LINE",
"60 438 LINE",
"61 485 LINE",
"63 529 LINE",
"63 563 LINE",
"64 571 LINE",
"64 572 LINE",
"66 574 LINE",
"67 574 LINE",
"77 574 LINE",
"92 579 LINE",
"105 578 LINE",
"123 577 LINE",
"152 577 LINE",
"178 578 LINE",
"204 578 LINE",
"220 578 LINE",
"248 578 LINE",
"304 576 LINE",
"333 576 LINE",
"343 576 LINE",
"355 573 LINE",
"361 564 LINE",
"363 548 LINE",
"363 536 LINE",
"363 533 LINE",
"363 521 LINE",
"363 506 LINE",
"364 494 LINE",
"364 490 LINE",
"364 486 LINE",
"365 478 LINE",
"365 473 LINE",
"365 456 LINE",
"363 428 LINE",
"363 414 LINE",
"363 403 LINE",
"368 395 LINE",
"377 394 LINE",
"392 397 LINE",
"402 397 LINE",
"403 397 LINE",
"420 396 LINE",
"441 396 LINE",
"458 398 LINE",
"458 400 LINE",
"458 441 LINE",
"458 446 LINE",
"458 466 LINE",
"459 493 LINE",
"460 522 LINE",
"460 549 LINE",
"461 569 LINE",
"461 574 LINE",
"462 574 LINE",
"466 574 LINE",
"471 574 LINE",
"475 576 LINE",
"475 578 LINE",
"523 578 LINE",
"545 578 LINE",
"588 574 LINE",
"610 574 LINE",
"618 574 LINE",
"654 575 LINE",
"693 577 LINE",
"728 578 LINE",
"736 578 LINE",
"754 578 LINE",
"770 571 LINE",
"770 554 LINE",
"770 475 LINE",
"770 460 LINE",
"768 425 LINE",
"766 389 LINE",
"765 353 LINE",
"766 338 LINE",
"756 21 LINE",
"756 19 LINE",
"752 11 LINE",
"747 4 LINE",
"740 0 LINE",
"737 0 LINE"
);
}
);
width = 827;
}
);
unicode = 0068;
},
{
glyphname = hbar;
lastChange = "2016-07-07 08:57:51 +0000";
layers = (
{
layerId = UUID0;
paths = (
{
closed = 1;
nodes = (
"667 0 LINE",
"628 0 LINE",
"554 5 LINE",
"516 4 LINE",
"499 4 LINE",
"491 4 LINE",
"482 8 LINE",
"478 19 LINE",
"476 35 LINE",
"475 48 LINE",
"465 213 LINE",
"462 212 LINE",
"447 212 LINE",
"428 213 LINE",
"412 215 LINE",
"410 216 LINE",
"369 216 LINE",
"363 216 LINE",
"362 205 LINE",
"362 201 LINE",
"362 16 LINE",
"362 9 LINE",
"359 3 LINE",
"354 2 LINE",
"348 0 LINE",
"312 -1 LINE",
"242 -3 LINE",
"207 -3 LINE",
"177 -3 LINE",
"112 0 LINE",
"84 7 LINE",
"80 7 LINE",
"76 14 LINE",
"74 22 LINE",
"74 30 LINE",
"74 31 LINE",
"69 108 LINE",
"57 267 LINE",
"57 352 LINE",
"57 360 LINE",
"58 394 LINE",
"59 416 LINE",
"59 429 LINE",
"60 442 LINE",
"51 443 LINE",
"43 443 LINE",
"21 444 LINE",
"-6 448 LINE",
"-6 452 LINE",
"-6 460 LINE",
"-6 471 LINE",
"-6 482 LINE",
"-8 495 LINE",
"-8 502 LINE",
"-8 503 LINE",
"1 507 LINE",
"16 509 LINE",
"31 511 LINE",
"39 511 LINE",
"62 511 LINE",
"63 530 LINE",
"63 546 LINE",
"63 563 LINE",
"64 571 LINE",
"64 572 LINE",
"66 574 LINE",
"67 574 LINE",
"77 574 LINE",
"92 579 LINE",
"105 578 LINE",
"123 577 LINE",
"152 577 LINE",
"178 578 LINE",
"204 578 LINE",
"220 578 LINE",
"248 578 LINE",
"304 576 LINE",
"333 576 LINE",
"343 576 LINE",
"355 573 LINE",
"361 564 LINE",
"363 548 LINE",
"363 536 LINE",
"363 533 LINE",
"363 521 LINE",
"363 513 LINE",
"363 510 LINE",
"376 510 LINE",
"391 510 LINE",
"423 510 LINE",
"459 510 LINE",
"460 523 LINE",
"460 535 LINE",
"460 549 LINE",
"461 569 LINE",
"461 574 LINE",
"462 574 LINE",
"466 574 LINE",
"471 574 LINE",
"475 576 LINE",
"475 578 LINE",
"523 578 LINE",
"545 578 LINE",
"588 574 LINE",
"610 574 LINE",
"618 574 LINE",
"654 575 LINE",
"693 577 LINE",
"728 578 LINE",
"736 578 LINE",
"754 578 LINE",
"770 571 LINE",
"770 554 LINE",
"770 508 LINE",
"782 508 LINE",
"793 507 LINE",
"810 507 LINE",
"832 502 LINE",
"832 500 LINE",
"832 494 LINE",
"832 487 LINE",
"833 482 LINE",
"833 480 LINE",
"834 476 LINE",
"835 473 LINE",
"836 466 LINE",
"836 461 LINE",
"836 458 LINE",
"834 451 LINE",
"824 445 LINE",
"805 440 LINE",
"788 440 LINE",
"769 440 LINE",
"768 424 LINE",
"767 407 LINE",
"766 389 LINE",
"765 353 LINE",
"766 338 LINE",
"756 21 LINE",
"756 19 LINE",
"752 11 LINE",
"747 4 LINE",
"740 0 LINE",
"737 0 LINE"
);
},
{
closed = 1;
nodes = (
"410 442 LINE",
"364 442 LINE",
"363 428 LINE",
"363 414 LINE",
"363 403 LINE",
"368 395 LINE",
"377 394 LINE",
"392 397 LINE",
"402 397 LINE",
"403 397 LINE",
"420 396 LINE",
"441 396 LINE",
"458 398 LINE",
"458 400 LINE",
"458 441 LINE",
"458 442 LINE",
"433 442 LINE"
);
}
);
width = 827;
}
);
unicode = 0127;
},
{
glyphname = i;
lastChange = "2016-07-07 08:58:09 +0000";
layers = (
{
anchors = (
{
name = bottom;
position = "{206, 0}";
}
);
layerId = UUID0;
paths = (
{
closed = 1;
nodes = (
"347 100 LINE",
"345 77 LINE",
"346 40 LINE",
"343 14 LINE",
"332 -1 LINE",
"319 -1 LINE",
"318 -1 LINE",
"316 1 LINE",
"315 1 LINE",
"314 1 LINE",
"309 0 LINE",
"307 0 LINE",
"304 -1 LINE",
"301 -2 LINE",
"292 -2 LINE",
"282 -1 LINE",
"274 0 LINE",
"269 1 LINE",
"264 1 LINE",
"263 1 LINE",
"258 -1 LINE",
"257 -2 LINE",
"182 -2 LINE",
"181 -2 LINE",
"157 -5 LINE",
"127 -10 LINE",
"101 -13 LINE",
"96 -13 LINE",
"85 -13 LINE",
"75 8 LINE",
"70 37 LINE",
"70 64 LINE",
"69 70 LINE",
"66 133 LINE",
"55 266 LINE",
"55 330 LINE",
"55 573 LINE",
"55 578 LINE",
"66 584 LINE",
"81 586 LINE",
"96 587 LINE",
"101 587 LINE",
"125 587 LINE",
"169 583 LINE",
"195 583 LINE",
"199 586 LINE",
"243 586 LINE",
"244 585 LINE",
"250 583 LINE",
"251 583 LINE",
"256 584 LINE",
"262 585 LINE",
"267 586 LINE",
"270 586 LINE",
"280 583 LINE",
"281 583 LINE",
"355 583 LINE",
"357 411 LINE",
"356 408 LINE",
"351 371 LINE",
"351 333 LINE",
"351 138 LINE"
);
}
);
width = 411;
}
);
unicode = 0069;
},
{
glyphname = idotless;
lastChange = "2016-07-07 10:26:19 +0000";
layers = (
{
anchors = (
{
name = bottom;
position = "{206, 0}";
},
{
name = ogonek;
position = "{306, 10}";
},
{
name = top;
position = "{206, 578}";
}
);
layerId = UUID0;
paths = (
{
closed = 1;
nodes = (
"347 100 LINE",
"345 77 LINE",
"346 40 LINE",
"343 14 LINE",
"332 -1 LINE",
"319 -1 LINE",
"318 -1 LINE",
"316 1 LINE",
"315 1 LINE",
"314 1 LINE",
"309 0 LINE",
"307 0 LINE",
"304 -1 LINE",
"301 -2 LINE",
"292 -2 LINE",
"282 -1 LINE",
"274 0 LINE",
"269 1 LINE",
"264 1 LINE",
"263 1 LINE",
"258 -1 LINE",
"257 -2 LINE",
"182 -2 LINE",
"181 -2 LINE",
"157 -5 LINE",
"127 -10 LINE",
"101 -13 LINE",
"96 -13 LINE",
"85 -13 LINE",
"75 8 LINE",
"70 37 LINE",
"70 64 LINE",
"69 70 LINE",
"66 133 LINE",
"55 266 LINE",
"55 330 LINE",
"55 545 LINE",
"55 550 LINE",
"66 556 LINE",
"81 559 LINE",
"96 559 LINE",
"101 559 LINE",
"125 559 LINE",
"169 555 LINE",
"195 555 LINE",
"199 558 LINE",
"243 558 LINE",
"244 557 LINE",
"250 555 LINE",
"251 555 LINE",
"256 556 LINE",
"262 557 LINE",
"267 558 LINE",
"270 558 LINE",
"280 556 LINE",
"281 555 LINE",
"355 555 LINE",
"357 411 LINE",
"356 408 LINE",
"351 371 LINE",
"351 333 LINE",
"351 138 LINE"
);
}
);
width = 412;
}
);
unicode = 0131;
},
{
glyphname = j;
lastChange = "2016-07-07 08:58:48 +0000";
layers = (
{
layerId = UUID0;
paths = (
{
closed = 1;
nodes = (
"404 26 LINE",
"378 2 LINE",
"317 -28 LINE",
"291 -37 LINE",
"261 -46 LINE",
"231 -51 LINE",
"186 -55 LINE",
"100 -48 LINE",
"58 -34 LINE",
"20 -17 LINE",
"19 -14 LINE",
"20 -1 LINE",
"22 16 LINE",
"24 35 LINE",
"25 43 LINE",
"25 48 LINE",
"27 65 LINE",
"28 81 LINE",
"30 92 LINE",
"31 90 LINE",
"43 86 LINE",
"63 80 LINE",
"80 76 LINE",
"99 74 LINE",
"110 74 LINE",
"120 74 LINE",
"133 89 LINE",
"141 109 LINE",
"146 130 LINE",
"148 136 LINE",
"148 150 LINE",
"150 197 LINE",
"150 231 LINE",
"151 265 LINE",
"151 325 LINE",
"152 348 LINE",
"152 375 LINE",
"152 397 LINE",
"151 575 LINE",
"152 578 LINE",
"154 580 LINE",
"155 582 LINE",
"157 584 LINE",
"158 584 LINE",
"161 584 LINE",
"163 583 LINE",
"166 583 LINE",
"177 583 LINE",
"198 588 LINE",
"211 588 LINE",
"229 588 LINE",
"265 584 LINE",
"285 584 LINE",
"288 587 LINE",
"299 589 LINE",
"313 589 LINE",
"326 588 LINE",
"331 588 LINE",
"332 587 LINE",
"336 584 LINE",
"338 584 LINE",
"339 584 LINE",
"344 585 LINE",
"349 587 LINE",
"354 588 LINE",
"356 588 LINE",
"366 586 LINE",
"367 584 LINE",
"409 584 LINE",
"413 583 LINE",
"414 583 LINE",
"416 583 LINE",
"423 584 LINE",
"435 584 LINE",
"450 564 LINE",
"459 531 LINE",
"463 488 LINE",
"463 465 LINE",
"463 312 LINE",
"463 311 LINE",
"462 285 LINE",
"461 252 LINE",
"460 225 LINE",
"460 224 LINE",
"460 199 LINE",
"458 145 LINE",
"446 92 LINE",
"424 44 LINE"
);
}
);
width = 513;
}
);
unicode = 006A;
},
{
glyphname = jdotless;
lastChange = "2016-07-07 08:59:14 +0000";
layers = (
{
anchors = (
{
name = bottom;
position = "{257, 0}";
},
{
name = top;
position = "{257, 578}";
}
);
layerId = UUID0;
paths = (
{
closed = 1;
nodes = (
"404 26 LINE",
"378 2 LINE",
"317 -28 LINE",
"291 -37 LINE",
"261 -46 LINE",
"231 -51 LINE",
"186 -55 LINE",
"100 -48 LINE",
"58 -34 LINE",
"20 -17 LINE",
"19 -14 LINE",
"20 -1 LINE",
"22 16 LINE",
"24 35 LINE",
"25 43 LINE",
"25 48 LINE",
"27 65 LINE",
"28 81 LINE",
"30 92 LINE",
"31 90 LINE",
"43 86 LINE",
"63 80 LINE",
"80 76 LINE",
"99 74 LINE",
"110 74 LINE",
"120 74 LINE",
"133 89 LINE",
"141 109 LINE",
"146 130 LINE",
"148 136 LINE",
"148 150 LINE",
"150 197 LINE",
"150 231 LINE",
"151 265 LINE",
"151 325 LINE",
"152 348 LINE",
"152 375 LINE",
"152 397 LINE",
"151 575 LINE",
"152 578 LINE",
"154 580 LINE",
"155 582 LINE",
"157 584 LINE",
"158 584 LINE",
"161 584 LINE",
"163 583 LINE",
"166 583 LINE",
"177 583 LINE",
"198 588 LINE",
"211 588 LINE",
"229 588 LINE",
"265 584 LINE",
"285 584 LINE",
"288 587 LINE",
"299 589 LINE",
"313 589 LINE",
"326 588 LINE",
"331 588 LINE",
"332 587 LINE",
"336 584 LINE",
"338 584 LINE",
"339 584 LINE",
"344 585 LINE",
"349 587 LINE",
"354 588 LINE",
"356 588 LINE",
"366 586 LINE",
"367 584 LINE",
"409 584 LINE",
"413 583 LINE",
"414 583 LINE",
"416 583 LINE",
"423 584 LINE",
"435 584 LINE",
"450 564 LINE",
"459 531 LINE",
"463 488 LINE",
"463 465 LINE",
"463 312 LINE",
"463 311 LINE",
"462 285 LINE",
"461 252 LINE",
"460 225 LINE",
"460 224 LINE",
"460 199 LINE",
"458 145 LINE",
"446 92 LINE",
"424 44 LINE"
);
}
);
width = 513;
}
);
unicode = 0237;
},
{
glyphname = k;
lastChange = "2016-07-07 08:59:31 +0000";
layers = (
{
anchors = (
{
name = bottom;
position = "{376, 0}";
},
{
name = top;
position = "{376, 578}";
}
);
layerId = UUID0;
paths = (
{
closed = 1;
nodes = (
"360 578 LINE",
"362 578 LINE",
"366 570 LINE",
"368 559 LINE",
"369 545 LINE",
"369 539 LINE",
"370 506 LINE",
"364 444 LINE",
"364 421 LINE",
"372 421 LINE",
"380 423 LINE",
"386 428 LINE",
"392 435 LINE",
"397 439 LINE",
"400 441 LINE",
"426 466 LINE",
"463 500 LINE",
"505 540 LINE",
"544 574 LINE",
"574 597 LINE",
"580 598 LINE",
"582 598 LINE",
"588 592 LINE",
"595 583 LINE",
"601 576 LINE",
"603 575 LINE",
"611 560 LINE",
"635 535 LINE",
"660 510 LINE",
"682 482 LINE",
"689 465 LINE",
"689 463 LINE",
"689 455 LINE",
"675 435 LINE",
"656 415 LINE",
"637 398 LINE",
"632 392 LINE",
"630 391 LINE",
"618 381 LINE",
"601 366 LINE",
"582 349 LINE",
"564 334 LINE",
"552 324 LINE",
"550 323 LINE",
"546 320 LINE",
"539 317 LINE",
"534 314 LINE",
"531 309 LINE",
"531 304 LINE",
"531 296 LINE",
"539 284 LINE",
"550 272 LINE",
"563 263 LINE",
"568 258 LINE",
"575 251 LINE",
"601 228 LINE",
"633 199 LINE",
"667 168 LINE",
"694 139 LINE",
"712 115 LINE",
"712 108 LINE",
"712 104 LINE",
"711 97 LINE",
"706 92 LINE",
"691 79 LINE",
"662 60 LINE",
"647 48 LINE",
"636 39 LINE",
"606 16 LINE",
"592 9 LINE",
"590 8 LINE",
"574 0 LINE",
"557 -8 LINE",
"542 -15 LINE",
"541 -15 LINE",
"521 -24 LINE",
"514 -17 LINE",
"494 3 LINE",
"492 5 LINE",
"490 7 LINE",
"488 9 LINE",
"485 11 LINE",
"483 13 LINE",
"404 102 LINE",
"402 105 LINE",
"391 119 LINE",
"378 132 LINE",
"367 143 LINE",
"364 143 LINE",
"360 143 LINE",
"357 139 LINE",
"357 136 LINE",
"357 130 LINE",
"356 99 LINE",
"355 65 LINE",
"354 36 LINE",
"354 30 LINE",
"354 27 LINE",
"354 18 LINE",
"354 9 LINE",
"353 0 LINE",
"351 0 LINE",
"346 0 LINE",
"340 0 LINE",
"335 0 LINE",
"334 0 LINE",
"290 -3 LINE",
"206 -2 LINE",
"161 -2 LINE",
"155 -2 LINE",
"137 -2 LINE",
"120 -2 LINE",
"107 -3 LINE",
"106 -3 LINE",
"68 6 LINE",
"65 13 LINE",
"64 32 LINE",
"63 63 LINE",
"63 101 LINE",
"62 140 LINE",
"61 175 LINE",
"61 188 LINE",
"60 264 LINE",
"58 419 LINE",
"58 499 LINE",
"58 501 LINE",
"57 515 LINE",
"56 529 LINE",
"56 542 LINE",
"56 545 LINE",
"56 552 LINE",
"56 559 LINE",
"56 565 LINE",
"57 566 LINE",
"60 575 LINE",
"72 581 LINE",
"87 582 LINE",
"104 579 LINE",
"112 579 LINE",
"222 579 LINE",
"343 578 LINE"
);
}
);
width = 751;
}
);
unicode = 006B;
},
{
glyphname = l;
lastChange = "2016-07-07 10:27:17 +0000";
layers = (
{
anchors = (
{
name = bottom;
position = "{283, 0}";
},
{
name = center;
position = "{283, 289}";
},
{
name = top;
position = "{283, 578}";
},
{
name = topright;
position = "{415, 578}";
}
);
layerId = UUID0;
paths = (
{
closed = 1;
nodes = (
"60 253 LINE",
"62 312 LINE",
"64 423 LINE",
"71 512 LINE",
"85 572 LINE",
"101 580 LINE",
"140 580 LINE",
"194 579 LINE",
"239 578 LINE",
"282 577 LINE",
"309 577 LINE",
"322 576 LINE",
"341 575 LINE",
"354 567 LINE",
"359 549 LINE",
"359 532 LINE",
"359 531 LINE",
"357 519 LINE",
"356 504 LINE",
"354 493 LINE",
"353 491 LINE",
"353 489 LINE",
"354 475 LINE",
"355 460 LINE",
"356 447 LINE",
"356 446 LINE",
"356 438 LINE",
"356 408 LINE",
"357 376 LINE",
"359 349 LINE",
"362 344 LINE",
"362 330 LINE",
"360 295 LINE",
"359 259 LINE",
"362 225 LINE",
"366 210 LINE",
"374 207 LINE",
"382 206 LINE",
"389 206 LINE",
"421 206 LINE",
"489 207 LINE",
"521 213 LINE",
"527 211 LINE",
"538 198 LINE",
"538 192 LINE",
"531 21 LINE",
"530 16 LINE",
"515 9 LINE",
"490 4 LINE",
"461 0 LINE",
"434 -2 LINE",
"411 -3 LINE",
"406 -3 LINE",
"391 -3 LINE",
"361 -6 LINE",
"348 -6 LINE",
"346 -6 LINE",
"338 -5 LINE",
"330 -4 LINE",
"322 -3 LINE",
"321 -3 LINE",
"316 -3 LINE",
"294 -1 LINE",
"267 0 LINE",
"238 1 LINE",
"212 3 LINE",
"194 4 LINE",
"192 4 LINE",
"168 5 LINE",
"123 1 LINE",
"99 1 LINE",
"88 1 LINE",
"70 1 LINE",
"61 0 LINE",
"57 4 LINE",
"57 26 LINE",
"57 53 LINE",
"57 78 LINE",
"58 82 LINE",
"58 96 LINE",
"58 133 LINE",
"57 169 LINE",
"56 201 LINE",
"56 210 LINE"
);
}
);
width = 565;
}
);
unicode = 006C;
},
{
glyphname = lslash;
lastChange = "2016-07-07 09:02:04 +0000";
layers = (
{
layerId = UUID0;
paths = (
{
closed = 1;
nodes = (
"117 580 LINE",
"160 580 LINE",
"221 579 LINE",
"271 578 LINE",
"319 577 LINE",
"349 577 LINE",
"361 576 LINE",
"378 575 LINE",
"390 567 LINE",
"395 549 LINE",
"394 532 LINE",
"394 531 LINE",
"394 521 LINE",
"394 508 LINE",
"394 496 LINE",
"394 493 LINE",
"409 496 LINE",
"437 501 LINE",
"453 505 LINE",
"463 507 LINE",
"484 512 LINE",
"502 511 LINE",
"514 503 LINE",
"514 494 LINE",
"514 472 LINE",
"513 441 LINE",
"512 416 LINE",
"511 391 LINE",
"511 375 LINE",
"511 362 LINE",
"509 341 LINE",
"499 325 LINE",
"478 313 LINE",
"460 308 LINE",
"456 307 LINE",
"453 305 LINE",
"450 303 LINE",
"445 301 LINE",
"444 300 LINE",
"400 289 LINE",
"400 267 LINE",
"400 223 LINE",
"401 205 LINE",
"410 206 LINE",
"420 206 LINE",
"429 206 LINE",
"461 206 LINE",
"529 207 LINE",
"561 213 LINE",
"567 211 LINE",
"578 198 LINE",
"578 192 LINE",
"571 21 LINE",
"570 16 LINE",
"555 9 LINE",
"530 4 LINE",
"501 0 LINE",
"474 -2 LINE",
"451 -3 LINE",
"446 -3 LINE",
"388 -3 LINE",
"386 -3 LINE",
"378 -3 LINE",
"370 -3 LINE",
"362 -3 LINE",
"361 -3 LINE",
"356 -3 LINE",
"334 -1 LINE",
"307 0 LINE",
"278 1 LINE",
"252 3 LINE",
"234 4 LINE",
"232 4 LINE",
"208 5 LINE",
"163 1 LINE",
"139 1 LINE",
"128 1 LINE",
"110 1 LINE",
"101 0 LINE",
"97 4 LINE",
"97 26 LINE",
"97 53 LINE",
"97 78 LINE",
"98 82 LINE",
"98 92 LINE",
"98 118 LINE",
"97 143 LINE",
"97 165 LINE",
"97 171 LINE",
"96 217 LINE",
"86 215 LINE",
"67 212 LINE",
"53 215 LINE",
"45 225 LINE",
"45 234 LINE",
"45 256 LINE",
"45 291 LINE",
"44 324 LINE",
"44 358 LINE",
"44 380 LINE",
"44 385 LINE",
"49 395 LINE",
"57 405 LINE",
"66 412 LINE",
"70 413 LINE",
"79 416 LINE",
"97 420 LINE",
"105 423 LINE",
"105 454 LINE",
"107 506 LINE",
"109 547 LINE",
"114 575 LINE"
);
}
);
width = 617;
}
);
unicode = 0142;
},
{
glyphname = m;
lastChange = "2016-07-07 09:02:11 +0000";
layers = (
{
anchors = (
{
name = bottom;
position = "{445, 0}";
},
{
name = top;
position = "{445, 578}";
}
);
layerId = UUID0;
paths = (
{
closed = 1;
nodes = (
"455 373 LINE",
"456 375 LINE",
"466 398 LINE",
"482 432 LINE",
"500 472 LINE",
"516 507 LINE",
"528 534 LINE",
"530 538 LINE",
"533 544 LINE",
"542 559 LINE",
"550 570 LINE",
"558 578 LINE",
"560 578 LINE",
"575 578 LINE",
"679 579 LINE",
"773 579 LINE",
"781 579 LINE",
"790 579 LINE",
"799 579 LINE",
"812 578 LINE",
"824 578 LINE",
"826 578 LINE",
"829 552 LINE",
"831 509 LINE",
"832 454 LINE",
"832 396 LINE",
"832 340 LINE",
"832 318 LINE",
"832 286 LINE",
"828 221 LINE",
"825 189 LINE",
"825 176 LINE",
"826 141 LINE",
"826 103 LINE",
"827 64 LINE",
"828 34 LINE",
"829 15 LINE",
"829 15 LINE",
"826 8 LINE",
"787 -1 LINE",
"786 -1 LINE",
"774 -1 LINE",
"757 -1 LINE",
"740 -2 LINE",
"734 -2 LINE",
"699 -2 LINE",
"638 2 LINE",
"603 5 LINE",
"602 5 LINE",
"596 4 LINE",
"594 4 LINE",
"589 4 LINE",
"584 42 LINE",
"582 102 LINE",
"581 173 LINE",
"581 206 LINE",
"581 209 LINE",
"577 213 LINE",
"574 213 LINE",
"572 213 LINE",
"564 196 LINE",
"555 172 LINE",
"546 147 LINE",
"543 139 LINE",
"541 136 LINE",
"528 107 LINE",
"508 74 LINE",
"483 48 LINE",
"469 48 LINE",
"464 48 LINE",
"448 48 LINE",
"429 48 LINE",
"409 49 LINE",
"402 50 LINE",
"378 88 LINE",
"347 148 LINE",
"329 190 LINE",
"320 213 LINE",
"318 213 LINE",
"311 213 LINE",
"311 206 LINE",
"311 188 LINE",
"311 143 LINE",
"311 98 LINE",
"310 56 LINE",
"307 23 LINE",
"302 4 LINE",
"298 4 LINE",
"295 4 LINE",
"290 5 LINE",
"289 5 LINE",
"254 2 LINE",
"193 -2 LINE",
"158 -2 LINE",
"152 -2 LINE",
"134 -1 LINE",
"117 -1 LINE",
"104 -1 LINE",
"66 8 LINE",
"63 15 LINE",
"62 34 LINE",
"61 64 LINE",
"60 103 LINE",
"59 141 LINE",
"58 176 LINE",
"58 189 LINE",
"59 234 LINE",
"62 320 LINE",
"62 367 LINE",
"62 369 LINE",
"62 379 LINE",
"61 390 LINE",
"60 400 LINE",
"60 401 LINE",
"60 414 LINE",
"61 435 LINE",
"63 457 LINE",
"64 482 LINE",
"64 499 LINE",
"64 501 LINE",
"63 515 LINE",
"63 530 LINE",
"62 543 LINE",
"62 546 LINE",
"60 548 LINE",
"60 552 LINE",
"60 561 LINE",
"74 572 LINE",
"93 578 LINE",
"113 579 LINE",
"119 579 LINE",
"213 579 LINE",
"317 578 LINE",
"332 578 LINE",
"334 578 LINE",
"342 570 LINE",
"350 559 LINE",
"358 544 LINE",
"362 538 LINE",
"363 534 LINE",
"374 507 LINE",
"388 471 LINE",
"403 431 LINE",
"417 397 LINE",
"427 374 LINE",
"428 373 LINE",
"435 360 LINE",
"441 360 LINE",
"445 360 LINE",
"453 369 LINE"
);
}
);
width = 890;
}
);
unicode = 006D;
},
{
glyphname = n;
lastChange = "2016-07-07 09:02:16 +0000";
layers = (
{
anchors = (
{
name = bottom;
position = "{381, 0}";
},
{
name = top;
position = "{381, 578}";
}
);
layerId = UUID0;
paths = (
{
closed = 1;
nodes = (
"702 192 LINE",
"702 144 LINE",
"701 78 LINE",
"700 34 LINE",
"696 11 LINE",
"689 0 LINE",
"679 -2 LINE",
"671 -2 LINE",
"644 -2 LINE",
"617 -1 LINE",
"594 -1 LINE",
"539 -1 LINE",
"514 -1 LINE",
"508 -1 LINE",
"494 -2 LINE",
"477 0 LINE",
"458 6 LINE",
"451 14 LINE",
"363 137 LINE",
"361 140 LINE",
"350 154 LINE",
"337 167 LINE",
"325 178 LINE",
"323 178 LINE",
"320 178 LINE",
"316 173 LINE",
"316 171 LINE",
"316 165 LINE",
"315 143 LINE",
"315 115 LINE",
"314 84 LINE",
"314 57 LINE",
"314 36 LINE",
"314 31 LINE",
"313 29 LINE",
"312 21 LINE",
"311 12 LINE",
"309 5 LINE",
"307 4 LINE",
"306 3 LINE",
"295 4 LINE",
"294 4 LINE",
"260 1 LINE",
"198 -3 LINE",
"163 -3 LINE",
"158 -3 LINE",
"140 -2 LINE",
"123 -2 LINE",
"110 -2 LINE",
"71 8 LINE",
"69 14 LINE",
"68 14 LINE",
"67 33 LINE",
"66 63 LINE",
"65 102 LINE",
"65 140 LINE",
"64 175 LINE",
"64 188 LINE",
"61 220 LINE",
"57 285 LINE",
"57 317 LINE",
"57 319 LINE",
"58 333 LINE",
"58 350 LINE",
"59 364 LINE",
"59 366 LINE",
"59 368 LINE",
"58 377 LINE",
"58 389 LINE",
"57 398 LINE",
"57 400 LINE",
"57 402 LINE",
"58 417 LINE",
"58 435 LINE",
"59 450 LINE",
"59 452 LINE",
"59 453 LINE",
"60 464 LINE",
"61 479 LINE",
"61 494 LINE",
"61 498 LINE",
"61 500 LINE",
"61 513 LINE",
"60 528 LINE",
"59 542 LINE",
"59 544 LINE",
"59 545 LINE",
"56 550 LINE",
"57 551 LINE",
"60 560 LINE",
"74 571 LINE",
"90 577 LINE",
"108 578 LINE",
"116 578 LINE",
"161 578 LINE",
"227 582 LINE",
"272 585 LINE",
"298 583 LINE",
"303 577 LINE",
"305 574 LINE",
"321 551 LINE",
"344 518 LINE",
"372 476 LINE",
"401 432 LINE",
"430 388 LINE",
"443 369 LINE",
"443 384 LINE",
"444 423 LINE",
"444 464 LINE",
"445 504 LINE",
"446 535 LINE",
"448 555 LINE",
"449 555 LINE",
"450 557 LINE",
"458 564 LINE",
"468 571 LINE",
"480 576 LINE",
"488 575 LINE",
"537 575 LINE",
"538 575 LINE",
"558 575 LINE",
"586 574 LINE",
"618 573 LINE",
"646 572 LINE",
"664 572 LINE",
"665 572 LINE",
"675 572 LINE",
"690 569 LINE",
"700 562 LINE",
"705 548 LINE",
"705 536 LINE",
"705 533 LINE",
"704 521 LINE",
"703 506 LINE",
"702 493 LINE",
"702 490 LINE",
"702 487 LINE",
"704 479 LINE",
"704 474 LINE",
"704 468 LINE",
"704 425 LINE",
"703 367 LINE",
"703 300 LINE",
"702 241 LINE",
"702 198 LINE"
);
}
);
width = 762;
}
);
unicode = 006E;
},
{
glyphname = eng;
lastChange = "2016-07-07 09:02:20 +0000";
layers = (
{
layerId = UUID0;
paths = (
{
closed = 1;
nodes = (
"654 -160 LINE",
"632 -181 LINE",
"583 -205 LINE",
"561 -212 LINE",
"536 -220 LINE",
"511 -224 LINE",
"475 -228 LINE",
"404 -221 LINE",
"370 -209 LINE",
"338 -196 LINE",
"338 -193 LINE",
"338 -183 LINE",
"340 -169 LINE",
"342 -154 LINE",
"343 -146 LINE",
"343 -142 LINE",
"344 -128 LINE",
"345 -115 LINE",
"347 -106 LINE",
"348 -108 LINE",
"358 -112 LINE",
"373 -117 LINE",
"388 -120 LINE",
"403 -122 LINE",
"413 -121 LINE",
"420 -121 LINE",
"431 -109 LINE",
"438 -92 LINE",
"442 -75 LINE",
"443 -70 LINE",
"443 -59 LINE",
"445 -17 LINE",
"445 21 LINE",
"363 137 LINE",
"361 140 LINE",
"350 154 LINE",
"337 167 LINE",
"325 178 LINE",
"323 178 LINE",
"320 178 LINE",
"316 173 LINE",
"316 171 LINE",
"316 165 LINE",
"315 143 LINE",
"315 115 LINE",
"314 84 LINE",
"314 57 LINE",
"314 36 LINE",
"314 31 LINE",
"313 29 LINE",
"312 21 LINE",
"311 12 LINE",
"309 5 LINE",
"307 4 LINE",
"306 3 LINE",
"295 4 LINE",
"294 4 LINE",
"260 1 LINE",
"198 -3 LINE",
"163 -3 LINE",
"158 -3 LINE",
"140 -2 LINE",
"123 -2 LINE",
"110 -2 LINE",
"71 8 LINE",
"69 14 LINE",
"68 14 LINE",
"67 33 LINE",
"66 63 LINE",
"65 102 LINE",
"65 140 LINE",
"64 175 LINE",
"64 188 LINE",
"61 220 LINE",
"57 285 LINE",
"57 317 LINE",
"57 319 LINE",
"58 333 LINE",
"58 350 LINE",
"59 364 LINE",
"59 366 LINE",
"59 368 LINE",
"58 377 LINE",
"58 389 LINE",
"57 398 LINE",
"57 400 LINE",
"57 402 LINE",
"58 417 LINE",
"58 435 LINE",
"59 450 LINE",
"59 452 LINE",
"59 453 LINE",
"60 464 LINE",
"61 479 LINE",
"61 494 LINE",
"61 498 LINE",
"61 500 LINE",
"61 513 LINE",
"60 528 LINE",
"59 542 LINE",
"59 544 LINE",
"59 545 LINE",
"56 550 LINE",
"57 551 LINE",
"60 560 LINE",
"74 571 LINE",
"90 577 LINE",
"108 578 LINE",
"116 578 LINE",
"161 578 LINE",
"227 582 LINE",
"272 585 LINE",
"298 583 LINE",
"303 577 LINE",
"305 574 LINE",
"321 551 LINE",
"344 518 LINE",
"372 476 LINE",
"401 432 LINE",
"430 388 LINE",
"443 369 LINE",
"443 384 LINE",
"444 423 LINE",
"444 464 LINE",
"445 504 LINE",
"446 535 LINE",
"448 555 LINE",
"449 555 LINE",
"450 557 LINE",
"458 564 LINE",
"468 571 LINE",
"480 576 LINE",
"488 575 LINE",
"537 575 LINE",
"538 575 LINE",
"558 575 LINE",
"586 574 LINE",
"618 573 LINE",
"646 572 LINE",
"664 572 LINE",
"665 572 LINE",
"675 572 LINE",
"690 569 LINE",
"700 562 LINE",
"705 548 LINE",
"705 536 LINE",
"705 533 LINE",
"704 521 LINE",
"703 506 LINE",
"702 493 LINE",
"702 490 LINE",
"702 487 LINE",
"704 479 LINE",
"704 474 LINE",
"704 469 LINE",
"704 437 LINE",
"703 392 LINE",
"703 337 LINE",
"702 284 LINE",
"702 236 LINE",
"702 219 LINE",
"702 214 LINE",
"702 205 LINE",
"702 200 LINE",
"702 74 LINE",
"702 73 LINE",
"701 52 LINE",
"700 25 LINE",
"699 3 LINE",
"699 1 LINE",
"699 -19 LINE",
"697 -63 LINE",
"688 -106 LINE",
"670 -145 LINE"
);
}
);
width = 762;
}
);
unicode = 014B;
},
{
glyphname = o;
lastChange = "2016-07-07 13:40:12 +0000";
layers = (
{
anchors = (
{
name = bottom;
position = "{378, 0}";
},
{
name = center;
position = "{378, 289}";
},
{
name = ogonek;
position = "{570, 10}";
},
{
name = top;
position = "{378, 578}";
},
{
name = topright;
position = "{500, 588}";
}
);
layerId = UUID0;
paths = (
{
closed = 1;
nodes = (
"310 -21 LINE",
"287 -21 LINE",
"240 -12 LINE",
"216 -4 LINE",
"209 -4 LINE",
"205 -4 LINE",
"198 -2 LINE",
"189 3 LINE",
"174 12 LINE",
"161 20 LINE",
"129 38 LINE",
"84 100 LINE",
"57 170 LINE",
"44 244 LINE",
"44 274 LINE",
"44 312 LINE",
"61 390 LINE",
"92 461 LINE",
"138 524 LINE",
"196 571 LINE",
"267 598 LINE",
"307 598 LINE",
"316 598 LINE",
"334 598 LINE",
"343 596 LINE",
"344 597 LINE",
"349 597 LINE",
"350 597 LINE",
"390 597 LINE",
"450 595 LINE",
"500 588 LINE",
"542 575 LINE",
"562 564 LINE",
"602 538 LINE",
"658 480 LINE",
"695 413 LINE",
"713 332 LINE",
"713 283 LINE",
"713 236 LINE",
"690 146 LINE",
"668 105 LINE",
"667 102 LINE",
"661 93 LINE",
"656 84 LINE",
"651 78 LINE",
"644 74 LINE",
"620 38 LINE",
"551 -3 LINE",
"474 -21 LINE",
"391 -25 LINE",
"353 -25 LINE",
"342 -25 LINE",
"321 -21 LINE"
);
},
{
closed = 1;
nodes = (
"336 232 LINE",
"336 229 LINE",
"337 209 LINE",
"338 181 LINE",
"340 149 LINE",
"342 120 LINE",
"345 99 LINE",
"346 95 LINE",
"357 57 LINE",
"358 53 LINE",
"367 50 LINE",
"371 50 LINE",
"379 50 LINE",
"392 71 LINE",
"401 107 LINE",
"408 154 LINE",
"413 205 LINE",
"417 254 LINE",
"418 297 LINE",
"419 329 LINE",
"419 336 LINE",
"419 334 LINE",
"419 354 LINE",
"417 387 LINE",
"414 425 LINE",
"408 459 LINE",
"397 482 LINE",
"390 482 LINE",
"381 482 LINE",
"361 451 LINE",
"357 413 LINE",
"336 252 LINE"
);
}
);
width = 756;
}
);
unicode = 006F;
},
{
color = 9;
glyphname = ohorn;
lastChange = "2016-07-07 13:40:05 +0000";
layers = (
{
anchors = (
{
name = bottom;
position = "{378, 0}";
},
{
name = top;
position = "{378, 578}";
}
);
background = {
paths = (
{
closed = 1;
nodes = (
"310 -21 LINE",
"287 -21 LINE",
"240 -12 LINE",
"216 -4 LINE",
"209 -4 LINE",
"205 -4 LINE",
"198 -2 LINE",
"189 3 LINE",
"174 12 LINE",
"161 20 LINE",
"129 38 LINE",
"84 100 LINE",
"57 170 LINE",
"44 244 LINE",
"44 274 LINE",
"44 312 LINE",
"61 390 LINE",
"92 461 LINE",
"138 524 LINE",
"196 571 LINE",
"267 598 LINE",
"307 598 LINE",
"316 598 LINE",
"334 598 LINE",
"343 596 LINE",
"344 597 LINE",
"349 597 LINE",
"350 597 LINE",
"390 597 LINE",
"450 595 LINE",
"500 588 LINE",
"542 575 LINE",
"562 564 LINE",
"602 538 LINE",
"658 480 LINE",
"695 413 LINE",
"713 332 LINE",
"713 283 LINE",
"713 236 LINE",
"690 146 LINE",
"668 105 LINE",
"667 102 LINE",
"661 93 LINE",
"656 84 LINE",
"651 78 LINE",
"644 74 LINE",
"620 38 LINE",
"551 -3 LINE",
"474 -21 LINE",
"391 -25 LINE",
"353 -25 LINE",
"342 -25 LINE",
"321 -21 LINE"
);
},
{
closed = 1;
nodes = (
"336 232 LINE",
"336 229 LINE",
"337 209 LINE",
"338 181 LINE",
"340 149 LINE",
"342 120 LINE",
"345 99 LINE",
"346 95 LINE",
"357 57 LINE",
"358 53 LINE",
"367 50 LINE",
"371 50 LINE",
"379 50 LINE",
"392 71 LINE",
"401 107 LINE",
"408 154 LINE",
"413 205 LINE",
"417 254 LINE",
"418 297 LINE",
"419 329 LINE",
"419 336 LINE",
"419 334 LINE",
"419 354 LINE",
"417 387 LINE",
"414 425 LINE",
"408 459 LINE",
"397 482 LINE",
"390 482 LINE",
"381 482 LINE",
"361 451 LINE",
"357 413 LINE",
"336 252 LINE"
);
},
{
closed = 1;
nodes = (
"728 722 LINE",
"733 707 LINE",
"737 673 LINE",
"737 654 LINE",
"737 619 LINE",
"702 556 LINE",
"672 522 LINE",
"653 501 LINE",
"606 475 LINE",
"556 463 LINE",
"500 459 LINE",
"500 588 LINE",
"517 589 LINE",
"542 600 LINE",
"563 621 LINE",
"574 649 LINE",
"574 666 LINE",
"574 674 LINE",
"571 708 LINE",
"566 726 LINE"
);
}
);
};
layerId = UUID0;
paths = (
{
closed = 1;
nodes = (
"728 722 LINE",
"566 726 LINE",
"571 708 LINE",
"574 674 LINE",
"574 649 LINE",
"563 621 LINE",
"542 600 LINE",
"517 589 LINE",
"500 588 LINE",
"450 595 LINE",
"390 597 LINE",
"344 597 LINE",
"343 596 LINE",
"334 598 LINE",
"267 598 LINE",
"196 571 LINE",
"138 524 LINE",
"92 461 LINE",
"61 390 LINE",
"44 312 LINE",
"44 244 LINE",
"57 170 LINE",
"84 100 LINE",
"129 38 LINE",
"161 20 LINE",
"174 12 LINE",
"189 3 LINE",
"198 -2 LINE",
"205 -4 LINE",
"216 -4 LINE",
"240 -12 LINE",
"287 -21 LINE",
"321 -21 LINE",
"342 -25 LINE",
"391 -25 LINE",
"474 -21 LINE",
"551 -3 LINE",
"620 38 LINE",
"644 74 LINE",
"651 78 LINE",
"656 84 LINE",
"661 93 LINE",
"667 102 LINE",
"668 105 LINE",
"690 146 LINE",
"713 236 LINE",
"713 332 LINE",
"695 413 LINE",
"658 480 LINE",
"643 495 LINE",
"653 501 LINE",
"672 522 LINE",
"702 556 LINE",
"737 619 LINE",
"737 673 LINE",
"733 707 LINE"
);
},
{
closed = 1;
nodes = (
"419 329 LINE",
"418 297 LINE",
"417 254 LINE",
"413 205 LINE",
"408 154 LINE",
"401 107 LINE",
"392 71 LINE",
"379 50 LINE",
"367 50 LINE",
"358 53 LINE",
"357 57 LINE",
"346 95 LINE",
"345 99 LINE",
"342 120 LINE",
"340 149 LINE",
"338 181 LINE",
"337 209 LINE",
"336 229 LINE",
"336 252 LINE",
"357 413 LINE",
"361 451 LINE",
"381 482 LINE",
"397 482 LINE",
"408 459 LINE",
"414 425 LINE",
"417 387 LINE",
"419 354 LINE"
);
}
);
width = 756;
}
);
unicode = 01A1;
},
{
glyphname = oslash;
lastChange = "2016-07-07 09:02:42 +0000";
layers = (
{
anchors = (
{
name = top;
position = "{446, 578}";
}
);
layerId = UUID0;
paths = (
{
closed = 1;
nodes = (
"372 -21 LINE",
"349 -21 LINE",
"302 -12 LINE",
"277 -4 LINE",
"271 -4 LINE",
"266 -4 LINE",
"260 -2 LINE",
"250 3 LINE",
"236 12 LINE",
"223 20 LINE",
"197 35 LINE",
"177 58 LINE",
"153 42 LINE",
"115 21 LINE",
"103 19 LINE",
"94 23 LINE",
"83 30 LINE",
"79 33 LINE",
"71 43 LINE",
"63 52 LINE",
"63 53 LINE",
"53 61 LINE",
"48 73 LINE",
"53 83 LINE",
"63 93 LINE",
"69 97 LINE",
"130 140 LINE",
"117 174 LINE",
"105 244 LINE",
"105 274 LINE",
"105 312 LINE",
"122 390 LINE",
"153 461 LINE",
"199 524 LINE",
"258 571 LINE",
"328 598 LINE",
"369 598 LINE",
"377 598 LINE",
"396 598 LINE",
"404 596 LINE",
"406 597 LINE",
"410 597 LINE",
"412 597 LINE",
"451 597 LINE",
"512 595 LINE",
"561 588 LINE",
"603 575 LINE",
"624 564 LINE",
"646 549 LINE",
"683 519 LINE",
"698 501 LINE",
"776 547 LINE",
"783 550 LINE",
"793 546 LINE",
"797 542 LINE",
"801 539 LINE",
"816 524 LINE",
"823 521 LINE",
"833 513 LINE",
"845 502 LINE",
"842 489 LINE",
"822 470 LINE",
"801 454 LINE",
"794 450 LINE",
"786 445 LINE",
"779 441 LINE",
"760 431 LINE",
"749 424 LINE",
"774 364 LINE",
"774 283 LINE",
"774 236 LINE",
"752 146 LINE",
"729 105 LINE",
"728 102 LINE",
"723 93 LINE",
"717 84 LINE",
"713 78 LINE",
"712 78 LINE",
"706 74 LINE",
"681 38 LINE",
"613 -3 LINE",
"535 -21 LINE",
"453 -25 LINE",
"415 -25 LINE",
"403 -25 LINE",
"383 -21 LINE"
);
},
{
closed = 1;
nodes = (
"398 206 LINE",
"399 192 LINE",
"401 157 LINE",
"404 124 LINE",
"406 99 LINE",
"407 95 LINE",
"418 57 LINE",
"419 53 LINE",
"429 50 LINE",
"433 50 LINE",
"443 50 LINE",
"459 91 LINE",
"470 153 LINE",
"477 226 LINE",
"478 258 LINE"
);
},
{
closed = 1;
nodes = (
"448 356 LINE",
"479 374 LINE",
"479 390 LINE",
"475 428 LINE",
"469 460 LINE",
"459 482 LINE",
"452 482 LINE",
"442 482 LINE",
"423 451 LINE",
"418 413 LINE",
"407 329 LINE"
);
}
);
width = 892;
}
);
unicode = 00F8;
},
{
glyphname = oe;
lastChange = "2016-07-07 09:02:53 +0000";
layers = (
{
anchors = (
{
name = bottom;
position = "{492, 0}";
},
{
name = top;
position = "{492, 578}";
}
);
layerId = UUID0;
paths = (
{
closed = 1;
nodes = (
"356 -5 LINE",
"332 -5 LINE",
"284 -7 LINE",
"236 -4 LINE",
"189 7 LINE",
"165 20 LINE",
"132 38 LINE",
"88 100 LINE",
"60 170 LINE",
"47 244 LINE",
"47 274 LINE",
"47 310 LINE",
"64 382 LINE",
"95 450 LINE",
"141 509 LINE",
"200 553 LINE",
"270 579 LINE",
"311 579 LINE",
"319 579 LINE",
"337 578 LINE",
"346 577 LINE",
"348 578 LINE",
"352 578 LINE",
"354 578 LINE",
"386 578 LINE",
"437 578 LINE",
"479 578 LINE",
"516 578 LINE",
"535 578 LINE",
"570 577 LINE",
"638 573 LINE",
"674 573 LINE",
"696 573 LINE",
"746 574 LINE",
"796 576 LINE",
"845 577 LINE",
"867 577 LINE",
"898 577 LINE",
"907 577 LINE",
"916 558 LINE",
"923 529 LINE",
"928 494 LINE",
"932 478 LINE",
"934 467 LINE",
"927 456 LINE",
"914 451 LINE",
"898 450 LINE",
"891 450 LINE",
"875 450 LINE",
"846 449 LINE",
"829 447 LINE",
"822 446 LINE",
"793 446 LINE",
"761 446 LINE",
"732 442 LINE",
"726 437 LINE",
"726 440 LINE",
"722 440 LINE",
"716 420 LINE",
"711 395 LINE",
"709 369 LINE",
"709 363 LINE",
"709 351 LINE",
"715 344 LINE",
"723 344 LINE",
"726 344 LINE",
"731 346 LINE",
"733 347 LINE",
"734 347 LINE",
"742 345 LINE",
"744 344 LINE",
"829 344 LINE",
"830 345 LINE",
"834 347 LINE",
"836 347 LINE",
"844 348 LINE",
"857 342 LINE",
"863 341 LINE",
"870 340 LINE",
"880 339 LINE",
"887 336 LINE",
"892 328 LINE",
"894 320 LINE",
"915 254 LINE",
"917 245 LINE",
"900 235 LINE",
"871 230 LINE",
"832 229 LINE",
"812 229 LINE",
"768 229 LINE",
"750 229 LINE",
"727 229 LINE",
"711 225 LINE",
"705 214 LINE",
"705 204 LINE",
"705 202 LINE",
"705 198 LINE",
"706 196 LINE",
"706 194 LINE",
"706 193 LINE",
"706 188 LINE",
"705 177 LINE",
"705 171 LINE",
"704 166 LINE",
"703 159 LINE",
"703 155 LINE",
"704 145 LINE",
"704 135 LINE",
"704 127 LINE",
"704 125 LINE",
"750 125 LINE",
"842 131 LINE",
"887 131 LINE",
"890 131 LINE",
"894 122 LINE",
"896 110 LINE",
"897 96 LINE",
"898 92 LINE",
"900 82 LINE",
"904 68 LINE",
"907 55 LINE",
"909 38 LINE",
"909 26 LINE",
"909 25 LINE",
"908 21 LINE",
"908 20 LINE",
"908 18 LINE",
"908 15 LINE",
"901 8 LINE",
"899 7 LINE",
"897 7 LINE",
"896 7 LINE",
"892 7 LINE",
"891 7 LINE",
"858 7 LINE",
"800 4 LINE",
"764 4 LINE",
"695 4 LINE",
"591 2 LINE",
"511 0 LINE",
"452 -2 LINE",
"407 -4 LINE",
"373 -5 LINE"
);
},
{
closed = 1;
nodes = (
"422 345 LINE",
"422 353 LINE",
"422 379 LINE",
"422 410 LINE",
"422 441 LINE",
"422 466 LINE",
"423 482 LINE",
"414 482 LINE",
"394 475 LINE",
"376 459 LINE",
"362 433 LINE",
"360 413 LINE",
"346 283 LINE",
"346 281 LINE",
"345 255 LINE",
"345 218 LINE",
"346 174 LINE",
"349 134 LINE",
"355 103 LINE",
"360 96 LINE",
"362 87 LINE",
"375 76 LINE",
"394 71 LINE",
"414 69 LINE",
"423 69 LINE",
"423 99 LINE",
"422 146 LINE",
"422 205 LINE",
"422 261 LINE",
"422 310 LINE",
"422 324 LINE",
"422 341 LINE"
);
}
);
width = 984;
}
);
unicode = 0153;
},
{
glyphname = p;
lastChange = "2016-07-07 09:02:56 +0000";
layers = (
{
anchors = (
{
name = bottom;
position = "{371, 0}";
},
{
name = top;
position = "{371, 578}";
}
);
layerId = UUID0;
paths = (
{
closed = 1;
nodes = (
"58 557 LINE",
"58 565 LINE",
"73 580 LINE",
"81 580 LINE",
"139 580 LINE",
"223 578 LINE",
"254 578 LINE",
"301 578 LINE",
"408 581 LINE",
"473 581 LINE",
"497 581 LINE",
"551 574 LINE",
"604 558 LINE",
"653 529 LINE",
"690 484 LINE",
"713 422 LINE",
"713 381 LINE",
"713 313 LINE",
"678 218 LINE",
"614 160 LINE",
"524 134 LINE",
"469 134 LINE",
"350 134 LINE",
"350 108 LINE",
"346 85 LINE",
"346 84 LINE",
"346 83 LINE",
"347 71 LINE",
"349 57 LINE",
"350 45 LINE",
"350 44 LINE",
"350 28 LINE",
"344 11 LINE",
"332 2 LINE",
"313 0 LINE",
"302 0 LINE",
"271 0 LINE",
"226 -1 LINE",
"180 -2 LINE",
"125 -3 LINE",
"86 -3 LINE",
"78 -3 LINE",
"68 7 LINE",
"64 23 LINE",
"63 42 LINE",
"63 51 LINE",
"63 71 LINE",
"62 142 LINE",
"60 228 LINE",
"58 323 LINE",
"58 366 LINE"
);
},
{
closed = 1;
nodes = (
"357 241 LINE",
"357 240 LINE",
"362 240 LINE",
"366 239 LINE",
"382 239 LINE",
"397 239 LINE",
"407 239 LINE",
"420 258 LINE",
"429 289 LINE",
"434 326 LINE",
"436 362 LINE",
"436 392 LINE",
"436 400 LINE",
"436 401 LINE",
"436 417 LINE",
"434 438 LINE",
"429 463 LINE",
"420 484 LINE",
"407 498 LINE",
"397 498 LINE",
"390 498 LINE",
"378 476 LINE",
"370 440 LINE",
"364 394 LINE",
"362 370 LINE",
"357 313 LINE"
);
}
);
width = 741;
}
);
unicode = 0070;
},
{
glyphname = thorn;
lastChange = "2016-07-07 09:02:58 +0000";
layers = (
{
anchors = (
{
name = bottom;
position = "{362, 0}";
},
{
name = top;
position = "{362, 578}";
}
);
layerId = UUID0;
paths = (
{
closed = 1;
nodes = (
"59 626 LINE",
"59 635 LINE",
"60 654 LINE",
"64 669 LINE",
"73 680 LINE",
"82 680 LINE",
"120 680 LINE",
"174 679 LINE",
"219 678 LINE",
"263 677 LINE",
"292 677 LINE",
"304 677 LINE",
"322 674 LINE",
"334 666 LINE",
"341 648 LINE",
"341 633 LINE",
"341 631 LINE",
"341 620 LINE",
"341 606 LINE",
"341 594 LINE",
"341 593 LINE",
"341 592 LINE",
"341 564 LINE",
"340 545 LINE",
"370 546 LINE",
"433 547 LINE",
"468 547 LINE",
"492 547 LINE",
"546 540 LINE",
"600 523 LINE",
"648 495 LINE",
"686 450 LINE",
"708 388 LINE",
"708 347 LINE",
"708 278 LINE",
"673 184 LINE",
"609 125 LINE",
"520 100 LINE",
"464 100 LINE",
"340 100 LINE",
"340 62 LINE",
"341 27 LINE",
"341 25 LINE",
"341 24 LINE",
"343 12 LINE",
"344 -1 LINE",
"346 -13 LINE",
"346 -15 LINE",
"346 -30 LINE",
"339 -48 LINE",
"327 -57 LINE",
"309 -59 LINE",
"297 -59 LINE",
"267 -59 LINE",
"222 -60 LINE",
"176 -61 LINE",
"121 -62 LINE",
"82 -62 LINE",
"73 -62 LINE",
"64 -52 LINE",
"60 -36 LINE",
"59 -17 LINE",
"59 -8 LINE"
);
},
{
closed = 1;
nodes = (
"353 207 LINE",
"353 206 LINE",
"357 206 LINE",
"361 205 LINE",
"377 205 LINE",
"393 205 LINE",
"402 205 LINE",
"416 224 LINE",
"424 254 LINE",
"429 292 LINE",
"431 328 LINE",
"432 358 LINE",
"432 366 LINE",
"432 367 LINE",
"431 383 LINE",
"427 404 LINE",
"419 429 LINE",
"404 450 LINE",
"380 464 LINE",
"363 464 LINE",
"361 464 LINE",
"358 442 LINE",
"356 406 LINE",
"354 359 LINE",
"354 335 LINE",
"353 279 LINE"
);
}
);
width = 724;
}
);
unicode = 00FE;
},
{
glyphname = q;
lastChange = "2016-07-07 09:03:00 +0000";
layers = (
{
anchors = (
{
name = bottom;
position = "{375, 0}";
},
{
name = top;
position = "{375, 578}";
}
);
layerId = UUID0;
paths = (
{
closed = 1;
nodes = (
"710 301 LINE",
"710 229 LINE",
"688 123 LINE",
"646 48 LINE",
"585 1 LINE",
"548 -12 LINE",
"558 -25 LINE",
"579 -54 LINE",
"595 -81 LINE",
"606 -103 LINE",
"606 -109 LINE",
"605 -118 LINE",
"588 -134 LINE",
"564 -149 LINE",
"539 -162 LINE",
"531 -168 LINE",
"522 -170 LINE",
"507 -176 LINE",
"497 -178 LINE",
"496 -180 LINE",
"476 -186 LINE",
"453 -193 LINE",
"433 -197 LINE",
"431 -197 LINE",
"430 -201 LINE",
"424 -200 LINE",
"424 -201 LINE",
"423 -201 LINE",
"420 -201 LINE",
"413 -197 LINE",
"401 -188 LINE",
"394 -180 LINE",
"392 -175 LINE",
"389 -175 LINE",
"388 -175 LINE",
"387 -174 LINE",
"385 -173 LINE",
"383 -169 LINE",
"313 -54 LINE",
"312 -52 LINE",
"305 -39 LINE",
"300 -31 LINE",
"264 -28 LINE",
"196 -15 LINE",
"137 12 LINE",
"87 54 LINE",
"51 118 LINE",
"31 206 LINE",
"31 264 LINE",
"31 354 LINE",
"71 482 LINE",
"157 564 LINE",
"292 602 LINE",
"387 602 LINE",
"419 602 LINE",
"492 592 LINE",
"563 566 LINE",
"629 522 LINE",
"680 455 LINE",
"710 362 LINE"
);
},
{
closed = 1;
nodes = (
"331 277 LINE",
"331 263 LINE",
"332 220 LINE",
"333 169 LINE",
"338 118 LINE",
"347 77 LINE",
"361 51 LINE",
"371 51 LINE",
"381 51 LINE",
"395 80 LINE",
"404 126 LINE",
"409 183 LINE",
"411 237 LINE",
"411 282 LINE",
"411 294 LINE",
"411 298 LINE",
"411 334 LINE",
"409 384 LINE",
"404 440 LINE",
"395 487 LINE",
"381 518 LINE",
"371 518 LINE",
"361 518 LINE",
"347 497 LINE",
"338 461 LINE",
"333 414 LINE",
"332 360 LINE",
"331 304 LINE"
);
}
);
width = 750;
}
);
unicode = 0071;
},
{
glyphname = r;
lastChange = "2016-07-07 09:03:10 +0000";
layers = (
{
anchors = (
{
name = bottom;
position = "{375, 0}";
},
{
name = top;
position = "{375, 578}";
}
);
layerId = UUID0;
paths = (
{
closed = 1;
nodes = (
"652 58 LINE",
"651 54 LINE",
"630 40 LINE",
"602 23 LINE",
"570 6 LINE",
"542 -6 LINE",
"521 -13 LINE",
"520 -11 LINE",
"498 10 LINE",
"462 51 LINE",
"427 100 LINE",
"387 163 LINE",
"360 206 LINE",
"359 208 LINE",
"358 208 LINE",
"355 208 LINE",
"349 206 LINE",
"348 195 LINE",
"347 158 LINE",
"347 113 LINE",
"345 68 LINE",
"343 30 LINE",
"340 7 LINE",
"337 7 LINE",
"334 7 LINE",
"328 8 LINE",
"327 8 LINE",
"286 5 LINE",
"208 0 LINE",
"167 0 LINE",
"161 0 LINE",
"143 0 LINE",
"125 0 LINE",
"111 1 LINE",
"80 11 LINE",
"77 18 LINE",
"76 18 LINE",
"74 38 LINE",
"72 69 LINE",
"69 109 LINE",
"66 149 LINE",
"63 186 LINE",
"63 199 LINE",
"61 226 LINE",
"56 283 LINE",
"56 309 LINE",
"56 311 LINE",
"57 326 LINE",
"58 343 LINE",
"59 358 LINE",
"59 360 LINE",
"59 361 LINE",
"58 372 LINE",
"57 383 LINE",
"56 394 LINE",
"56 395 LINE",
"56 408 LINE",
"57 430 LINE",
"58 452 LINE",
"60 479 LINE",
"60 497 LINE",
"60 500 LINE",
"59 514 LINE",
"59 528 LINE",
"59 542 LINE",
"59 545 LINE",
"58 546 LINE",
"56 549 LINE",
"56 551 LINE",
"56 559 LINE",
"70 569 LINE",
"91 574 LINE",
"112 575 LINE",
"118 575 LINE",
"235 575 LINE",
"407 567 LINE",
"528 550 LINE",
"605 523 LINE",
"649 484 LINE",
"665 432 LINE",
"665 399 LINE",
"665 366 LINE",
"646 320 LINE",
"619 291 LINE",
"591 274 LINE",
"584 270 LINE",
"588 258 LINE",
"607 227 LINE",
"631 193 LINE",
"657 161 LINE",
"679 132 LINE",
"694 109 LINE",
"696 104 LINE",
"705 100 LINE",
"694 85 LINE",
"684 77 LINE",
"671 68 LINE"
);
},
{
closed = 1;
nodes = (
"342 465 LINE",
"341 434 LINE",
"338 372 LINE",
"338 341 LINE",
"345 341 LINE",
"363 343 LINE",
"381 348 LINE",
"397 354 LINE",
"402 358 LINE",
"410 362 LINE",
"423 372 LINE",
"434 384 LINE",
"440 398 LINE",
"440 407 LINE",
"440 422 LINE",
"431 445 LINE",
"416 458 LINE",
"396 465 LINE",
"386 465 LINE",
"359 465 LINE"
);
}
);
width = 750;
}
);
unicode = 0072;
},
{
glyphname = s;
lastChange = "2016-07-07 10:30:07 +0000";
layers = (
{
anchors = (
{
name = bottom;
position = "{303, 0}";
},
{
name = top;
position = "{310, 578}";
}
);
layerId = UUID0;
paths = (
{
closed = 1;
nodes = (
"42 140 LINE",
"42 146 LINE",
"45 154 LINE",
"51 155 LINE",
"117 130 LINE",
"179 130 LINE",
"193 130 LINE",
"227 129 LINE",
"255 133 LINE",
"274 144 LINE",
"274 156 LINE",
"274 173 LINE",
"251 193 LINE",
"219 208 LINE",
"184 218 LINE",
"171 224 LINE",
"170 225 LINE",
"164 229 LINE",
"155 234 LINE",
"146 240 LINE",
"145 241 LINE",
"149 241 LINE",
"139 246 LINE",
"124 255 LINE",
"109 266 LINE",
"109 272 LINE",
"109 277 LINE",
"95 277 LINE",
"74 308 LINE",
"59 351 LINE",
"51 393 LINE",
"51 405 LINE",
"51 456 LINE",
"95 525 LINE",
"167 571 LINE",
"260 597 LINE",
"359 608 LINE",
"455 611 LINE",
"494 611 LINE",
"507 607 LINE",
"525 604 LINE",
"537 598 LINE",
"543 585 LINE",
"547 559 LINE",
"550 515 LINE",
"551 480 LINE",
"555 473 LINE",
"543 464 LINE",
"518 459 LINE",
"482 456 LINE",
"444 452 LINE",
"407 445 LINE",
"377 432 LINE",
"359 413 LINE",
"359 398 LINE",
"359 391 LINE",
"363 383 LINE",
"371 378 LINE",
"397 365 LINE",
"448 341 LINE",
"495 315 LINE",
"534 287 LINE",
"563 251 LINE",
"580 207 LINE",
"580 179 LINE",
"580 166 LINE",
"577 143 LINE",
"572 131 LINE",
"560 98 LINE",
"508 42 LINE",
"442 3 LINE",
"368 -20 LINE",
"333 -20 LINE",
"186 -23 LINE",
"183 -21 LINE",
"164 -18 LINE",
"138 -14 LINE",
"108 -8 LINE",
"83 -1 LINE",
"66 7 LINE",
"65 11 LINE",
"42 135 LINE"
);
}
);
width = 620;
}
);
unicode = 0073;
},
{
glyphname = germandbls;
lastChange = "2016-07-07 12:11:28 +0000";
layers = (
{
layerId = UUID0;
paths = (
{
closed = 1;
nodes = (
"391 185 LINE",
"414 189 LINE",
"460 194 LINE",
"484 198 LINE",
"495 200 LINE",
"505 217 LINE",
"505 225 LINE",
"505 234 LINE",
"491 237 LINE",
"466 252 LINE",
"423 264 LINE",
"399 265 LINE",
"400 368 LINE",
"404 370 LINE",
"415 375 LINE",
"425 381 LINE",
"432 385 LINE",
"433 385 LINE",
"437 386 LINE",
"450 390 LINE",
"461 398 LINE",
"468 413 LINE",
"468 425 LINE",
"468 433 LINE",
"447 443 LINE",
"418 447 LINE",
"388 449 LINE",
"381 449 LINE",
"368 449 LINE",
"353 439 LINE",
"346 422 LINE",
"344 401 LINE",
"344 389 LINE",
"344 388 LINE",
"344 378 LINE",
"344 363 LINE",
"345 345 LINE",
"345 329 LINE",
"345 318 LINE",
"344 268 LINE",
"344 265 LINE",
"344 246 LINE",
"346 225 LINE",
"347 206 LINE",
"347 204 LINE",
"347 160 LINE",
"347 143 LINE",
"345 113 LINE",
"344 85 LINE",
"344 55 LINE",
"344 37 LINE",
"343 34 LINE",
"339 24 LINE",
"334 15 LINE",
"328 8 LINE",
"324 8 LINE",
"313 6 LINE",
"297 4 LINE",
"283 3 LINE",
"269 3 LINE",
"258 3 LINE",
"202 3 LINE",
"126 3 LINE",
"81 6 LINE",
"61 13 LINE",
"61 20 LINE",
"61 25 LINE",
"62 50 LINE",
"62 82 LINE",
"63 118 LINE",
"64 148 LINE",
"64 172 LINE",
"64 176 LINE",
"64 195 LINE",
"62 232 LINE",
"59 269 LINE",
"57 305 LINE",
"57 325 LINE",
"57 392 LINE",
"77 484 LINE",
"114 543 LINE",
"165 575 LINE",
"227 589 LINE",
"297 592 LINE",
"333 592 LINE",
"346 592 LINE",
"358 592 LINE",
"365 591 LINE",
"369 591 LINE",
"376 590 LINE",
"388 590 LINE",
"401 590 LINE",
"425 587 LINE",
"481 579 LINE",
"538 566 LINE",
"591 544 LINE",
"632 511 LINE",
"656 463 LINE",
"656 430 LINE",
"656 398 LINE",
"631 354 LINE",
"606 338 LINE",
"598 334 LINE",
"580 329 LINE",
"577 324 LINE",
"579 321 LINE",
"619 313 LINE",
"675 287 LINE",
"710 245 LINE",
"728 185 LINE",
"731 144 LINE",
"732 140 LINE",
"733 131 LINE",
"733 126 LINE",
"733 110 LINE",
"720 76 LINE",
"689 45 LINE",
"639 19 LINE",
"564 -1 LINE",
"461 -12 LINE",
"394 -12 LINE",
"391 -12 LINE"
);
}
);
width = 774;
}
);
leftMetricsKey = h;
rightMetricsKey = b;
unicode = 00DF;
},
{
glyphname = Germandbls;
lastChange = "2016-07-07 12:11:00 +0000";
layers = (
{
layerId = UUID0;
paths = (
{
closed = 1;
nodes = (
"446 219 LINE",
"473 224 LINE",
"526 229 LINE",
"554 234 LINE",
"567 236 LINE",
"579 256 LINE",
"579 266 LINE",
"579 276 LINE",
"563 280 LINE",
"534 298 LINE",
"483 312 LINE",
"455 313 LINE",
"456 433 LINE",
"461 436 LINE",
"474 442 LINE",
"485 449 LINE",
"494 453 LINE",
"495 453 LINE",
"500 455 LINE",
"515 459 LINE",
"528 469 LINE",
"536 486 LINE",
"536 500 LINE",
"536 510 LINE",
"511 521 LINE",
"477 526 LINE",
"442 528 LINE",
"434 528 LINE",
"418 528 LINE",
"401 517 LINE",
"393 497 LINE",
"391 472 LINE",
"391 458 LINE",
"391 457 LINE",
"391 445 LINE",
"391 427 LINE",
"392 406 LINE",
"392 388 LINE",
"392 375 LINE",
"390 316 LINE",
"390 313 LINE",
"391 291 LINE",
"393 266 LINE",
"394 244 LINE",
"394 241 LINE",
"394 190 LINE",
"394 170 LINE",
"392 135 LINE",
"391 102 LINE",
"390 67 LINE",
"390 46 LINE",
"389 42 LINE",
"385 30 LINE",
"379 20 LINE",
"372 12 LINE",
"367 12 LINE",
"354 9 LINE",
"335 7 LINE",
"319 5 LINE",
"302 5 LINE",
"290 5 LINE",
"224 5 LINE",
"135 5 LINE",
"82 9 LINE",
"59 17 LINE",
"59 25 LINE",
"59 31 LINE",
"60 61 LINE",
"60 98 LINE",
"61 140 LINE",
"62 176 LINE",
"62 204 LINE",
"62 208 LINE",
"62 231 LINE",
"60 274 LINE",
"56 317 LINE",
"54 360 LINE",
"54 383 LINE",
"54 461 LINE",
"78 569 LINE",
"121 638 LINE",
"181 676 LINE",
"253 693 LINE",
"335 696 LINE",
"378 696 LINE",
"393 696 LINE",
"407 696 LINE",
"415 695 LINE",
"420 695 LINE",
"428 694 LINE",
"442 694 LINE",
"457 694 LINE",
"485 690 LINE",
"551 681 LINE",
"618 665 LINE",
"680 640 LINE",
"728 601 LINE",
"756 545 LINE",
"756 506 LINE",
"756 469 LINE",
"727 417 LINE",
"697 398 LINE",
"688 394 LINE",
"667 388 LINE",
"663 382 LINE",
"666 378 LINE",
"713 369 LINE",
"778 338 LINE",
"819 289 LINE",
"840 219 LINE",
"844 171 LINE",
"845 166 LINE",
"846 156 LINE",
"846 150 LINE",
"846 131 LINE",
"831 91 LINE",
"795 55 LINE",
"736 24 LINE",
"648 1 LINE",
"528 -12 LINE",
"449 -12 LINE",
"446 -12 LINE"
);
}
);
width = 885;
}
);
},
{
color = 9;
glyphname = schwa;
lastChange = "2016-07-07 12:24:02 +0000";
layers = (
{
layerId = UUID0;
paths = (
{
closed = 1;
nodes = (
"622 513 LINE",
"558 555 LINE",
"488 580 LINE",
"418 590 LINE",
"244 590 LINE",
"86 567 LINE",
"70 547 LINE",
"70 424 LINE",
"85 408 LINE",
"193 428 LINE",
"267 431 LINE",
"290 431 LINE",
"359 417 LINE",
"398 385 LINE",
"404 366 LINE",
"409 332 LINE",
"410 300 LINE",
"374 297 LINE",
"270 296 LINE",
"52 292 LINE",
"44 282 LINE",
"44 197 LINE",
"70 103 LINE",
"117 39 LINE",
"182 2 LINE",
"255 -18 LINE",
"337 -24 LINE",
"427 -24 LINE",
"511 -14 LINE",
"583 13 LINE",
"639 58 LINE",
"679 131 LINE",
"700 231 LINE",
"700 359 LINE",
"671 448 LINE"
);
},
{
closed = 1;
nodes = (
"404 116 LINE",
"395 80 LINE",
"381 58 LINE",
"362 58 LINE",
"349 78 LINE",
"340 109 LINE",
"336 148 LINE",
"334 180 LINE",
"334 202 LINE",
"363 201 LINE",
"411 204 LINE",
"411 193 LINE",
"409 158 LINE"
);
}
);
width = 743;
}
);
leftMetricsKey = o;
rightMetricsKey = o;
unicode = 0259;
},
{
glyphname = t;
lastChange = "2016-07-07 09:03:29 +0000";
layers = (
{
anchors = (
{
name = bottom;
position = "{327, 0}";
},
{
name = center;
position = "{327, 289}";
},
{
name = top;
position = "{327, 578}";
},
{
name = topright;
position = "{633, 578}";
}
);
layerId = UUID0;
paths = (
{
closed = 1;
nodes = (
"168 384 LINE",
"69 384 LINE",
"57 384 LINE",
"43 413 LINE",
"37 454 LINE",
"36 498 LINE",
"36 512 LINE",
"36 516 LINE",
"37 536 LINE",
"38 558 LINE",
"39 576 LINE",
"42 580 LINE",
"51 579 LINE",
"71 579 LINE",
"81 579 LINE",
"114 579 LINE",
"180 580 LINE",
"213 580 LINE",
"217 580 LINE",
"246 580 LINE",
"285 580 LINE",
"330 580 LINE",
"371 579 LINE",
"404 579 LINE",
"413 579 LINE",
"414 580 LINE",
"422 581 LINE",
"430 582 LINE",
"438 582 LINE",
"439 582 LINE",
"453 582 LINE",
"482 579 LINE",
"498 579 LINE",
"505 579 LINE",
"542 580 LINE",
"563 580 LINE",
"575 580 LINE",
"596 580 LINE",
"612 578 LINE",
"622 575 LINE",
"622 573 LINE",
"622 402 LINE",
"622 396 LINE",
"609 382 LINE",
"604 381 LINE",
"573 388 LINE",
"511 388 LINE",
"480 388 LINE",
"471 388 LINE",
"461 366 LINE",
"458 334 LINE",
"458 299 LINE",
"458 287 LINE",
"458 272 LINE",
"459 243 LINE",
"459 230 LINE",
"459 213 LINE",
"457 174 LINE",
"454 135 LINE",
"451 98 LINE",
"451 83 LINE",
"451 49 LINE",
"447 15 LINE",
"436 0 LINE",
"415 -1 LINE",
"397 -3 LINE",
"371 -3 LINE",
"326 -2 LINE",
"279 -2 LINE",
"223 -2 LINE",
"185 -2 LINE",
"180 4 LINE",
"174 29 LINE",
"171 67 LINE",
"169 115 LINE",
"169 144 LINE",
"169 194 LINE",
"171 314 LINE",
"171 381 LINE"
);
}
);
width = 653;
}
);
unicode = 0074;
},
{
glyphname = tbar;
lastChange = "2016-07-07 09:03:37 +0000";
layers = (
{
layerId = UUID0;
paths = (
{
closed = 1;
nodes = (
"168 384 LINE",
"69 384 LINE",
"57 384 LINE",
"43 413 LINE",
"37 454 LINE",
"36 498 LINE",
"36 512 LINE",
"36 516 LINE",
"37 536 LINE",
"38 558 LINE",
"39 576 LINE",
"42 580 LINE",
"51 579 LINE",
"61 579 LINE",
"81 579 LINE",
"114 579 LINE",
"180 580 LINE",
"213 580 LINE",
"231 580 LINE",
"246 580 LINE",
"285 580 LINE",
"330 580 LINE",
"371 579 LINE",
"388 579 LINE",
"413 579 LINE",
"414 580 LINE",
"422 581 LINE",
"430 582 LINE",
"438 582 LINE",
"439 582 LINE",
"453 582 LINE",
"482 579 LINE",
"498 579 LINE",
"505 579 LINE",
"542 580 LINE",
"563 580 LINE",
"575 580 LINE",
"596 580 LINE",
"612 578 LINE",
"622 575 LINE",
"622 573 LINE",
"622 402 LINE",
"622 396 LINE",
"609 382 LINE",
"604 381 LINE",
"573 388 LINE",
"511 388 LINE",
"480 388 LINE",
"471 388 LINE",
"461 366 LINE",
"458 334 LINE",
"458 316 LINE",
"458 315 LINE",
"474 315 LINE",
"479 315 LINE",
"488 315 LINE",
"507 314 LINE",
"523 309 LINE",
"534 299 LINE",
"534 291 LINE",
"534 276 LINE",
"535 258 LINE",
"535 245 LINE",
"536 235 LINE",
"536 223 LINE",
"537 205 LINE",
"537 191 LINE",
"537 182 LINE",
"536 163 LINE",
"531 147 LINE",
"521 136 LINE",
"513 136 LINE",
"493 136 LINE",
"479 137 LINE",
"465 137 LINE",
"454 137 LINE",
"453 126 LINE",
"452 116 LINE",
"451 98 LINE",
"451 83 LINE",
"451 49 LINE",
"447 15 LINE",
"436 0 LINE",
"415 -1 LINE",
"397 -3 LINE",
"371 -3 LINE",
"326 -2 LINE",
"279 -2 LINE",
"223 -2 LINE",
"185 -2 LINE",
"180 4 LINE",
"174 29 LINE",
"171 67 LINE",
"170 91 LINE",
"169 114 LINE",
"169 140 LINE",
"167 140 LINE",
"153 140 LINE",
"131 144 LINE",
"117 155 LINE",
"117 167 LINE",
"117 187 LINE",
"117 217 LINE",
"117 246 LINE",
"116 276 LINE",
"116 296 LINE",
"116 300 LINE",
"121 309 LINE",
"128 315 LINE",
"136 320 LINE",
"140 320 LINE",
"171 320 LINE",
"171 350 LINE",
"171 381 LINE"
);
}
);
width = 653;
}
);
unicode = 0167;
},
{
glyphname = u;
lastChange = "2016-07-07 13:33:31 +0000";
layers = (
{
anchors = (
{
name = bottom;
position = "{400, 0}";
},
{
name = ogonek;
position = "{710, 10}";
},
{
name = top;
position = "{400, 578}";
},
{
name = topright;
position = "{610, 576}";
}
);
layerId = UUID0;
paths = (
{
closed = 1;
nodes = (
"475 3 LINE",
"469 6 LINE",
"463 20 LINE",
"458 34 LINE",
"454 45 LINE",
"451 45 LINE",
"445 45 LINE",
"433 39 LINE",
"420 29 LINE",
"408 19 LINE",
"402 14 LINE",
"388 6 LINE",
"354 -5 LINE",
"323 -12 LINE",
"298 -14 LINE",
"292 -14 LINE",
"275 -14 LINE",
"242 -16 LINE",
"208 -15 LINE",
"174 -9 LINE",
"158 -3 LINE",
"131 7 LINE",
"97 50 LINE",
"76 104 LINE",
"67 165 LINE",
"64 224 LINE",
"65 276 LINE",
"65 294 LINE",
"65 298 LINE",
"66 317 LINE",
"66 337 LINE",
"66 354 LINE",
"66 356 LINE",
"69 363 LINE",
"71 382 LINE",
"72 412 LINE",
"74 450 LINE",
"75 486 LINE",
"76 517 LINE",
"76 526 LINE",
"76 536 LINE",
"73 553 LINE",
"73 563 LINE",
"73 573 LINE",
"92 578 LINE",
"104 578 LINE",
"118 578 LINE",
"123 578 LINE",
"131 579 LINE",
"134 580 LINE",
"256 578 LINE",
"256 577 LINE",
"259 575 LINE",
"260 575 LINE",
"267 578 LINE",
"292 578 LINE",
"325 574 LINE",
"346 560 LINE",
"354 532 LINE",
"354 509 LINE",
"354 485 LINE",
"357 444 LINE",
"357 421 LINE",
"357 411 LINE",
"356 390 LINE",
"354 341 LINE",
"353 291 LINE",
"352 244 LINE",
"351 206 LINE",
"351 180 LINE",
"351 177 LINE",
"351 171 LINE",
"350 151 LINE",
"353 131 LINE",
"358 116 LINE",
"364 116 LINE",
"369 116 LINE",
"395 125 LINE",
"422 137 LINE",
"443 148 LINE",
"443 151 LINE",
"443 480 LINE",
"442 490 LINE",
"440 505 LINE",
"439 520 LINE",
"439 534 LINE",
"439 543 LINE",
"439 548 LINE",
"439 559 LINE",
"441 567 LINE",
"447 573 LINE",
"454 573 LINE",
"455 573 LINE",
"460 570 LINE",
"460 567 LINE",
"460 566 LINE",
"466 568 LINE",
"488 572 LINE",
"517 574 LINE",
"548 576 LINE",
"576 576 LINE",
"599 576 LINE",
"604 576 LINE",
"622 576 LINE",
"728 573 LINE",
"732 571 LINE",
"734 569 LINE",
"734 567 LINE",
"734 565 LINE",
"733 562 LINE",
"733 560 LINE",
"735 560 LINE",
"740 562 LINE",
"741 562 LINE",
"744 562 LINE",
"744 558 LINE",
"744 425 LINE",
"741 166 LINE",
"734 34 LINE",
"734 31 LINE",
"729 23 LINE",
"723 15 LINE",
"715 8 LINE",
"713 6 LINE",
"712 7 LINE",
"699 10 LINE",
"696 10 LINE",
"695 10 LINE",
"690 6 LINE",
"689 6 LINE",
"659 0 LINE",
"594 -1 LINE",
"563 -1 LINE",
"542 -1 LINE",
"496 -1 LINE"
);
}
);
width = 800;
}
);
unicode = 0075;
},
{
color = 9;
glyphname = uhorn;
lastChange = "2016-07-07 13:40:05 +0000";
layers = (
{
anchors = (
{
name = bottom;
position = "{400, 0}";
},
{
name = top;
position = "{400, 578}";
}
);
background = {
paths = (
{
closed = 1;
nodes = (
"475 3 LINE",
"469 6 LINE",
"463 20 LINE",
"458 34 LINE",
"454 45 LINE",
"451 45 LINE",
"445 45 LINE",
"433 39 LINE",
"420 29 LINE",
"408 19 LINE",
"402 14 LINE",
"388 6 LINE",
"354 -5 LINE",
"323 -12 LINE",
"298 -14 LINE",
"292 -14 LINE",
"275 -14 LINE",
"242 -16 LINE",
"208 -15 LINE",
"174 -9 LINE",
"158 -3 LINE",
"131 7 LINE",
"97 50 LINE",
"76 104 LINE",
"67 165 LINE",
"64 224 LINE",
"65 276 LINE",
"65 294 LINE",
"65 298 LINE",
"66 317 LINE",
"66 337 LINE",
"66 354 LINE",
"66 356 LINE",
"69 363 LINE",
"71 382 LINE",
"72 412 LINE",
"74 450 LINE",
"75 486 LINE",
"76 517 LINE",
"76 526 LINE",
"76 536 LINE",
"73 553 LINE",
"73 563 LINE",
"73 573 LINE",
"92 578 LINE",
"104 578 LINE",
"118 578 LINE",
"123 578 LINE",
"131 579 LINE",
"134 580 LINE",
"256 578 LINE",
"256 577 LINE",
"259 575 LINE",
"260 575 LINE",
"267 578 LINE",
"292 578 LINE",
"325 574 LINE",
"346 560 LINE",
"354 532 LINE",
"354 509 LINE",
"354 485 LINE",
"357 444 LINE",
"357 421 LINE",
"357 411 LINE",
"356 390 LINE",
"354 341 LINE",
"353 291 LINE",
"352 244 LINE",
"351 206 LINE",
"351 180 LINE",
"351 177 LINE",
"351 171 LINE",
"350 151 LINE",
"353 131 LINE",
"358 116 LINE",
"364 116 LINE",
"369 116 LINE",
"395 125 LINE",
"422 137 LINE",
"443 148 LINE",
"443 151 LINE",
"443 480 LINE",
"442 490 LINE",
"440 505 LINE",
"439 520 LINE",
"439 534 LINE",
"439 543 LINE",
"439 548 LINE",
"439 559 LINE",
"441 567 LINE",
"447 573 LINE",
"454 573 LINE",
"455 573 LINE",
"460 570 LINE",
"460 567 LINE",
"460 566 LINE",
"466 568 LINE",
"488 572 LINE",
"517 574 LINE",
"548 576 LINE",
"576 576 LINE",
"599 576 LINE",
"604 576 LINE",
"622 576 LINE",
"728 573 LINE",
"732 571 LINE",
"734 569 LINE",
"734 567 LINE",
"734 565 LINE",
"733 562 LINE",
"733 560 LINE",
"735 560 LINE",
"740 562 LINE",
"741 562 LINE",
"744 562 LINE",
"744 558 LINE",
"744 425 LINE",
"741 166 LINE",
"734 34 LINE",
"734 31 LINE",
"729 23 LINE",
"723 15 LINE",
"715 8 LINE",
"713 6 LINE",
"712 7 LINE",
"699 10 LINE",
"696 10 LINE",
"695 10 LINE",
"690 6 LINE",
"689 6 LINE",
"659 0 LINE",
"594 -1 LINE",
"563 -1 LINE",
"542 -1 LINE",
"496 -1 LINE"
);
},
{
closed = 1;
nodes = (
"838 710 LINE",
"843 694 LINE",
"847 658 LINE",
"847 638 LINE",
"847 602 LINE",
"812 535 LINE",
"782 499 LINE",
"763 477 LINE",
"716 450 LINE",
"666 437 LINE",
"610 433 LINE",
"610 576 LINE",
"625 576 LINE",
"652 588 LINE",
"673 609 LINE",
"684 637 LINE",
"684 654 LINE",
"684 662 LINE",
"681 696 LINE",
"676 714 LINE"
);
}
);
};
layerId = UUID0;
paths = (
{
closed = 1;
nodes = (
"838 710 LINE",
"676 714 LINE",
"681 696 LINE",
"684 662 LINE",
"684 637 LINE",
"673 609 LINE",
"652 588 LINE",
"625 576 LINE",
"548 576 LINE",
"488 572 LINE",
"466 568 LINE",
"460 566 LINE",
"460 570 LINE",
"455 573 LINE",
"447 573 LINE",
"441 567 LINE",
"439 559 LINE",
"439 520 LINE",
"440 505 LINE",
"442 490 LINE",
"443 480 LINE",
"443 148 LINE",
"422 137 LINE",
"395 125 LINE",
"369 116 LINE",
"358 116 LINE",
"353 131 LINE",
"350 151 LINE",
"351 171 LINE",
"351 206 LINE",
"352 244 LINE",
"353 291 LINE",
"354 341 LINE",
"356 390 LINE",
"357 411 LINE",
"357 444 LINE",
"354 485 LINE",
"354 532 LINE",
"346 560 LINE",
"325 574 LINE",
"292 578 LINE",
"267 578 LINE",
"260 575 LINE",
"259 575 LINE",
"256 577 LINE",
"256 578 LINE",
"134 580 LINE",
"131 579 LINE",
"123 578 LINE",
"92 578 LINE",
"73 573 LINE",
"73 553 LINE",
"76 536 LINE",
"76 517 LINE",
"75 486 LINE",
"74 450 LINE",
"72 412 LINE",
"71 382 LINE",
"69 363 LINE",
"66 356 LINE",
"66 317 LINE",
"65 298 LINE",
"65 276 LINE",
"64 224 LINE",
"67 165 LINE",
"76 104 LINE",
"97 50 LINE",
"131 7 LINE",
"174 -9 LINE",
"208 -15 LINE",
"242 -16 LINE",
"275 -14 LINE",
"298 -14 LINE",
"323 -12 LINE",
"354 -5 LINE",
"388 6 LINE",
"402 14 LINE",
"420 29 LINE",
"433 39 LINE",
"445 45 LINE",
"454 45 LINE",
"458 34 LINE",
"463 20 LINE",
"469 6 LINE",
"475 3 LINE",
"496 -1 LINE",
"594 -1 LINE",
"659 0 LINE",
"689 6 LINE",
"690 6 LINE",
"695 10 LINE",
"699 10 LINE",
"712 7 LINE",
"713 6 LINE",
"715 8 LINE",
"723 15 LINE",
"729 23 LINE",
"734 31 LINE",
"734 34 LINE",
"741 166 LINE",
"744 425 LINE",
"744 466 LINE",
"763 477 LINE",
"782 499 LINE",
"812 535 LINE",
"847 602 LINE",
"847 658 LINE",
"843 694 LINE"
);
}
);
width = 800;
}
);
unicode = 01B0;
},
{
glyphname = v;
lastChange = "2016-07-07 09:04:39 +0000";
layers = (
{
anchors = (
{
name = bottom;
position = "{386, 0}";
},
{
name = top;
position = "{386, 578}";
}
);
layerId = UUID0;
paths = (
{
closed = 1;
nodes = (
"282 1 LINE",
"249 -3 LINE",
"231 -3 LINE",
"223 -3 LINE",
"209 1 LINE",
"205 1 LINE",
"196 1 LINE",
"193 2 LINE",
"188 9 LINE",
"188 11 LINE",
"108 281 LINE",
"94 333 LINE",
"69 441 LINE",
"58 493 LINE",
"57 498 LINE",
"52 524 LINE",
"50 550 LINE",
"56 571 LINE",
"66 571 LINE",
"71 571 LINE",
"102 570 LINE",
"136 570 LINE",
"162 569 LINE",
"163 569 LINE",
"224 569 LINE",
"224 568 LINE",
"228 566 LINE",
"230 565 LINE",
"232 565 LINE",
"234 565 LINE",
"238 569 LINE",
"244 569 LINE",
"247 569 LINE",
"262 568 LINE",
"276 567 LINE",
"289 566 LINE",
"317 565 LINE",
"328 565 LINE",
"333 558 LINE",
"341 525 LINE",
"350 481 LINE",
"359 428 LINE",
"365 400 LINE",
"365 399 LINE",
"370 370 LINE",
"378 326 LINE",
"387 275 LINE",
"395 232 LINE",
"400 203 LINE",
"400 202 LINE",
"400 198 LINE",
"400 196 LINE",
"400 191 LINE",
"401 189 LINE",
"402 192 LINE",
"402 198 LINE",
"403 199 LINE",
"403 201 LINE",
"404 202 LINE",
"404 203 LINE",
"409 232 LINE",
"416 275 LINE",
"425 326 LINE",
"432 370 LINE",
"437 399 LINE",
"437 400 LINE",
"443 428 LINE",
"454 481 LINE",
"463 525 LINE",
"472 558 LINE",
"476 565 LINE",
"484 565 LINE",
"506 566 LINE",
"526 567 LINE",
"541 569 LINE",
"542 569 LINE",
"543 569 LINE",
"545 565 LINE",
"546 565 LINE",
"552 565 LINE",
"554 568 LINE",
"554 569 LINE",
"609 569 LINE",
"623 569 LINE",
"642 570 LINE",
"665 570 LINE",
"687 571 LINE",
"703 571 LINE",
"706 571 LINE",
"716 571 LINE",
"722 550 LINE",
"721 524 LINE",
"715 498 LINE",
"714 493 LINE",
"703 441 LINE",
"678 333 LINE",
"664 281 LINE",
"584 11 LINE",
"584 9 LINE",
"579 2 LINE",
"576 1 LINE",
"568 1 LINE",
"563 1 LINE",
"553 -3 LINE",
"547 -3 LINE",
"536 -3 LINE",
"514 1 LINE",
"501 1 LINE",
"500 0 LINE",
"479 -2 LINE",
"451 -3 LINE",
"417 -3 LINE",
"388 -3 LINE",
"367 -3 LINE",
"365 -3 LINE",
"365 -2 LINE",
"346 -1 LINE",
"322 0 LINE",
"302 1 LINE"
);
}
);
width = 772;
}
);
unicode = 0076;
},
{
glyphname = w;
lastChange = "2016-07-07 09:04:52 +0000";
layers = (
{
anchors = (
{
name = bottom;
position = "{500, 0}";
},
{
name = top;
position = "{500, 578}";
}
);
layerId = UUID0;
paths = (
{
closed = 1;
nodes = (
"613 5 LINE",
"606 5 LINE",
"592 1 LINE",
"585 1 LINE",
"578 1 LINE",
"570 6 LINE",
"564 6 LINE",
"556 5 LINE",
"550 6 LINE",
"548 13 LINE",
"548 15 LINE",
"492 292 LINE",
"436 15 LINE",
"430 13 LINE",
"428 6 LINE",
"428 5 LINE",
"420 6 LINE",
"417 6 LINE",
"412 1 LINE",
"409 1 LINE",
"394 1 LINE",
"370 5 LINE",
"354 5 LINE",
"353 2 LINE",
"339 0 LINE",
"331 0 LINE",
"313 0 LINE",
"291 1 LINE",
"274 3 LINE",
"258 5 LINE",
"245 5 LINE",
"234 5 LINE",
"212 1 LINE",
"200 1 LINE",
"193 1 LINE",
"179 6 LINE",
"172 6 LINE",
"164 5 LINE",
"157 6 LINE",
"155 13 LINE",
"155 15 LINE",
"97 280 LINE",
"86 331 LINE",
"65 438 LINE",
"56 488 LINE",
"53 491 LINE",
"49 503 LINE",
"48 518 LINE",
"48 533 LINE",
"48 540 LINE",
"48 551 LINE",
"55 566 LINE",
"63 566 LINE",
"66 566 LINE",
"83 566 LINE",
"104 565 LINE",
"126 565 LINE",
"146 564 LINE",
"159 564 LINE",
"160 564 LINE",
"196 564 LINE",
"201 563 LINE",
"203 562 LINE",
"204 561 LINE",
"204 560 LINE",
"207 560 LINE",
"211 564 LINE",
"216 564 LINE",
"219 564 LINE",
"233 563 LINE",
"252 561 LINE",
"273 560 LINE",
"282 560 LINE",
"286 552 LINE",
"295 517 LINE",
"304 469 LINE",
"314 412 LINE",
"320 381 LINE",
"320 380 LINE",
"322 366 LINE",
"325 347 LINE",
"330 324 LINE",
"333 305 LINE",
"335 292 LINE",
"335 291 LINE",
"335 290 LINE",
"335 288 LINE",
"336 286 LINE",
"337 281 LINE",
"338 278 LINE",
"339 281 LINE",
"339 286 LINE",
"340 288 LINE",
"340 290 LINE",
"341 291 LINE",
"341 292 LINE",
"343 305 LINE",
"346 324 LINE",
"351 347 LINE",
"354 366 LINE",
"356 380 LINE",
"356 381 LINE",
"362 412 LINE",
"373 469 LINE",
"382 517 LINE",
"391 552 LINE",
"395 560 LINE",
"402 560 LINE",
"419 560 LINE",
"429 561 LINE",
"429 563 LINE",
"435 566 LINE",
"439 566 LINE",
"442 566 LINE",
"464 566 LINE",
"491 566 LINE",
"517 565 LINE",
"525 565 LINE",
"526 565 LINE",
"528 566 LINE",
"529 566 LINE",
"531 566 LINE",
"536 565 LINE",
"536 564 LINE",
"588 564 LINE",
"594 563 LINE",
"596 562 LINE",
"597 561 LINE",
"597 560 LINE",
"599 560 LINE",
"604 564 LINE",
"608 564 LINE",
"611 564 LINE",
"612 564 LINE",
"627 560 LINE",
"632 560 LINE",
"636 553 LINE",
"645 521 LINE",
"654 478 LINE",
"664 425 LINE",
"670 397 LINE",
"670 396 LINE",
"672 379 LINE",
"676 354 LINE",
"680 325 LINE",
"684 300 LINE",
"686 283 LINE",
"686 281 LINE",
"686 279 LINE",
"686 277 LINE",
"687 272 LINE",
"688 270 LINE",
"689 272 LINE",
"689 277 LINE",
"690 279 LINE",
"690 281 LINE",
"691 283 LINE",
"693 300 LINE",
"697 325 LINE",
"701 354 LINE",
"705 379 LINE",
"707 396 LINE",
"707 397 LINE",
"713 425 LINE",
"723 478 LINE",
"732 521 LINE",
"741 553 LINE",
"745 560 LINE",
"750 560 LINE",
"763 561 LINE",
"769 562 LINE",
"775 563 LINE",
"783 564 LINE",
"786 564 LINE",
"787 564 LINE",
"787 560 LINE",
"788 560 LINE",
"795 560 LINE",
"797 563 LINE",
"797 564 LINE",
"842 564 LINE",
"854 564 LINE",
"874 565 LINE",
"897 565 LINE",
"919 566 LINE",
"936 566 LINE",
"939 566 LINE",
"946 566 LINE",
"953 551 LINE",
"953 540 LINE",
"950 533 LINE",
"947 518 LINE",
"945 503 LINE",
"945 491 LINE",
"945 488 LINE",
"933 432 LINE",
"903 311 LINE",
"888 255 LINE",
"829 15 LINE",
"822 13 LINE",
"820 6 LINE",
"820 5 LINE",
"813 6 LINE",
"808 6 LINE",
"798 1 LINE",
"793 1 LINE",
"781 1 LINE",
"759 5 LINE",
"747 5 LINE",
"746 3 LINE",
"736 1 LINE",
"722 0 LINE",
"706 0 LINE",
"698 0 LINE",
"679 0 LINE",
"659 1 LINE",
"643 3 LINE",
"626 5 LINE"
);
}
);
width = 999;
}
);
unicode = 0077;
},
{
glyphname = x;
lastChange = "2016-07-07 09:05:30 +0000";
layers = (
{
anchors = (
{
name = bottom;
position = "{402, 0}";
},
{
name = top;
position = "{402, 578}";
}
);
layerId = UUID0;
paths = (
{
closed = 1;
nodes = (
"348 48 LINE",
"330 20 LINE",
"310 1 LINE",
"301 3 LINE",
"300 3 LINE",
"293 0 LINE",
"284 -3 LINE",
"275 -6 LINE",
"273 -5 LINE",
"267 -3 LINE",
"241 -2 LINE",
"208 -2 LINE",
"168 -1 LINE",
"129 -1 LINE",
"92 1 LINE",
"78 3 LINE",
"75 3 LINE",
"67 3 LINE",
"68 15 LINE",
"68 19 LINE",
"68 24 LINE",
"76 43 LINE",
"88 68 LINE",
"103 96 LINE",
"117 122 LINE",
"130 143 LINE",
"134 149 LINE",
"136 153 LINE",
"146 170 LINE",
"157 193 LINE",
"171 220 LINE",
"178 234 LINE",
"194 266 LINE",
"212 303 LINE",
"208 311 LINE",
"203 318 LINE",
"199 325 LINE",
"190 341 LINE",
"186 349 LINE",
"185 350 LINE",
"170 374 LINE",
"149 408 LINE",
"125 446 LINE",
"104 480 LINE",
"89 503 LINE",
"88 505 LINE",
"84 510 LINE",
"71 529 LINE",
"59 551 LINE",
"50 574 LINE",
"50 583 LINE",
"73 586 LINE",
"93 585 LINE",
"125 584 LINE",
"166 583 LINE",
"208 581 LINE",
"248 579 LINE",
"280 578 LINE",
"300 577 LINE",
"301 577 LINE",
"304 577 LINE",
"319 559 LINE",
"338 530 LINE",
"359 496 LINE",
"376 466 LINE",
"389 444 LINE",
"390 442 LINE",
"390 439 LINE",
"392 434 LINE",
"395 429 LINE",
"397 425 LINE",
"398 425 LINE",
"401 427 LINE",
"403 430 LINE",
"407 434 LINE",
"413 442 LINE",
"414 444 LINE",
"426 466 LINE",
"444 496 LINE",
"464 530 LINE",
"483 559 LINE",
"499 577 LINE",
"502 577 LINE",
"503 577 LINE",
"538 579 LINE",
"587 581 LINE",
"646 583 LINE",
"695 584 LINE",
"729 586 LINE",
"730 586 LINE",
"753 583 LINE",
"753 575 LINE",
"744 555 LINE",
"731 535 LINE",
"719 519 LINE",
"715 514 LINE",
"713 513 LINE",
"698 488 LINE",
"678 452 LINE",
"654 411 LINE",
"633 375 LINE",
"618 350 LINE",
"617 349 LINE",
"611 341 LINE",
"599 325 LINE",
"594 318 LINE",
"588 311 LINE",
"582 303 LINE",
"597 276 LINE",
"609 253 LINE",
"615 244 LINE",
"625 224 LINE",
"635 207 LINE",
"642 194 LINE",
"644 191 LINE",
"649 183 LINE",
"667 153 LINE",
"687 117 LINE",
"708 79 LINE",
"724 44 LINE",
"735 18 LINE",
"735 11 LINE",
"735 6 LINE",
"735 -5 LINE",
"728 -5 LINE",
"725 -5 LINE",
"711 -5 LINE",
"676 -4 LINE",
"638 -3 LINE",
"601 -2 LINE",
"569 -2 LINE",
"544 -3 LINE",
"539 -5 LINE",
"536 -6 LINE",
"527 -3 LINE",
"517 0 LINE",
"510 3 LINE",
"509 3 LINE",
"502 1 LINE",
"501 1 LINE",
"481 20 LINE",
"481 26 LINE",
"481 29 LINE",
"477 25 LINE",
"472 30 LINE",
"428 108 LINE",
"426 112 LINE",
"418 128 LINE",
"409 144 LINE",
"400 155 LINE",
"398 155 LINE",
"375 108 LINE"
);
}
);
width = 803;
}
);
unicode = 0078;
},
{
glyphname = y;
lastChange = "2016-07-07 09:05:33 +0000";
layers = (
{
anchors = (
{
name = bottom;
position = "{366, 0}";
},
{
name = top;
position = "{366, 578}";
}
);
layerId = UUID0;
paths = (
{
closed = 1;
nodes = (
"417 -102 LINE",
"411 -114 LINE",
"401 -124 LINE",
"393 -124 LINE",
"388 -124 LINE",
"374 -120 LINE",
"363 -116 LINE",
"358 -114 LINE",
"343 -108 LINE",
"338 -107 LINE",
"330 -106 LINE",
"318 -99 LINE",
"311 -97 LINE",
"310 -97 LINE",
"303 -96 LINE",
"294 -95 LINE",
"287 -94 LINE",
"287 -93 LINE",
"255 -84 LINE",
"188 -55 LINE",
"157 -42 LINE",
"153 -42 LINE",
"151 -36 LINE",
"151 -32 LINE",
"151 -24 LINE",
"154 -21 LINE",
"162 -8 LINE",
"175 15 LINE",
"187 37 LINE",
"201 59 LINE",
"209 71 LINE",
"213 75 LINE",
"220 89 LINE",
"223 96 LINE",
"226 104 LINE",
"229 112 LINE",
"223 124 LINE",
"202 158 LINE",
"180 192 LINE",
"160 222 LINE",
"154 228 LINE",
"151 233 LINE",
"138 255 LINE",
"122 284 LINE",
"104 315 LINE",
"88 344 LINE",
"75 366 LINE",
"72 372 LINE",
"68 377 LINE",
"53 406 LINE",
"39 437 LINE",
"27 464 LINE",
"27 469 LINE",
"27 474 LINE",
"43 485 LINE",
"65 498 LINE",
"88 508 LINE",
"96 511 LINE",
"118 521 LINE",
"150 535 LINE",
"180 548 LINE",
"213 562 LINE",
"236 571 LINE",
"241 573 LINE",
"251 574 LINE",
"256 574 LINE",
"261 574 LINE",
"271 566 LINE",
"277 554 LINE",
"295 516 LINE",
"331 438 LINE",
"355 393 LINE",
"356 390 LINE",
"360 382 LINE",
"365 376 LINE",
"371 371 LINE",
"374 371 LINE",
"378 371 LINE",
"382 379 LINE",
"451 558 LINE",
"452 563 LINE",
"461 574 LINE",
"474 581 LINE",
"488 584 LINE",
"495 582 LINE",
"516 576 LINE",
"566 559 LINE",
"617 539 LINE",
"664 516 LINE",
"681 505 LINE",
"691 499 LINE",
"696 484 LINE",
"693 469 LINE",
"686 456 LINE",
"684 451 LINE",
"524 104 LINE",
"516 84 LINE"
);
}
);
width = 732;
}
);
unicode = 0079;
},
{
glyphname = z;
lastChange = "2016-07-07 09:05:38 +0000";
layers = (
{
anchors = (
{
name = bottom;
position = "{311, 0}";
},
{
name = top;
position = "{311, 578}";
}
);
layerId = UUID0;
paths = (
{
closed = 1;
nodes = (
"69 183 LINE",
"121 235 LINE",
"162 278 LINE",
"179 297 LINE",
"212 333 LINE",
"239 365 LINE",
"255 388 LINE",
"255 393 LINE",
"255 397 LINE",
"251 397 LINE",
"87 399 LINE",
"74 399 LINE",
"61 423 LINE",
"55 458 LINE",
"54 493 LINE",
"54 505 LINE",
"54 508 LINE",
"55 528 LINE",
"56 549 LINE",
"57 565 LINE",
"57 566 LINE",
"61 571 LINE",
"67 577 LINE",
"78 577 LINE",
"83 577 LINE",
"94 575 LINE",
"99 575 LINE",
"131 575 LINE",
"193 580 LINE",
"225 580 LINE",
"288 580 LINE",
"409 583 LINE",
"473 583 LINE",
"502 583 LINE",
"538 580 LINE",
"558 574 LINE",
"565 567 LINE",
"565 564 LINE",
"565 425 LINE",
"565 415 LINE",
"553 381 LINE",
"515 324 LINE",
"442 238 LINE",
"382 176 LINE",
"539 176 LINE",
"547 176 LINE",
"561 165 LINE",
"561 159 LINE",
"561 19 LINE",
"561 17 LINE",
"559 10 LINE",
"548 4 LINE",
"523 0 LINE",
"500 0 LINE",
"348 0 LINE",
"312 0 LINE",
"249 0 LINE",
"189 1 LINE",
"127 2 LINE",
"91 2 LINE",
"83 2 LINE",
"69 17 LINE",
"69 24 LINE"
);
}
);
width = 622;
}
);
unicode = 007A;
},
{
glyphname = ordfeminine;
lastChange = "2016-07-06 09:52:17 +0000";
layers = (
{
layerId = UUID0;
paths = (
{
closed = 1;
nodes = (
"619 366 LINE",
"619 323 LINE",
"618 273 LINE",
"616 240 LINE",
"614 214 LINE",
"614 194 LINE",
"614 186 LINE",
"613 167 LINE",
"609 151 LINE",
"600 141 LINE",
"591 141 LINE",
"562 141 LINE",
"521 142 LINE",
"485 143 LINE",
"452 144 LINE",
"429 144 LINE",
"417 144 LINE",
"399 146 LINE",
"387 154 LINE",
"381 172 LINE",
"381 188 LINE",
"381 189 LINE",
"381 201 LINE",
"382 213 LINE",
"381 223 LINE",
"380 222 LINE",
"363 191 LINE",
"327 156 LINE",
"292 139 LINE",
"261 134 LINE",
"248 134 LINE",
"202 134 LINE",
"128 160 LINE",
"76 218 LINE",
"47 313 LINE",
"47 381 LINE",
"47 422 LINE",
"69 484 LINE",
"106 529 LINE",
"154 558 LINE",
"207 574 LINE",
"259 581 LINE",
"283 581 LINE",
"324 581 LINE",
"394 578 LINE",
"423 578 LINE",
"454 578 LINE",
"539 580 LINE",
"596 580 LINE",
"604 580 LINE",
"619 565 LINE",
"619 557 LINE"
);
},
{
closed = 1;
nodes = (
"389 349 LINE",
"388 390 LINE",
"384 423 LINE",
"382 437 LINE",
"376 464 LINE",
"368 485 LINE",
"356 498 LINE",
"349 498 LINE",
"332 498 LINE",
"308 484 LINE",
"293 463 LINE",
"285 438 LINE",
"281 417 LINE",
"280 401 LINE",
"280 400 LINE",
"280 392 LINE",
"281 362 LINE",
"283 326 LINE",
"288 289 LINE",
"296 258 LINE",
"310 239 LINE",
"319 239 LINE",
"333 239 LINE",
"352 248 LINE",
"367 264 LINE",
"376 283 LINE",
"380 293 LINE",
"388 317 LINE"
);
}
);
width = 677;
}
);
unicode = 00AA;
},
{
color = 9;
glyphname = ordmasculine;
lastChange = "2016-07-07 10:31:10 +0000";
layers = (
{
background = {
paths = (
{
closed = 1;
nodes = (
"619 366 LINE",
"619 323 LINE",
"618 273 LINE",
"616 240 LINE",
"614 214 LINE",
"614 194 LINE",
"614 186 LINE",
"613 167 LINE",
"609 151 LINE",
"600 141 LINE",
"591 141 LINE",
"562 141 LINE",
"521 142 LINE",
"485 143 LINE",
"452 144 LINE",
"429 144 LINE",
"417 144 LINE",
"399 146 LINE",
"387 154 LINE",
"381 172 LINE",
"381 188 LINE",
"381 189 LINE",
"381 201 LINE",
"382 213 LINE",
"381 223 LINE",
"380 222 LINE",
"363 191 LINE",
"327 156 LINE",
"292 139 LINE",
"261 134 LINE",
"248 134 LINE",
"202 134 LINE",
"128 160 LINE",
"76 218 LINE",
"47 313 LINE",
"47 381 LINE",
"47 422 LINE",
"69 484 LINE",
"106 529 LINE",
"154 558 LINE",
"207 574 LINE",
"259 581 LINE",
"283 581 LINE",
"324 581 LINE",
"394 578 LINE",
"423 578 LINE",
"454 578 LINE",
"539 580 LINE",
"596 580 LINE",
"604 580 LINE",
"619 565 LINE",
"619 557 LINE"
);
},
{
closed = 1;
nodes = (
"389 349 LINE",
"388 390 LINE",
"384 423 LINE",
"382 437 LINE",
"376 464 LINE",
"368 485 LINE",
"356 498 LINE",
"349 498 LINE",
"332 498 LINE",
"308 484 LINE",
"293 463 LINE",
"285 438 LINE",
"281 417 LINE",
"280 401 LINE",
"280 400 LINE",
"280 392 LINE",
"281 362 LINE",
"283 326 LINE",
"288 289 LINE",
"296 258 LINE",
"310 239 LINE",
"319 239 LINE",
"333 239 LINE",
"352 248 LINE",
"367 264 LINE",
"376 283 LINE",
"380 293 LINE",
"388 317 LINE"
);
}
);
};
layerId = UUID0;
paths = (
{
closed = 1;
nodes = (
"233 137 LINE",
"217 137 LINE",
"184 144 LINE",
"166 149 LINE",
"162 149 LINE",
"159 149 LINE",
"154 151 LINE",
"147 154 LINE",
"137 161 LINE",
"127 166 LINE",
"105 179 LINE",
"72 223 LINE",
"53 273 LINE",
"44 326 LINE",
"44 347 LINE",
"44 374 LINE",
"56 430 LINE",
"78 480 LINE",
"111 525 LINE",
"152 559 LINE",
"203 578 LINE",
"231 578 LINE",
"238 578 LINE",
"251 578 LINE",
"257 577 LINE",
"258 577 LINE",
"261 577 LINE",
"262 577 LINE",
"290 577 LINE",
"333 576 LINE",
"369 571 LINE",
"399 562 LINE",
"413 554 LINE",
"441 535 LINE",
"481 494 LINE",
"508 446 LINE",
"520 389 LINE",
"520 354 LINE",
"520 320 LINE",
"504 256 LINE",
"488 227 LINE",
"488 225 LINE",
"483 218 LINE",
"480 212 LINE",
"476 208 LINE",
"471 205 LINE",
"454 179 LINE",
"405 150 LINE",
"350 137 LINE",
"291 134 LINE",
"264 134 LINE",
"256 134 LINE",
"241 137 LINE"
);
},
{
closed = 1;
nodes = (
"227 321 LINE",
"227 319 LINE",
"228 305 LINE",
"229 286 LINE",
"232 263 LINE",
"235 243 LINE",
"239 229 LINE",
"240 226 LINE",
"254 199 LINE",
"256 196 LINE",
"268 194 LINE",
"273 194 LINE",
"284 194 LINE",
"300 209 LINE",
"312 234 LINE",
"322 267 LINE",
"328 302 LINE",
"334 336 LINE",
"335 367 LINE",
"337 388 LINE",
"337 393 LINE",
"337 392 LINE",
"337 406 LINE",
"334 429 LINE",
"329 456 LINE",
"322 479 LINE",
"307 495 LINE",
"298 495 LINE",
"283 504 LINE",
"260 495 LINE",
"243 469 LINE",
"237 444 LINE",
"234 418 LINE",
"227 382 LINE",
"227 335 LINE"
);
}
);
width = 564;
}
);
unicode = 00BA;
},
{
glyphname = pi;
lastChange = "2016-07-06 09:52:17 +0000";
layers = (
{
layerId = UUID0;
paths = (
{
closed = 1;
nodes = (
"144 384 LINE",
"79 384 LINE",
"66 384 LINE",
"52 413 LINE",
"46 454 LINE",
"45 498 LINE",
"45 512 LINE",
"45 516 LINE",
"46 536 LINE",
"47 558 LINE",
"48 576 LINE",
"48 576 LINE",
"52 580 LINE",
"61 579 LINE",
"80 579 LINE",
"90 579 LINE",
"115 579 LINE",
"163 580 LINE",
"188 580 LINE",
"191 580 LINE",
"215 580 LINE",
"248 580 LINE",
"285 580 LINE",
"319 579 LINE",
"347 579 LINE",
"354 579 LINE",
"355 580 LINE",
"363 581 LINE",
"371 582 LINE",
"379 582 LINE",
"380 582 LINE",
"390 582 LINE",
"410 581 LINE",
"420 580 LINE",
"420 580 LINE",
"426 579 LINE",
"439 579 LINE",
"446 579 LINE",
"456 579 LINE",
"487 580 LINE",
"504 580 LINE",
"511 580 LINE",
"524 580 LINE",
"530 580 LINE",
"546 580 LINE",
"576 580 LINE",
"591 580 LINE",
"593 580 LINE",
"611 580 LINE",
"636 580 LINE",
"665 580 LINE",
"691 579 LINE",
"712 579 LINE",
"717 579 LINE",
"719 580 LINE",
"727 581 LINE",
"735 582 LINE",
"743 582 LINE",
"744 582 LINE",
"750 582 LINE",
"761 579 LINE",
"768 579 LINE",
"776 579 LINE",
"813 580 LINE",
"834 580 LINE",
"845 580 LINE",
"866 580 LINE",
"882 578 LINE",
"892 575 LINE",
"892 573 LINE",
"892 402 LINE",
"892 398 LINE",
"880 392 LINE",
"874 391 LINE",
"867 390 LINE",
"844 389 LINE",
"832 389 LINE",
"803 389 LINE",
"803 383 LINE",
"803 360 LINE",
"803 331 LINE",
"802 299 LINE",
"802 287 LINE",
"802 272 LINE",
"803 243 LINE",
"803 230 LINE",
"803 213 LINE",
"800 174 LINE",
"797 135 LINE",
"794 98 LINE",
"794 83 LINE",
"794 49 LINE",
"791 15 LINE",
"780 0 LINE",
"759 -1 LINE",
"741 -3 LINE",
"718 -3 LINE",
"681 -2 LINE",
"641 -2 LINE",
"595 -2 LINE",
"563 -2 LINE",
"558 4 LINE",
"552 29 LINE",
"549 67 LINE",
"547 115 LINE",
"547 144 LINE",
"547 197 LINE",
"549 322 LINE",
"549 392 LINE",
"545 391 LINE",
"544 391 LINE",
"529 390 LINE",
"481 389 LINE",
"458 389 LINE",
"400 389 LINE",
"400 383 LINE",
"400 360 LINE",
"400 331 LINE",
"399 299 LINE",
"399 287 LINE",
"399 272 LINE",
"400 243 LINE",
"400 230 LINE",
"400 213 LINE",
"397 174 LINE",
"395 135 LINE",
"392 98 LINE",
"392 83 LINE",
"392 49 LINE",
"388 15 LINE",
"377 0 LINE",
"356 -1 LINE",
"338 -3 LINE",
"315 -3 LINE",
"278 -2 LINE",
"238 -2 LINE",
"192 -2 LINE",
"160 -2 LINE",
"155 4 LINE",
"149 29 LINE",
"146 67 LINE",
"145 115 LINE",
"145 144 LINE",
"145 194 LINE",
"146 314 LINE",
"146 381 LINE"
);
}
);
width = 938;
}
);
unicode = 03C0;
},
{
glyphname = zero;
lastChange = "2016-07-06 09:52:17 +0000";
layers = (
{
layerId = UUID0;
paths = (
{
closed = 1;
nodes = (
"188 7 LINE",
"177 12 LINE",
"155 21 LINE",
"144 27 LINE",
"138 34 LINE",
"123 42 LINE",
"116 48 LINE",
"101 61 LINE",
"79 97 LINE",
"63 140 LINE",
"54 186 LINE",
"49 230 LINE",
"47 271 LINE",
"47 286 LINE",
"47 311 LINE",
"50 354 LINE",
"57 396 LINE",
"67 439 LINE",
"75 464 LINE",
"81 468 LINE",
"93 491 LINE",
"104 514 LINE",
"114 532 LINE",
"118 532 LINE",
"122 533 LINE",
"134 542 LINE",
"147 553 LINE",
"162 566 LINE",
"168 570 LINE",
"184 580 LINE",
"219 591 LINE",
"256 596 LINE",
"293 599 LINE",
"312 601 LINE",
"338 600 LINE",
"393 596 LINE",
"444 590 LINE",
"492 582 LINE",
"511 577 LINE",
"510 578 LINE",
"532 571 LINE",
"560 562 LINE",
"583 549 LINE",
"583 543 LINE",
"583 534 LINE",
"594 534 LINE",
"618 514 LINE",
"638 484 LINE",
"651 453 LINE",
"651 442 LINE",
"659 442 LINE",
"662 440 LINE",
"662 433 LINE",
"667 413 LINE",
"678 374 LINE",
"683 353 LINE",
"683 352 LINE",
"684 338 LINE",
"685 318 LINE",
"686 294 LINE",
"686 283 LINE",
"686 255 LINE",
"683 194 LINE",
"669 137 LINE",
"644 84 LINE",
"621 65 LINE",
"605 51 LINE",
"569 29 LINE",
"553 17 LINE",
"531 9 LINE",
"488 -6 LINE",
"466 -14 LINE",
"428 -14 LINE",
"349 -24 LINE",
"310 -24 LINE",
"307 -24 LINE",
"286 -21 LINE",
"260 -17 LINE",
"231 -10 LINE",
"206 -3 LINE",
"189 3 LINE"
);
},
{
closed = 1;
nodes = (
"330 152 LINE",
"331 148 LINE",
"340 137 LINE",
"353 127 LINE",
"365 121 LINE",
"368 121 LINE",
"386 121 LINE",
"407 137 LINE",
"417 159 LINE",
"419 183 LINE",
"420 192 LINE",
"420 206 LINE",
"422 236 LINE",
"424 266 LINE",
"425 292 LINE",
"425 303 LINE",
"425 333 LINE",
"410 388 LINE",
"401 418 LINE",
"399 433 LINE",
"387 456 LINE",
"370 456 LINE",
"354 456 LINE",
"334 438 LINE",
"325 410 LINE",
"321 380 LINE",
"320 369 LINE",
"317 345 LINE",
"306 296 LINE",
"306 271 LINE",
"306 253 LINE",
"309 223 LINE",
"315 194 LINE",
"324 167 LINE"
);
}
);
width = 730;
}
);
unicode = 0030;
},
{
glyphname = one;
lastChange = "2016-07-06 09:52:17 +0000";
layers = (
{
layerId = UUID0;
paths = (
{
closed = 1;
nodes = (
"476 333 LINE",
"476 220 LINE",
"476 197 LINE",
"474 156 LINE",
"472 118 LINE",
"470 81 LINE",
"470 61 LINE",
"470 51 LINE",
"469 30 LINE",
"463 12 LINE",
"453 0 LINE",
"443 0 LINE",
"413 0 LINE",
"365 0 LINE",
"325 1 LINE",
"290 2 LINE",
"255 2 LINE",
"217 3 LINE",
"194 3 LINE",
"181 3 LINE",
"161 5 LINE",
"147 16 LINE",
"140 36 LINE",
"140 54 LINE",
"140 56 LINE",
"141 69 LINE",
"143 84 LINE",
"145 98 LINE",
"145 100 LINE",
"145 103 LINE",
"143 119 LINE",
"141 136 LINE",
"140 149 LINE",
"140 150 LINE",
"139 165 LINE",
"139 208 LINE",
"139 255 LINE",
"138 301 LINE",
"138 338 LINE",
"136 361 LINE",
"135 361 LINE",
"130 361 LINE",
"115 344 LINE",
"97 324 LINE",
"74 307 LINE",
"62 307 LINE",
"52 307 LINE",
"37 320 LINE",
"37 327 LINE",
"37 519 LINE",
"37 521 LINE",
"43 526 LINE",
"56 534 LINE",
"75 545 LINE",
"87 553 LINE",
"115 571 LINE",
"145 581 LINE",
"152 581 LINE",
"194 581 LINE",
"267 581 LINE",
"336 580 LINE",
"408 579 LINE",
"449 579 LINE",
"454 579 LINE",
"463 574 LINE",
"471 567 LINE",
"476 558 LINE",
"476 553 LINE"
);
}
);
width = 533;
}
);
unicode = 0031;
},
{
glyphname = two;
lastChange = "2016-07-06 09:52:17 +0000";
layers = (
{
layerId = UUID0;
paths = (
{
closed = 1;
nodes = (
"298 0 LINE",
"276 0 LINE",
"233 0 LINE",
"213 0 LINE",
"180 0 LINE",
"121 2 LINE",
"77 8 LINE",
"51 20 LINE",
"51 30 LINE",
"51 45 LINE",
"65 71 LINE",
"77 82 LINE",
"77 81 LINE",
"91 96 LINE",
"115 123 LINE",
"144 158 LINE",
"172 195 LINE",
"198 231 LINE",
"206 246 LINE",
"212 253 LINE",
"226 278 LINE",
"238 306 LINE",
"247 334 LINE",
"247 347 LINE",
"247 360 LINE",
"240 380 LINE",
"223 392 LINE",
"195 398 LINE",
"174 398 LINE",
"159 398 LINE",
"133 395 LINE",
"107 388 LINE",
"80 376 LINE",
"62 368 LINE",
"61 368 LINE",
"59 391 LINE",
"56 425 LINE",
"53 466 LINE",
"50 503 LINE",
"49 532 LINE",
"49 536 LINE",
"49 540 LINE",
"49 542 LINE",
"93 562 LINE",
"119 571 LINE",
"175 584 LINE",
"233 593 LINE",
"292 598 LINE",
"318 598 LINE",
"365 598 LINE",
"455 578 LINE",
"526 533 LINE",
"569 460 LINE",
"569 408 LINE",
"569 355 LINE",
"500 255 LINE",
"426 202 LINE",
"449 202 LINE",
"487 203 LINE",
"509 203 LINE",
"519 203 LINE",
"540 201 LINE",
"558 196 LINE",
"570 185 LINE",
"570 176 LINE",
"570 154 LINE",
"569 124 LINE",
"568 99 LINE",
"567 74 LINE",
"567 59 LINE",
"567 45 LINE",
"564 25 LINE",
"555 11 LINE",
"534 4 LINE",
"516 4 LINE",
"515 2 LINE",
"490 0 LINE",
"452 0 LINE",
"404 0 LINE",
"356 0 LINE",
"313 0 LINE"
);
}
);
width = 620;
}
);
unicode = 0032;
},
{
glyphname = three;
lastChange = "2016-07-06 09:52:17 +0000";
layers = (
{
layerId = UUID0;
paths = (
{
closed = 1;
nodes = (
"564 187 LINE",
"564 143 LINE",
"549 78 LINE",
"528 34 LINE",
"505 10 LINE",
"497 7 LINE",
"470 -7 LINE",
"412 -21 LINE",
"352 -28 LINE",
"291 -29 LINE",
"261 -29 LINE",
"257 -29 LINE",
"237 -27 LINE",
"212 -23 LINE",
"184 -19 LINE",
"160 -13 LINE",
"143 -8 LINE",
"142 -5 LINE",
"130 -1 LINE",
"108 3 LINE",
"99 9 LINE",
"92 13 LINE",
"78 21 LINE",
"71 25 LINE",
"81 163 LINE",
"111 156 LINE",
"172 146 LINE",
"198 146 LINE",
"214 146 LINE",
"241 151 LINE",
"261 164 LINE",
"272 184 LINE",
"272 199 LINE",
"272 219 LINE",
"237 238 LINE",
"210 241 LINE",
"189 241 LINE",
"150 239 LINE",
"128 237 LINE",
"127 346 LINE",
"136 346 LINE",
"154 345 LINE",
"164 345 LINE",
"180 345 LINE",
"209 348 LINE",
"232 358 LINE",
"246 378 LINE",
"246 395 LINE",
"246 407 LINE",
"235 423 LINE",
"215 434 LINE",
"188 438 LINE",
"172 438 LINE",
"146 438 LINE",
"85 420 LINE",
"55 407 LINE",
"45 549 LINE",
"69 560 LINE",
"127 578 LINE",
"191 590 LINE",
"260 598 LINE",
"295 598 LINE",
"312 597 LINE",
"348 594 LINE",
"382 590 LINE",
"413 584 LINE",
"425 581 LINE",
"424 581 LINE",
"439 577 LINE",
"458 570 LINE",
"473 561 LINE",
"473 557 LINE",
"473 550 LINE",
"483 550 LINE",
"500 532 LINE",
"513 508 LINE",
"522 485 LINE",
"525 479 LINE",
"531 466 LINE",
"535 437 LINE",
"539 423 LINE",
"539 409 LINE",
"531 378 LINE",
"517 349 LINE",
"497 324 LINE",
"484 315 LINE",
"521 293 LINE",
"564 229 LINE"
);
}
);
width = 608;
}
);
unicode = 0033;
},
{
glyphname = four;
lastChange = "2016-07-06 09:52:17 +0000";
layers = (
{
layerId = UUID0;
paths = (
{
closed = 1;
nodes = (
"215 618 LINE",
"226 618 LINE",
"259 618 LINE",
"295 617 LINE",
"327 616 LINE",
"336 615 LINE",
"342 619 LINE",
"364 620 LINE",
"370 620 LINE",
"391 620 LINE",
"429 617 LINE",
"451 617 LINE",
"452 618 LINE",
"454 618 LINE",
"455 619 LINE",
"493 619 LINE",
"494 618 LINE",
"498 617 LINE",
"499 617 LINE",
"500 617 LINE",
"504 618 LINE",
"506 618 LINE",
"509 619 LINE",
"513 619 LINE",
"515 619 LINE",
"524 617 LINE",
"525 617 LINE",
"530 618 LINE",
"544 617 LINE",
"560 617 LINE",
"574 616 LINE",
"579 616 LINE",
"589 616 LINE",
"592 587 LINE",
"589 542 LINE",
"586 488 LINE",
"591 462 LINE",
"591 461 LINE",
"590 436 LINE",
"588 385 LINE",
"586 308 LINE",
"586 255 LINE",
"586 237 LINE",
"657 237 LINE",
"670 237 LINE",
"684 213 LINE",
"691 181 LINE",
"692 147 LINE",
"692 136 LINE",
"692 133 LINE",
"691 111 LINE",
"690 88 LINE",
"689 70 LINE",
"689 70 LINE",
"687 66 LINE",
"676 63 LINE",
"663 62 LINE",
"649 61 LINE",
"644 61 LINE",
"629 61 LINE",
"599 61 LINE",
"584 60 LINE",
"582 44 LINE",
"581 24 LINE",
"581 -7 LINE",
"579 -30 LINE",
"569 -43 LINE",
"558 -43 LINE",
"557 -43 LINE",
"556 -41 LINE",
"555 -41 LINE",
"553 -41 LINE",
"549 -42 LINE",
"547 -42 LINE",
"545 -43 LINE",
"543 -44 LINE",
"536 -44 LINE",
"526 -43 LINE",
"520 -42 LINE",
"514 -41 LINE",
"511 -41 LINE",
"510 -41 LINE",
"506 -43 LINE",
"505 -44 LINE",
"440 -44 LINE",
"439 -44 LINE",
"426 -47 LINE",
"410 -50 LINE",
"396 -53 LINE",
"393 -53 LINE",
"384 -53 LINE",
"375 -35 LINE",
"371 -10 LINE",
"371 14 LINE",
"370 19 LINE",
"368 56 LINE",
"364 56 LINE",
"328 56 LINE",
"259 56 LINE",
"189 56 LINE",
"117 54 LINE",
"78 53 LINE",
"63 54 LINE",
"45 59 LINE",
"36 64 LINE",
"33 71 LINE",
"33 73 LINE",
"33 105 LINE",
"33 147 LINE",
"35 178 LINE",
"39 204 LINE",
"47 237 LINE",
"60 282 LINE",
"70 317 LINE",
"69 316 LINE",
"82 347 LINE",
"102 396 LINE",
"128 458 LINE",
"157 523 LINE",
"186 583 LINE",
"198 605 LINE",
"201 608 LINE",
"210 615 LINE"
);
},
{
closed = 1;
nodes = (
"262 239 LINE",
"285 239 LINE",
"333 238 LINE",
"358 238 LINE",
"358 253 LINE",
"358 501 LINE",
"351 481 LINE",
"333 434 LINE",
"315 384 LINE",
"297 334 LINE",
"281 290 LINE",
"267 252 LINE"
);
}
);
width = 728;
}
);
unicode = 0034;
},
{
glyphname = five;
lastChange = "2016-07-06 09:52:17 +0000";
layers = (
{
layerId = UUID0;
paths = (
{
closed = 1;
nodes = (
"542 197 LINE",
"542 150 LINE",
"527 82 LINE",
"506 36 LINE",
"483 10 LINE",
"475 7 LINE",
"448 -7 LINE",
"390 -21 LINE",
"330 -28 LINE",
"268 -29 LINE",
"238 -29 LINE",
"235 -29 LINE",
"215 -27 LINE",
"189 -23 LINE",
"161 -19 LINE",
"137 -13 LINE",
"120 -8 LINE",
"119 -5 LINE",
"108 -1 LINE",
"86 3 LINE",
"76 9 LINE",
"49 25 LINE",
"55 59 LINE",
"54 95 LINE",
"56 123 LINE",
"59 163 LINE",
"89 156 LINE",
"150 146 LINE",
"176 146 LINE",
"192 146 LINE",
"219 151 LINE",
"239 164 LINE",
"250 184 LINE",
"250 199 LINE",
"250 219 LINE",
"215 238 LINE",
"188 241 LINE",
"161 241 LINE",
"110 239 LINE",
"81 237 LINE",
"78 277 LINE",
"79 294 LINE",
"79 306 LINE",
"79 315 LINE",
"79 324 LINE",
"79 336 LINE",
"80 337 LINE",
"79 362 LINE",
"79 366 LINE",
"74 396 LINE",
"74 428 LINE",
"74 572 LINE",
"74 573 LINE",
"79 581 LINE",
"82 582 LINE",
"84 582 LINE",
"87 581 LINE",
"89 581 LINE",
"102 581 LINE",
"124 586 LINE",
"136 586 LINE",
"155 586 LINE",
"193 582 LINE",
"214 582 LINE",
"218 585 LINE",
"262 585 LINE",
"263 584 LINE",
"269 582 LINE",
"270 582 LINE",
"270 582 LINE",
"275 583 LINE",
"281 584 LINE",
"286 585 LINE",
"287 585 LINE",
"289 585 LINE",
"299 583 LINE",
"300 582 LINE",
"458 582 LINE",
"459 581 LINE",
"464 579 LINE",
"465 579 LINE",
"466 579 LINE",
"474 580 LINE",
"483 581 LINE",
"491 582 LINE",
"492 582 LINE",
"498 582 LINE",
"506 561 LINE",
"512 525 LINE",
"514 480 LINE",
"514 457 LINE",
"514 451 LINE",
"504 446 LINE",
"490 444 LINE",
"474 445 LINE",
"469 445 LINE",
"458 445 LINE",
"449 445 LINE",
"438 443 LINE",
"427 442 LINE",
"414 441 LINE",
"403 441 LINE",
"394 441 LINE",
"375 441 LINE",
"372 442 LINE",
"365 438 LINE",
"365 434 LINE",
"357 403 LINE",
"355 371 LINE",
"376 369 LINE",
"415 362 LINE",
"430 358 LINE",
"429 358 LINE",
"443 354 LINE",
"462 347 LINE",
"477 338 LINE",
"477 334 LINE",
"477 328 LINE",
"487 328 LINE",
"504 310 LINE",
"517 286 LINE",
"527 262 LINE",
"529 257 LINE",
"532 251 LINE",
"537 236 LINE",
"540 219 LINE",
"542 203 LINE"
);
}
);
width = 588;
}
);
unicode = 0035;
},
{
glyphname = six;
lastChange = "2016-07-06 09:52:17 +0000";
layers = (
{
layerId = UUID0;
paths = (
{
closed = 1;
nodes = (
"350 364 LINE",
"382 375 LINE",
"442 384 LINE",
"470 384 LINE",
"506 384 LINE",
"569 369 LINE",
"594 354 LINE",
"633 331 LINE",
"679 255 LINE",
"679 202 LINE",
"679 149 LINE",
"629 69 LINE",
"547 16 LINE",
"440 -11 LINE",
"382 -11 LINE",
"341 -11 LINE",
"258 6 LINE",
"183 40 LINE",
"117 91 LINE",
"69 159 LINE",
"42 245 LINE",
"42 297 LINE",
"42 335 LINE",
"48 405 LINE",
"61 436 LINE",
"74 471 LINE",
"121 532 LINE",
"147 556 LINE",
"197 589 LINE",
"330 623 LINE",
"410 623 LINE",
"443 623 LINE",
"510 613 LINE",
"546 603 LINE",
"562 597 LINE",
"595 584 LINE",
"609 573 LINE",
"613 570 LINE",
"625 565 LINE",
"632 551 LINE",
"630 521 LINE",
"620 493 LINE",
"611 473 LINE",
"600 446 LINE",
"588 432 LINE",
"571 429 LINE",
"556 432 LINE",
"538 438 LINE",
"494 446 LINE",
"471 446 LINE",
"441 446 LINE",
"400 437 LINE",
"374 422 LINE",
"359 404 LINE",
"353 386 LINE",
"351 369 LINE"
);
},
{
closed = 1;
nodes = (
"427 150 LINE",
"449 150 LINE",
"479 173 LINE",
"479 199 LINE",
"479 220 LINE",
"452 236 LINE",
"433 236 LINE",
"419 236 LINE",
"392 231 LINE",
"381 228 LINE",
"368 225 LINE",
"357 220 LINE",
"367 182 LINE",
"403 150 LINE"
);
}
);
width = 721;
}
);
unicode = 0036;
},
{
glyphname = seven;
lastChange = "2016-07-06 09:52:17 +0000";
layers = (
{
layerId = UUID0;
paths = (
{
closed = 1;
nodes = (
"234 345 LINE",
"207 346 LINE",
"163 347 LINE",
"125 348 LINE",
"91 348 LINE",
"74 348 LINE",
"60 348 LINE",
"44 381 LINE",
"37 427 LINE",
"36 475 LINE",
"36 490 LINE",
"36 494 LINE",
"37 517 LINE",
"38 541 LINE",
"39 561 LINE",
"39 561 LINE",
"42 564 LINE",
"54 569 LINE",
"68 570 LINE",
"83 571 LINE",
"88 571 LINE",
"118 571 LINE",
"174 577 LINE",
"204 577 LINE",
"283 577 LINE",
"436 578 LINE",
"518 580 LINE",
"533 579 LINE",
"553 574 LINE",
"563 567 LINE",
"567 561 LINE",
"567 558 LINE",
"567 398 LINE",
"567 384 LINE",
"556 354 LINE",
"535 311 LINE",
"505 251 LINE",
"486 210 LINE",
"483 204 LINE",
"473 177 LINE",
"454 132 LINE",
"422 67 LINE",
"399 24 LINE",
"374 -22 LINE",
"369 -32 LINE",
"362 -42 LINE",
"356 -52 LINE",
"338 -76 LINE",
"326 -88 LINE",
"323 -91 LINE",
"312 -96 LINE",
"306 -96 LINE",
"292 -96 LINE",
"249 -80 LINE",
"202 -54 LINE",
"155 -22 LINE",
"118 9 LINE",
"95 37 LINE",
"95 45 LINE",
"95 47 LINE",
"105 71 LINE",
"123 109 LINE",
"146 158 LINE",
"170 209 LINE",
"195 260 LINE",
"216 304 LINE",
"231 337 LINE"
);
}
);
width = 599;
}
);
unicode = 0037;
},
{
glyphname = eight;
lastChange = "2016-07-06 09:52:17 +0000";
layers = (
{
layerId = UUID0;
paths = (
{
closed = 1;
nodes = (
"48 187 LINE",
"48 208 LINE",
"53 245 LINE",
"65 277 LINE",
"89 304 LINE",
"107 315 LINE",
"95 324 LINE",
"74 349 LINE",
"60 378 LINE",
"53 409 LINE",
"53 423 LINE",
"53 451 LINE",
"69 500 LINE",
"84 521 LINE",
"90 530 LINE",
"104 540 LINE",
"113 546 LINE",
"122 553 LINE",
"143 569 LINE",
"154 573 LINE",
"181 587 LINE",
"241 600 LINE",
"305 603 LINE",
"371 602 LINE",
"402 602 LINE",
"421 602 LINE",
"464 599 LINE",
"504 592 LINE",
"541 581 LINE",
"556 572 LINE",
"591 558 LINE",
"637 523 LINE",
"646 509 LINE",
"657 490 LINE",
"669 446 LINE",
"669 425 LINE",
"669 411 LINE",
"663 379 LINE",
"650 350 LINE",
"631 324 LINE",
"618 315 LINE",
"656 293 LINE",
"698 229 LINE",
"698 187 LINE",
"698 157 LINE",
"691 131 LINE",
"683 98 LINE",
"645 52 LINE",
"618 36 LINE",
"604 27 LINE",
"572 14 LINE",
"554 8 LINE",
"547 6 LINE",
"533 3 LINE",
"525 1 LINE",
"516 -1 LINE",
"495 -1 LINE",
"484 -2 LINE",
"475 -3 LINE",
"455 -8 LINE",
"445 -9 LINE",
"429 -10 LINE",
"397 -11 LINE",
"380 -11 LINE",
"354 -11 LINE",
"301 -8 LINE",
"274 -4 LINE",
"231 1 LINE",
"159 23 LINE",
"127 42 LINE",
"122 45 LINE",
"106 51 LINE",
"102 55 LINE",
"84 66 LINE",
"63 94 LINE",
"52 126 LINE",
"48 165 LINE"
);
},
{
closed = 1;
nodes = (
"362 267 LINE",
"350 267 LINE",
"334 232 LINE",
"334 194 LINE",
"334 161 LINE",
"341 122 LINE",
"353 102 LINE",
"369 97 LINE",
"378 97 LINE",
"386 97 LINE",
"400 103 LINE",
"410 122 LINE",
"416 161 LINE",
"416 194 LINE",
"416 232 LINE",
"395 267 LINE",
"378 267 LINE"
);
},
{
closed = 1;
nodes = (
"363 492 LINE",
"357 491 LINE",
"343 489 LINE",
"330 474 LINE",
"321 443 LINE",
"321 415 LINE",
"321 391 LINE",
"328 364 LINE",
"339 349 LINE",
"355 345 LINE",
"364 345 LINE",
"373 345 LINE",
"389 351 LINE",
"399 366 LINE",
"405 393 LINE",
"405 415 LINE",
"405 441 LINE",
"397 471 LINE",
"385 486 LINE",
"370 491 LINE"
);
}
);
width = 742;
}
);
unicode = 0038;
},
{
glyphname = nine;
lastChange = "2016-07-06 09:52:17 +0000";
layers = (
{
layerId = UUID0;
paths = (
{
closed = 1;
nodes = (
"371 249 LINE",
"339 238 LINE",
"279 228 LINE",
"250 228 LINE",
"215 228 LINE",
"152 243 LINE",
"126 259 LINE",
"87 281 LINE",
"42 357 LINE",
"42 410 LINE",
"42 463 LINE",
"91 543 LINE",
"174 596 LINE",
"281 623 LINE",
"338 623 LINE",
"380 623 LINE",
"462 606 LINE",
"538 572 LINE",
"604 521 LINE",
"652 453 LINE",
"679 367 LINE",
"679 315 LINE",
"679 277 LINE",
"672 207 LINE",
"660 176 LINE",
"646 141 LINE",
"600 80 LINE",
"574 56 LINE",
"523 23 LINE",
"391 -11 LINE",
"311 -11 LINE",
"277 -11 LINE",
"210 0 LINE",
"174 10 LINE",
"159 16 LINE",
"125 28 LINE",
"111 39 LINE",
"107 42 LINE",
"96 47 LINE",
"88 61 LINE",
"91 91 LINE",
"101 119 LINE",
"110 140 LINE",
"121 166 LINE",
"133 181 LINE",
"150 184 LINE",
"165 180 LINE",
"183 174 LINE",
"227 166 LINE",
"250 166 LINE",
"279 166 LINE",
"320 175 LINE",
"347 190 LINE",
"361 208 LINE",
"368 227 LINE",
"370 243 LINE"
);
},
{
closed = 1;
nodes = (
"294 462 LINE",
"271 462 LINE",
"242 439 LINE",
"242 414 LINE",
"242 403 LINE",
"249 389 LINE",
"261 380 LINE",
"278 376 LINE",
"288 376 LINE",
"302 376 LINE",
"329 381 LINE",
"340 384 LINE",
"353 387 LINE",
"364 392 LINE",
"354 430 LINE",
"317 462 LINE"
);
}
);
width = 721;
}
);
unicode = 0039;
},
{
glyphname = onesuperior;
lastChange = "2016-07-06 09:52:17 +0000";
layers = (
{
layerId = UUID0;
paths = (
{
closed = 1;
nodes = (
"332 491 LINE",
"332 415 LINE",
"332 384 LINE",
"328 334 LINE",
"328 308 LINE",
"328 301 LINE",
"327 287 LINE",
"323 275 LINE",
"316 267 LINE",
"310 267 LINE",
"279 267 LINE",
"236 268 LINE",
"201 269 LINE",
"166 269 LINE",
"143 269 LINE",
"134 269 LINE",
"120 271 LINE",
"110 277 LINE",
"105 292 LINE",
"105 304 LINE",
"105 305 LINE",
"106 313 LINE",
"108 324 LINE",
"109 333 LINE",
"109 334 LINE",
"109 336 LINE",
"108 347 LINE",
"106 358 LINE",
"105 367 LINE",
"105 368 LINE",
"105 378 LINE",
"105 407 LINE",
"105 438 LINE",
"104 470 LINE",
"104 495 LINE",
"103 510 LINE",
"103 510 LINE",
"99 510 LINE",
"89 499 LINE",
"77 485 LINE",
"62 474 LINE",
"53 474 LINE",
"46 474 LINE",
"37 482 LINE",
"37 487 LINE",
"37 616 LINE",
"37 620 LINE",
"54 628 LINE",
"71 639 LINE",
"89 651 LINE",
"109 658 LINE",
"114 658 LINE",
"143 658 LINE",
"191 657 LINE",
"238 657 LINE",
"286 656 LINE",
"313 656 LINE",
"320 656 LINE",
"332 645 LINE",
"332 639 LINE"
);
}
);
width = 389;
}
);
unicode = 00B9;
},
{
glyphname = twosuperior;
lastChange = "2016-07-06 09:52:17 +0000";
layers = (
{
layerId = UUID0;
paths = (
{
closed = 1;
nodes = (
"230 238 LINE",
"214 238 LINE",
"184 237 LINE",
"168 237 LINE",
"144 237 LINE",
"102 239 LINE",
"69 243 LINE",
"51 252 LINE",
"51 259 LINE",
"51 270 LINE",
"62 289 LINE",
"70 297 LINE",
"70 296 LINE",
"81 307 LINE",
"98 327 LINE",
"119 352 LINE",
"140 379 LINE",
"158 405 LINE",
"164 416 LINE",
"168 421 LINE",
"178 439 LINE",
"187 459 LINE",
"193 480 LINE",
"193 489 LINE",
"193 509 LINE",
"171 527 LINE",
"141 527 LINE",
"129 527 LINE",
"110 524 LINE",
"92 519 LINE",
"72 511 LINE",
"59 505 LINE",
"59 505 LINE",
"57 521 LINE",
"54 546 LINE",
"52 576 LINE",
"50 603 LINE",
"49 623 LINE",
"49 626 LINE",
"49 630 LINE",
"50 631 LINE",
"82 646 LINE",
"100 652 LINE",
"141 662 LINE",
"184 668 LINE",
"226 671 LINE",
"245 671 LINE",
"279 671 LINE",
"344 657 LINE",
"396 625 LINE",
"427 572 LINE",
"427 534 LINE",
"427 496 LINE",
"377 423 LINE",
"323 384 LINE",
"339 384 LINE",
"368 385 LINE",
"384 385 LINE",
"391 385 LINE",
"406 384 LINE",
"419 379 LINE",
"428 372 LINE",
"428 365 LINE",
"428 349 LINE",
"427 327 LINE",
"426 309 LINE",
"425 292 LINE",
"425 280 LINE",
"425 271 LINE",
"424 256 LINE",
"417 246 LINE",
"402 240 LINE",
"389 240 LINE",
"388 239 LINE",
"370 237 LINE",
"342 237 LINE",
"307 237 LINE",
"272 237 LINE",
"241 238 LINE"
);
}
);
width = 478;
}
);
unicode = 00B2;
},
{
glyphname = threesuperior;
lastChange = "2016-07-06 09:52:17 +0000";
layers = (
{
layerId = UUID0;
paths = (
{
closed = 1;
nodes = (
"426 372 LINE",
"426 339 LINE",
"416 292 LINE",
"400 259 LINE",
"383 241 LINE",
"377 239 LINE",
"357 229 LINE",
"315 218 LINE",
"270 213 LINE",
"225 213 LINE",
"203 213 LINE",
"199 213 LINE",
"172 216 LINE",
"142 221 LINE",
"117 227 LINE",
"116 230 LINE",
"107 233 LINE",
"91 236 LINE",
"84 241 LINE",
"73 247 LINE",
"64 253 LINE",
"71 354 LINE",
"93 348 LINE",
"139 341 LINE",
"157 341 LINE",
"181 341 LINE",
"211 358 LINE",
"211 380 LINE",
"211 395 LINE",
"186 409 LINE",
"166 411 LINE",
"150 411 LINE",
"122 410 LINE",
"105 409 LINE",
"105 488 LINE",
"112 488 LINE",
"125 487 LINE",
"132 487 LINE",
"144 487 LINE",
"166 490 LINE",
"183 497 LINE",
"192 512 LINE",
"192 524 LINE",
"192 542 LINE",
"162 556 LINE",
"138 556 LINE",
"120 556 LINE",
"74 543 LINE",
"52 533 LINE",
"45 637 LINE",
"63 645 LINE",
"105 659 LINE",
"153 668 LINE",
"203 673 LINE",
"229 673 LINE",
"254 672 LINE",
"306 667 LINE",
"324 661 LINE",
"324 661 LINE",
"334 658 LINE",
"348 653 LINE",
"359 646 LINE",
"359 643 LINE",
"359 638 LINE",
"366 638 LINE",
"379 625 LINE",
"389 607 LINE",
"396 590 LINE",
"398 586 LINE",
"402 576 LINE",
"405 556 LINE",
"408 545 LINE",
"408 535 LINE",
"402 512 LINE",
"392 490 LINE",
"377 472 LINE",
"368 466 LINE",
"396 450 LINE",
"426 402 LINE"
);
}
);
width = 471;
}
);
unicode = 00B3;
},
